0
SECTION
2
HEADER
9
$INSUNITS
70
4
9
$ACADVER
1
AC1014
9
$HANDSEED
5
FFFF
0
ENDSEC
0
SECTION
2
TABLES
0
TABLE
2
VPORT
5
8
100
AcDbSymbolTable
0
ENDTAB
0
TABLE
2
LTYPE
5
5
100
AcDbSymbolTable
0
LTYPE
5
14
100
AcDbSymbolTableRecord
100
AcDbLinetypeTableRecord
2
BYBLOCK
70
0
0
LTYPE
5
15
100
AcDbSymbolTableRecord
100
AcDbLinetypeTableRecord
2
BYLAYER
70
0
0
ENDTAB
0
TABLE
2
LAYER
5
2
100
AcDbSymbolTable
70
2
0
LAYER
5
50
100
AcDbSymbolTableRecord
100
AcDbLayerTableRecord
2
0
70
0
6
CONTINUOUS
0
ENDTAB
0
TABLE
2
STYLE
5
3
100
AcDbSymbolTable
70
1
0
STYLE
5
11
100
AcDbSymbolTableRecord
100
AcDbTextStyleTableRecord
2
STANDARD
70
0
0
ENDTAB
0
TABLE
2
VIEW
5
6
100
AcDbSymbolTable
70
0
0
ENDTAB
0
TABLE
2
UCS
5
7
100
AcDbSymbolTable
70
0
0
ENDTAB
0
TABLE
2
APPID
5
9
100
AcDbSymbolTable
70
2
0
APPID
5
12
100
AcDbSymbolTableRecord
100
AcDbRegAppTableRecord
2
ACAD
70
0
0
ENDTAB
0
TABLE
2
DIMSTYLE
5
A
100
AcDbSymbolTable
70
1
0
ENDTAB
0
TABLE
2
BLOCK_RECORD
5
1
100
AcDbSymbolTable
70
1
0
BLOCK_RECORD
5
1F
100
AcDbSymbolTableRecord
100
AcDbBlockTableRecord
2
*MODEL_SPACE
0
BLOCK_RECORD
5
1B
100
AcDbSymbolTableRecord
100
AcDbBlockTableRecord
2
*PAPER_SPACE
0
ENDTAB
0
ENDSEC
0
SECTION
2
BLOCKS
0
BLOCK
5
20
100
AcDbEntity
100
AcDbBlockBegin
2
*MODEL_SPACE
0
ENDBLK
5
21
100
AcDbEntity
100
AcDbBlockEnd
0
BLOCK
5
1C
100
AcDbEntity
100
AcDbBlockBegin
2
*PAPER_SPACE
0
ENDBLK
5
1D
100
AcDbEntity
100
AcDbBlockEnd
0
ENDSEC
0
SECTION
2
ENTITIES
0
ARC
5
100
100
AcDbEntity
8
0
100
AcDbCircle
10
72.969354037866566
20
-54.54519149032155
30
0
40
1.7499999999999993
210
0
220
0
230
1
100
AcDbArc
50
250.27212716094235
51
339.99999999999977
0
LINE
5
101
100
AcDbEntity
8
0
100
AcDbLine
10
28.42059397904217
20
-45.651089217485215
30
0
11
27.585293049697928
21
-45.559105671364186
31
0
0
LINE
5
102
100
AcDbEntity
8
0
100
AcDbLine
10
24.237284593039821
20
-45.223844825476114
30
0
11
23.398609133132826
21
-45.148063280038109
31
0
0
SPLINE
5
103
100
AcDbEntity
8
0
100
AcDbSpline
70
0
71
3
72
8
73
4
74
0
42
0.000000001
43
0.0000000001
44
0.0000000001
40
0
40
0
40
0
40
0
40
1
40
1
40
1
40
1
10
37.561002894380465
20
30.186750000000195
30
0
10
37.336014351159378
20
30.922497881355859
30
0
10
36.656879483414087
20
31.424999999999592
30
0
10
35.887500000000131
20
31.424999999999592
30
0
0
LINE
5
104
100
AcDbEntity
8
0
100
AcDbLine
10
22.559273446374792
20
-45.075451113935365
30
0
11
21.719281006001783
21
-45.005991515984185
31
0
0
LINE
5
105
100
AcDbEntity
8
0
100
AcDbLine
10
20.878634642981755
20
-44.93967078127806
30
0
11
20.037336534232626
21
-44.876478369311847
31
0
0
SPLINE
5
106
100
AcDbEntity
8
0
100
AcDbSpline
70
0
71
3
72
14
73
10
74
0
42
0.000000001
43
0.0000000001
44
0.0000000001
40
0
40
0
40
0
40
0
40
1
40
1
40
1
40
2
40
2
40
2
40
3
40
3
40
3
40
3
10
-8.7378708125921456
20
-44.775000000000169
30
0
10
-9.0634078737482149
20
-44.775000000000169
30
0
10
-9.3858326231680245
20
-44.711415373087782
30
0
10
-9.6869967385207723
20
-44.587825107250545
30
0
10
-9.8864357795462432
20
-44.505980282976942
30
0
10
-10.074453313529173
20
-44.398681172994152
30
0
10
-10.246365090880172
20
-44.268601016345777
30
0
10
-10.418276868229892
20
-44.13852085969534
30
0
10
-10.572643269297171
20
-43.986748970632554
30
0
10
-10.705618425370229
20
-43.817066578460491
30
0
0
SPLINE
5
107
100
AcDbEntity
8
0
100
AcDbSpline
70
0
71
3
72
8
73
4
74
0
42
0.000000001
43
0.0000000001
44
0.0000000001
40
0
40
0
40
0
40
0
40
1
40
1
40
1
40
1
10
-2.2125000000001727
20
31.424999999999592
30
0
10
-1.2460016877965607
20
31.424999999999592
30
0
10
-0.46250000000020108
20
32.208501687795881
30
0
10
-0.46250000000020108
20
33.174999999999635
30
0
0
SPLINE
5
108
100
AcDbEntity
8
0
100
AcDbSpline
70
0
71
3
72
8
73
4
74
0
42
0.000000001
43
0.0000000001
44
0.0000000001
40
0
40
0
40
0
40
0
40
1
40
1
40
1
40
1
10
-57.612499999999955
20
-33.500000000000476
30
0
10
-57.612499999999955
20
-34.466498312204372
30
0
10
-56.828998312203737
20
-35.250000000000448
30
0
10
-55.862499999999983
20
-35.250000000000448
30
0
0
LINE
5
109
100
AcDbEntity
8
0
100
AcDbLine
10
26.74930553189677
20
-45.470419033909373
30
0
11
25.912637803564795
21
-45.384998458028853
31
0
0
LINE
5
110
100
AcDbEntity
8
0
100
AcDbLine
10
-55.862499999999983
20
-35.250000000000448
30
0
11
-29.037499999999934
21
-35.250000000000448
31
0
0
LINE
5
111
100
AcDbEntity
8
0
100
AcDbLine
10
23.398609133132826
20
-45.148063280038109
30
0
11
22.559273446374792
21
-45.075451113935365
31
0
0
LINE
5
112
100
AcDbEntity
8
0
100
AcDbLine
10
25.912637803564795
20
-45.384998458028853
30
0
11
25.07529572248794
21
-45.302815608953573
31
0
0
LINE
5
113
100
AcDbEntity
8
0
100
AcDbLine
10
27.585293049697928
20
-45.559105671364186
30
0
11
26.74930553189677
21
-45.470419033909373
31
0
0
LINE
5
114
100
AcDbEntity
8
0
100
AcDbLine
10
-8.7378708125921456
20
-44.775000000000169
30
0
11
17.262078310511644
21
-44.775000000000169
31
0
0
LINE
5
115
100
AcDbEntity
8
0
100
AcDbLine
10
25.07529572248794
20
-45.302815608953573
30
0
11
24.237284593039821
21
-45.223844825476114
31
0
0
SPLINE
5
116
100
AcDbEntity
8
0
100
AcDbSpline
70
0
71
3
72
8
73
4
74
0
42
0.000000001
43
0.0000000001
44
0.0000000001
40
0
40
0
40
0
40
0
40
1
40
1
40
1
40
1
10
37.561002894380465
20
30.186750000000195
30
0
10
37.785991437601837
20
29.451002118644602
30
0
10
38.465126305346843
20
28.948499999999946
30
0
10
39.234505788760941
20
28.948499999999946
30
0
0
LINE
5
117
100
AcDbEntity
8
0
100
AcDbLine
10
-19.512500000000497
20
29.674999999999621
30
0
11
-19.512500000000497
21
23.649999999999984
31
0
0
SPLINE
5
118
100
AcDbEntity
8
0
100
AcDbSpline
70
0
71
3
72
8
73
4
74
0
42
0.000000001
43
0.0000000001
44
0.0000000001
40
0
40
0
40
0
40
0
40
1
40
1
40
1
40
1
10
18.587499999998816
20
33.174999999999635
30
0
10
18.587499999998816
20
32.208501687795881
30
0
10
19.371001687795317
20
31.424999999999592
30
0
10
20.337499999998929
20
31.424999999999592
30
0
0
LINE
5
119
100
AcDbEntity
8
0
100
AcDbLine
10
18.587499999998816
20
33.174999999999635
30
0
11
18.587499999998816
21
34.437500000000334
31
0
0
LINE
5
120
100
AcDbEntity
8
0
100
AcDbLine
10
-57.612499999999955
20
20.14999999999997
30
0
11
-57.612499999999955
21
-33.500000000000476
31
0
0
LINE
5
121
100
AcDbEntity
8
0
100
AcDbLine
10
21.719281006001783
20
-45.005991515984185
30
0
11
20.878634642981755
21
-44.93967078127806
31
0
0
LINE
5
122
100
AcDbEntity
8
0
100
AcDbLine
10
29.255201455146906
20
-45.746402870453018
30
0
11
28.42059397904217
21
-45.651089217485215
31
0
0
SPLINE
5
123
100
AcDbEntity
8
0
100
AcDbSpline
70
0
71
3
72
8
73
4
74
0
42
0.000000001
43
0.0000000001
44
0.0000000001
40
0
40
0
40
0
40
0
40
1
40
1
40
1
40
1
10
-10.705618425370229
20
-43.817066578460491
30
0
10
-15.305501307508731
20
-37.947405250725303
30
0
10
-21.416128499052203
20
-35.091716391236893
30
0
10
-29.037499999999934
20
-35.250000000000448
30
0
0
LINE
5
124
100
AcDbEntity
8
0
100
AcDbLine
10
35.491854893079392
20
-46.571264518901963
30
0
11
35.077375500042166
21
-46.510040155636041
31
0
0
LINE
5
125
100
AcDbEntity
8
0
100
AcDbLine
10
55.146821258899422
20
-50.664020087588604
30
0
11
54.742219760483493
21
-50.555301277236673
31
0
0
SPLINE
5
126
100
AcDbEntity
8
0
100
AcDbSpline
70
0
71
3
72
20
73
16
74
0
42
0.000000001
43
0.0000000001
44
0.0000000001
40
0
40
0
40
0
40
0
40
1
40
1
40
1
40
2
40
2
40
2
40
3
40
3
40
3
40
4
40
4
40
4
40
5
40
5
40
5
40
5
10
74.618825957005669
20
-55.129962338746274
30
0
10
74.540887794385441
20
-55.344095680659429
30
0
10
74.421869759787654
20
-55.540958734864567
30
0
10
74.268471021493468
20
-55.7094706703489
30
0
10
74.115072283198572
20
-55.877982605833019
30
0
10
73.930225992303576
20
-56.014921290700421
30
0
10
73.724336592245635
20
-56.112578856995761
30
0
10
73.518447192188546
20
-56.210236423292805
30
0
10
73.295451512734445
20
-56.266745551897195
30
0
10
73.067901312010491
20
-56.278925513407039
30
0
10
72.94971470113461
20
-56.285251626796331
30
0
10
72.831190599800465
20
-56.279571678406235
30
0
10
72.714150522090591
20
-56.261972959390327
30
0
10
72.597110444382565
20
-56.244374240376196
30
0
10
72.482157046618539
20
-56.214947369092023
30
0
10
72.371056967237536
20
-56.174144586559542
30
0
0
LINE
5
127
100
AcDbEntity
8
0
100
AcDbLine
10
72.371056967237536
20
-56.174144586559542
30
0
11
71.576932334438595
21
-55.88417316814823
31
0
0
LINE
5
128
100
AcDbEntity
8
0
100
AcDbLine
10
64.400127466890439
20
-53.417225781084632
30
0
11
63.599316842434575
21
-53.159418200921742
31
0
0
LINE
5
129
100
AcDbEntity
8
0
100
AcDbLine
10
47.424337413745207
20
-48.766968115831695
30
0
11
47.01579450798215
21
-48.677205482394506
31
0
0
LINE
5
130
100
AcDbEntity
8
0
100
AcDbLine
10
67.596498078933479
20
-54.481513912120612
30
0
11
66.798423036690423
21
-54.210546547771195
31
0
0
LINE
5
131
100
AcDbEntity
8
0
100
AcDbLine
10
37.147847329247497
20
-46.825412994913229
30
0
11
36.734140277534181
21
-46.760477168398644
31
0
0
LINE
5
132
100
AcDbEntity
8
0
100
AcDbLine
10
59.182097850877483
20
-51.802861062239138
30
0
11
58.779431625883603
21
-51.684833275373059
31
0
0
LINE
5
133
100
AcDbEntity
8
0
100
AcDbLine
10
51.904359436888484
20
-49.821444628446052
30
0
11
51.498131933697465
21
-49.720546590936046
31
0
0
LINE
5
134
100
AcDbEntity
8
0
100
AcDbLine
10
46.198070579731706
20
-48.500748800417988
30
0
11
45.788889604547279
21
-48.414054487530471
31
0
0
LINE
5
135
100
AcDbEntity
8
0
100
AcDbLine
10
30.089108159655868
20
-45.845082018317491
30
0
11
29.672242878057293
21
-45.795319464638489
31
0
0
LINE
5
136
100
AcDbEntity
8
0
100
AcDbLine
10
35.906142917883216
20
-46.633408448280953
30
0
11
35.491854893079392
21
-46.571264518901963
31
0
0
LINE
5
137
100
AcDbEntity
8
0
100
AcDbLine
10
57.973532960141455
20
-51.451501365098444
30
0
11
57.570298209554466
21
-51.336208341989327
31
0
0
LINE
5
138
100
AcDbEntity
8
0
100
AcDbLine
10
30.922306354364597
20
-45.947164075560529
30
0
11
30.505796319766407
21
-45.895695270578081
31
0
0
LINE
5
139
100
AcDbEntity
8
0
100
AcDbLine
10
34.66270588595188
20
-46.449729813550711
30
0
11
34.247847196208966
21
-46.390327956293298
31
0
0
LINE
5
140
100
AcDbEntity
8
0
100
AcDbLine
10
44.15004353919295
20
-48.077481623093696
30
0
11
43.739803254892792
21
-47.99588087113495
31
0
0
LINE
5
141
100
AcDbEntity
8
0
100
AcDbLine
10
65.200244070675467
20
-53.678371994627518
30
0
11
64.400127466890439
21
-53.417225781084632
31
0
0
LINE
5
142
100
AcDbEntity
8
0
100
AcDbLine
10
40.450358378547492
20
-47.379241973689652
30
0
11
40.038249125632689
21
-47.306626453248661
31
0
0
LINE
5
143
100
AcDbEntity
8
0
100
AcDbLine
10
39.625936498646524
20
-47.234988538617948
30
0
11
39.213421491258003
21
-47.164323424569794
31
0
0
LINE
5
144
100
AcDbEntity
8
0
100
AcDbLine
10
69.19064694222763
20
-55.033075795325708
30
0
11
68.393904394040504
21
-54.75569827970002
31
0
0
LINE
5
145
100
AcDbEntity
8
0
100
AcDbLine
10
70.782157511956655
20
-55.597329595002982
30
0
11
69.986730074371707
21
-55.313625533481705
31
0
0
LINE
5
146
100
AcDbEntity
8
0
100
AcDbLine
10
63.599316842434575
20
-53.159418200921742
30
0
11
63.198648938841529
21
-53.031777618859017
31
0
0
LINE
5
147
100
AcDbEntity
8
0
100
AcDbLine
10
31.754787922390566
20
-46.05268828405908
30
0
11
31.338637237352831
21
-45.999493393943816
31
0
0
LINE
5
148
100
AcDbEntity
8
0
100
AcDbLine
10
66.798423036690423
20
-54.210546547771195
30
0
11
65.999673728601437
21
-53.942822822870333
31
0
0
LINE
5
149
100
AcDbEntity
8
0
100
AcDbLine
10
57.570298209554466
20
-51.336208341989327
30
0
11
57.166871638318582
21
-51.221838017542289
31
0
0
LINE
5
150
100
AcDbEntity
8
0
100
AcDbLine
10
39.213421491258003
20
-47.164323424569794
30
0
11
38.800705125143878
21
-47.094626170945482
31
0
0
LINE
5
151
100
AcDbEntity
8
0
100
AcDbLine
10
38.800705125143878
20
-47.094626170945482
30
0
11
38.387788447161824
21
-47.02589171622872
31
0
0
LINE
5
152
100
AcDbEntity
8
0
100
AcDbLine
10
51.091697024831518
20
-49.620646089294063
30
0
11
50.685053919337776
21
-49.521746916067535
31
0
0
LINE
5
153
100
AcDbEntity
8
0
100
AcDbLine
10
38.387788447161824
20
-47.02589171622872
30
0
11
37.974672526540957
21
-46.958114891111684
31
0
0
LINE
5
154
100
AcDbEntity
8
0
100
AcDbLine
10
36.320238427469548
20
-46.69647748775656
30
0
11
35.906142917883216
21
-46.633408448280953
31
0
0
LINE
5
155
100
AcDbEntity
8
0
100
AcDbLine
10
68.393904394040504
20
-54.75569827970002
30
0
11
67.596498078933479
21
-54.481513912120612
31
0
0
LINE
5
156
100
AcDbEntity
8
0
100
AcDbLine
10
49.056385544093729
20
-49.136230528464147
30
0
11
48.648691479310543
21
-49.042385785773739
31
0
0
LINE
5
157
100
AcDbEntity
8
0
100
AcDbLine
10
40.038249125632689
20
-47.306626453248661
30
0
11
39.625936498646524
21
-47.234988538617948
31
0
0
LINE
5
158
100
AcDbEntity
8
0
100
AcDbLine
10
30.505796319766407
20
-45.895695270578081
30
0
11
30.089108159655868
21
-45.845082018317491
31
0
0
LINE
5
159
100
AcDbEntity
8
0
100
AcDbLine
10
31.338637237352831
20
-45.999493393943816
30
0
11
30.922306354364597
21
-45.947164075560529
31
0
0
LINE
5
160
100
AcDbEntity
8
0
100
AcDbLine
10
71.576932334438595
20
-55.88417316814823
30
0
11
70.782157511956655
21
-55.597329595002982
31
0
0
LINE
5
161
100
AcDbEntity
8
0
100
AcDbLine
10
37.974672526540957
20
-46.958114891111684
30
0
11
37.561358452062819
21
-46.89129043206453
31
0
0
LINE
5
162
100
AcDbEntity
8
0
100
AcDbLine
10
65.999673728601437
20
-53.942822822870333
30
0
11
65.200244070675467
21
-53.678371994627518
31
0
0
LINE
5
163
100
AcDbEntity
8
0
100
AcDbLine
10
37.561358452062819
20
-46.89129043206453
30
0
11
37.147847329247497
21
-46.825412994913229
31
0
0
LINE
5
164
100
AcDbEntity
8
0
100
AcDbLine
10
53.121806087249524
20
-50.130082823176529
30
0
11
52.716195615709523
21
-50.026217052989956
31
0
0
LINE
5
165
100
AcDbEntity
8
0
100
AcDbLine
10
33.832800572593783
20
-46.331829064993677
30
0
11
33.417567151412385
21
-46.274227647183999
31
0
0
LINE
5
166
100
AcDbEntity
8
0
100
AcDbLine
10
55.955429474966621
20
-50.884318615450503
30
0
11
55.551224128762527
21
-50.773694302656232
31
0
0
LINE
5
167
100
AcDbEntity
8
0
100
AcDbLine
10
58.376577046860461
20
-51.567711528236551
30
0
11
57.973532960141455
21
-51.451501365098444
31
0
0
LINE
5
168
100
AcDbEntity
8
0
100
AcDbLine
10
29.672242878057293
20
-45.795319464638489
30
0
11
29.255201455146906
21
-45.746402870453018
31
0
0
LINE
5
169
100
AcDbEntity
8
0
100
AcDbLine
10
32.170757344752531
20
-46.106753892969685
30
0
11
31.754787922390566
21
-46.05268828405908
31
0
0
LINE
5
170
100
AcDbEntity
8
0
100
AcDbLine
10
69.986730074371707
20
-55.313625533481705
30
0
11
69.19064694222763
21
-55.033075795325708
31
0
0
LINE
5
171
100
AcDbEntity
8
0
100
AcDbLine
10
33.417567151412385
20
-46.274227647183999
30
0
11
33.002148061660904
21
-46.217518245698166
31
0
0
LINE
5
172
100
AcDbEntity
8
0
100
AcDbLine
10
62.396783052806711
20
-52.77904641114457
30
0
11
61.995583039522529
21
-52.653965549311117
31
0
0
LINE
5
173
100
AcDbEntity
8
0
100
AcDbLine
10
36.734140277534181
20
-46.760477168398644
30
0
11
36.320238427469548
21
-46.69647748775656
31
0
0
LINE
5
174
100
AcDbEntity
8
0
100
AcDbLine
10
56.763252091360613
20
-51.108395941868885
30
0
11
56.359438418044562
21
-50.995887643408899
31
0
0
LINE
5
175
100
AcDbEntity
8
0
100
AcDbLine
10
49.871140208369212
20
-49.326966502213061
30
0
11
49.463868286716576
21
-49.231091566000451
31
0
0
LINE
5
176
100
AcDbEntity
8
0
100
AcDbLine
10
47.01579450798215
20
-48.677205482394506
30
0
11
46.607038903831693
21
-48.588465682060367
31
0
0
LINE
5
177
100
AcDbEntity
8
0
100
AcDbLine
10
49.463868286716576
20
-49.231091566000451
30
0
11
49.056385544093729
21
-49.136230528464147
31
0
0
LINE
5
178
100
AcDbEntity
8
0
100
AcDbLine
10
47.832667732381623
20
-48.857753064674974
30
0
11
47.424337413745207
21
-48.766968115831695
31
0
0
LINE
5
179
100
AcDbEntity
8
0
100
AcDbLine
10
56.359438418044562
20
-50.995887643408899
30
0
11
55.955429474966621
21
-50.884318615450503
31
0
0
LINE
5
180
100
AcDbEntity
8
0
100
AcDbLine
10
53.527212738218509
20
-50.234928927826807
30
0
11
53.121806087249524
21
-50.130082823176529
31
0
0
LINE
5
181
100
AcDbEntity
8
0
100
AcDbLine
10
48.648691479310543
20
-49.042385785773739
30
0
11
48.240785661152984
21
-48.949559396968176
31
0
0
LINE
5
182
100
AcDbEntity
8
0
100
AcDbLine
10
40.862263294536604
20
-47.452839756668688
30
0
11
40.450358378547492
21
-47.379241973689652
31
0
0
LINE
5
183
100
AcDbEntity
8
0
100
AcDbLine
10
63.198648938841529
20
-53.031777618859017
30
0
11
62.797804676963494
21
-52.904985413248617
31
0
0
LINE
5
184
100
AcDbEntity
8
0
100
AcDbLine
10
58.779431625883603
20
-51.684833275373059
30
0
11
58.376577046860461
21
-51.567711528236551
31
0
0
LINE
5
185
100
AcDbEntity
8
0
100
AcDbLine
10
61.995583039522529
20
-52.653965549311117
30
0
11
61.594203589263628
21
-52.529747865343346
31
0
0
LINE
5
186
100
AcDbEntity
8
0
100
AcDbLine
10
61.192643635015514
20
-52.406398488762171
30
0
11
60.79090209247164
21
-52.283922632099866
31
0
0
LINE
5
187
100
AcDbEntity
8
0
100
AcDbLine
10
54.337418547048429
20
-50.44754308954591
30
0
11
53.932416553360639
21
-50.340750639934804
31
0
0
LINE
5
188
100
AcDbEntity
8
0
100
AcDbLine
10
42.918691645617827
20
-47.835713428984015
30
0
11
42.507821571814276
21
-47.757140675296448
31
0
0
LINE
5
189
100
AcDbEntity
8
0
100
AcDbLine
10
42.507821571814276
20
-47.757140675296448
30
0
11
42.096742914346891
21
-47.679570733184526
31
0
0
LINE
5
190
100
AcDbEntity
8
0
100
AcDbLine
10
52.310380371283514
20
-49.923336187858176
30
0
11
51.904359436888484
21
-49.821444628446052
31
0
0
LINE
5
191
100
AcDbEntity
8
0
100
AcDbLine
10
43.739803254892792
20
-47.99588087113495
30
0
11
43.329352425070425
21
-47.915292435997365
31
0
0
LINE
5
192
100
AcDbEntity
8
0
100
AcDbLine
10
59.584576871146538
20
-51.921789365233515
30
0
11
59.182097850877483
21
-51.802861062239138
31
0
0
LINE
5
193
100
AcDbEntity
8
0
100
AcDbLine
10
44.560072745443279
20
-48.160097275331744
30
0
11
44.15004353919295
21
-48.077481623093696
31
0
0
LINE
5
194
100
AcDbEntity
8
0
100
AcDbLine
10
51.498131933697465
20
-49.720546590936046
30
0
11
51.091697024831518
21
-49.620646089294063
31
0
0
LINE
5
195
100
AcDbEntity
8
0
100
AcDbLine
10
62.797804676963494
20
-52.904985413248617
30
0
11
62.396783052806711
21
-52.77904641114457
31
0
0
LINE
5
196
100
AcDbEntity
8
0
100
AcDbLine
10
45.379496134349836
20
-48.328381973364678
30
0
11
44.969890408451874
21
-48.243730086913708
31
0
0
LINE
5
197
100
AcDbEntity
8
0
100
AcDbLine
10
57.166871638318582
20
-51.221838017542289
30
0
11
56.763252091360613
21
-51.108395941868885
31
0
0
LINE
5
198
100
AcDbEntity
8
0
100
AcDbLine
10
35.077375500042166
20
-46.510040155636041
30
0
11
34.66270588595188
21
-46.449729813550711
31
0
0
LINE
5
199
100
AcDbEntity
8
0
100
AcDbLine
10
59.986869829791601
20
-52.041612690337011
30
0
11
59.584576871146538
21
-51.921789365233515
31
0
0
LINE
5
200
100
AcDbEntity
8
0
100
AcDbLine
10
33.002148061660904
20
-46.217518245698166
30
0
11
32.58654442316535
21
-46.161695447574438
31
0
0
LINE
5
201
100
AcDbEntity
8
0
100
AcDbLine
10
60.388977861855523
20
-52.162325582009181
30
0
11
59.986869829791601
21
-52.041612690337011
31
0
0
LINE
5
202
100
AcDbEntity
8
0
100
AcDbLine
10
46.607038903831693
20
-48.588465682060367
30
0
11
46.198070579731706
21
-48.500748800417988
31
0
0
LINE
5
203
100
AcDbEntity
8
0
100
AcDbLine
10
43.329352425070425
20
-47.915292435997365
30
0
11
42.918691645617827
21
-47.835713428984015
31
0
0
LINE
5
204
100
AcDbEntity
8
0
100
AcDbLine
10
60.79090209247164
20
-52.283922632099866
30
0
11
60.388977861855523
21
-52.162325582009181
31
0
0
LINE
5
205
100
AcDbEntity
8
0
100
AcDbLine
10
53.932416553360639
20
-50.340750639934804
30
0
11
53.527212738218509
21
-50.234928927826807
31
0
0
LINE
5
206
100
AcDbEntity
8
0
100
AcDbLine
10
50.278201876205713
20
-49.423852623091555
30
0
11
49.871140208369212
21
-49.326966502213061
31
0
0
LINE
5
207
100
AcDbEntity
8
0
100
AcDbLine
10
50.685053919337776
20
-49.521746916067535
30
0
11
50.278201876205713
21
-49.423852623091555
31
0
0
LINE
5
208
100
AcDbEntity
8
0
100
AcDbLine
10
55.551224128762527
20
-50.773694302656232
30
0
11
55.146821258899422
21
-50.664020087588604
31
0
0
LINE
5
209
100
AcDbEntity
8
0
100
AcDbLine
10
45.788889604547279
20
-48.414054487530471
30
0
11
45.379496134349836
21
-48.328381973364678
31
0
0
LINE
5
210
100
AcDbEntity
8
0
100
AcDbLine
10
48.240785661152984
20
-48.949559396968176
30
0
11
47.832667732381623
21
-48.857753064674974
31
0
0
LINE
5
211
100
AcDbEntity
8
0
100
AcDbLine
10
44.969890408451874
20
-48.243730086913708
30
0
11
44.560072745443279
21
-48.160097275331744
31
0
0
LINE
5
212
100
AcDbEntity
8
0
100
AcDbLine
10
41.685456435342957
20
-47.60299991310287
30
0
11
41.273962944383356
21
-47.52742429683952
31
0
0
LINE
5
213
100
AcDbEntity
8
0
100
AcDbLine
10
61.594203589263628
20
-52.529747865343346
30
0
11
61.192643635015514
21
-52.406398488762171
31
0
0
LINE
5
214
100
AcDbEntity
8
0
100
AcDbLine
10
52.716195615709523
20
-50.026217052989956
30
0
11
52.310380371283514
21
-49.923336187858176
31
0
0
LINE
5
215
100
AcDbEntity
8
0
100
AcDbLine
10
42.096742914346891
20
-47.679570733184526
30
0
11
41.685456435342957
21
-47.60299991310287
31
0
0
LINE
5
216
100
AcDbEntity
8
0
100
AcDbLine
10
41.273962944383356
20
-47.52742429683952
30
0
11
40.862263294536604
21
-47.452839756668688
31
0
0
LINE
5
217
100
AcDbEntity
8
0
100
AcDbLine
10
54.742219760483493
20
-50.555301277236673
30
0
11
54.337418547048429
21
-50.44754308954591
31
0
0
LINE
5
218
100
AcDbEntity
8
0
100
AcDbLine
10
34.247847196208966
20
-46.390327956293298
30
0
11
33.832800572593783
21
-46.331829064993677
31
0
0
SPLINE
5
219
100
AcDbEntity
8
0
100
AcDbSpline
70
0
71
3
72
8
73
4
74
0
42
0.000000001
43
0.0000000001
44
0.0000000001
40
0
40
0
40
0
40
0
40
1
40
1
40
1
40
1
10
-21.262500000000468
20
21.900000000000013
30
0
10
-20.296001687796572
20
21.900000000000013
30
0
10
-19.512500000000497
20
22.68350168779623
30
0
10
-19.512500000000497
20
23.649999999999984
30
0
0
LINE
5
220
100
AcDbEntity
8
0
100
AcDbLine
10
-0.46250000000020108
20
34.437500000000334
30
0
11
-0.46250000000020108
21
33.174999999999635
31
0
0
SPLINE
5
221
100
AcDbEntity
8
0
100
AcDbSpline
70
0
71
3
72
11
73
7
74
0
42
0.000000001
43
0.0000000001
44
0.0000000001
40
0
40
0
40
0
40
0
40
1
40
1
40
1
40
2
40
2
40
2
40
2
10
20.037336534232626
20
-44.876478369311847
30
0
10
19.575604783783209
20
-44.842666368673711
30
0
10
19.113293669942752
20
-44.817295365054228
30
0
10
18.65063476126986
20
-44.800378066621001
30
0
10
18.187975852596967
20
-44.783460768187631
30
0
10
17.725046409584539
20
-44.775000000000169
30
0
10
17.262078310511644
20
-44.775000000000169
30
0
0
SPLINE
5
222
100
AcDbEntity
8
0
100
AcDbSpline
70
0
71
3
72
8
73
4
74
0
42
0.000000001
43
0.0000000001
44
0.0000000001
40
0
40
0
40
0
40
0
40
1
40
1
40
1
40
1
10
18.587499999998816
20
34.437500000000334
30
0
10
18.587499999998816
20
35.403998312204301
30
0
10
17.803998312202882
20
36.187500000000377
30
0
10
16.837499999998844
20
36.187500000000377
30
0
0
SPLINE
5
223
100
AcDbEntity
8
0
100
AcDbSpline
70
0
71
3
72
8
73
4
74
0
42
0.000000001
43
0.0000000001
44
0.0000000001
40
0
40
0
40
0
40
0
40
1
40
1
40
1
40
1
10
1.2874999999997705
20
36.187500000000377
30
0
10
0.32100168779615856
20
36.187500000000377
30
0
10
-0.46250000000020108
20
35.403998312204301
30
0
10
-0.46250000000020108
20
34.437500000000334
30
0
0
SPLINE
5
224
100
AcDbEntity
8
0
100
AcDbSpline
70
0
71
3
72
8
73
4
74
0
42
0.000000001
43
0.0000000001
44
0.0000000001
40
0
40
0
40
0
40
0
40
1
40
1
40
1
40
1
10
-55.862499999999983
20
21.900000000000013
30
0
10
-56.828998312203737
20
21.900000000000013
30
0
10
-57.612499999999955
20
21.116498312203937
30
0
10
-57.612499999999955
20
20.14999999999997
30
0
0
SPLINE
5
225
100
AcDbEntity
8
0
100
AcDbSpline
70
0
71
3
72
8
73
4
74
0
42
0.000000001
43
0.0000000001
44
0.0000000001
40
0
40
0
40
0
40
0
40
1
40
1
40
1
40
1
10
-17.762500000000241
20
31.424999999999592
30
0
10
-18.728998312204137
20
31.424999999999592
30
0
10
-19.512500000000497
20
30.641498312203588
30
0
10
-19.512500000000497
20
29.674999999999621
30
0
0
LINE
5
226
100
AcDbEntity
8
0
100
AcDbLine
10
32.58654442316535
20
-46.161695447574438
30
0
11
32.170757344752531
21
-46.106753892969685
31
0
0
LINE
5
227
100
AcDbEntity
8
0
100
AcDbLine
10
74.618825957005669
20
-55.129962338746274
30
0
11
79.933182815833149
21
-40.528886870195379
31
0
0
LINE
5
228
100
AcDbEntity
8
0
100
AcDbLine
10
56.687500000000014
20
-28.455320302680871
30
0
11
56.687500000000014
21
27.198499999999989
31
0
0
ARC
5
229
100
AcDbEntity
8
0
100
AcDbCircle
10
54.937499999999986
20
27.198499999999967
30
0
40
1.7500000000000249
210
0
220
-0
230
1
100
AcDbArc
50
0
51
89.999999999999545
0
ARC
5
230
100
AcDbEntity
8
0
100
AcDbCircle
10
59.1875
20
-28.455320302680882
30
0
40
2.4999999999999911
210
0
220
0
230
1
100
AcDbArc
50
180
51
249.99999999999844
0
ARC
5
231
100
AcDbEntity
8
0
100
AcDbCircle
10
78.288720729457822
20
-39.930351619375401
30
0
40
1.7500000000000082
210
0
220
0
230
1
100
AcDbArc
50
-20.000000000001911
51
69.999999999998096
0
CIRCLE
5
232
100
AcDbEntity
8
0
100
AcDbCircle
10
37.01362867605922
20
12.365490708718498
30
0
40
1.8499999999999996
210
0
220
0
230
1
0
CIRCLE
5
233
100
AcDbEntity
8
0
100
AcDbCircle
10
-38.586371323940782
20
2.8354907087185
30
0
40
1.8499999999999994
210
0
220
0
230
1
0
CIRCLE
5
234
100
AcDbEntity
8
0
100
AcDbCircle
10
-38.586371323940782
20
-16.214509291281509
30
0
40
1.8500000000000008
210
0
220
0
230
1
0
CIRCLE
5
235
100
AcDbEntity
8
0
100
AcDbCircle
10
37.013628676059234
20
-25.734509291281526
30
0
40
1.8500000000000016
210
0
220
0
230
1
0
ARC
5
236
100
AcDbEntity
8
0
100
AcDbCircle
10
30.208217579645407
20
-15.050478867758672
30
0
40
0.67499999999918192
210
0
220
0
230
1
100
AcDbArc
50
265.51284418330698
51
270.00000000000301
0
ARC
5
237
100
AcDbEntity
8
0
100
AcDbCircle
10
25.967793772477634
20
-15.050478867758672
30
0
40
0.67499999999918181
210
0
220
0
230
1
100
AcDbArc
50
269.99999999999699
51
274.48715581669302
0
SPLINE
5
238
100
AcDbEntity
8
0
100
AcDbSpline
70
0
71
3
72
10
73
6
74
0
42
0.000000001
43
0.0000000001
44
0.0000000001
40
0.086443474892683406
40
0.086443474892683406
40
0.086443474892683406
40
0.086443474892683406
40
0.10813737773055074
40
0.10813737773055074
40
0.16022954248518984
40
0.16022954248518984
40
0.16022954248518984
40
0.16022954248518984
10
-13.855783395933612
20
-15.725478835302811
30
0
10
-13.895537929260806
20
-15.785196726923555
30
0
10
-13.931379904917289
20
-15.847614521034084
30
0
10
-14.041019552458174
20
-16.067771454897507
30
0
10
-14.096378630930078
20
-16.234029554492423
30
0
10
-14.135367847299296
20
-16.403196270294373
30
0
0
LINE
5
239
100
AcDbEntity
8
0
100
AcDbLine
10
-17.754769504116634
20
-9.9554788677578454
30
0
11
-17.754769504116645
21
-12.005478867757855
31
0
0
ARC
5
240
100
AcDbEntity
8
0
100
AcDbCircle
10
-15.091994323938467
20
-16.214806291280439
30
0
40
0.97500000000000087
210
0
220
0
230
1
100
AcDbArc
50
144.80718736135256
51
348.85921163868932
0
ARC
5
241
100
AcDbEntity
8
0
100
AcDbCircle
10
-17.504769504116624
20
-9.9554788677578578
30
0
40
0.25000000000001688
210
0
220
0
230
1
100
AcDbArc
50
90.000000000001634
51
180
0
LINE
5
242
100
AcDbEntity
8
0
100
AcDbLine
10
8.8147924474011425
20
-21.153478867757887
30
0
11
9.2612189047218969
21
-21.153478867757876
31
0
0
LINE
5
243
100
AcDbEntity
8
0
100
AcDbLine
10
1.5452304958833474
20
-29.413478867757874
30
0
11
1.6412189047219372
21
-29.413478867757874
31
0
0
LINE
5
244
100
AcDbEntity
8
0
100
AcDbLine
10
-17.754769504116645
20
-12.005478867757855
30
0
11
-17.754769504116652
21
-14.685478867757853
31
0
0
ARC
5
245
100
AcDbEntity
8
0
100
AcDbCircle
10
-16.138781095278063
20
-15.18547886775786
30
0
40
0.25000000000000355
210
0
220
-0
230
1
100
AcDbArc
50
0
51
90
0
ARC
5
246
100
AcDbEntity
8
0
100
AcDbCircle
10
-7.8917824203545894
20
-15.050478867758672
30
0
40
0.67499999999918192
210
0
220
0
230
1
100
AcDbArc
50
265.51284418330715
51
270.00000000000301
0
LINE
5
247
100
AcDbEntity
8
0
100
AcDbLine
10
1.6412189047219372
20
-29.413478867757874
30
0
11
2.9112189047219439
21
-29.413478867757878
31
0
0
LINE
5
248
100
AcDbEntity
8
0
100
AcDbLine
10
8.8147924474011425
20
-21.153478867757887
30
0
11
2.6147924474011597
21
-21.153478867757876
31
0
0
ARC
5
249
100
AcDbEntity
8
0
100
AcDbCircle
10
2.1147924474011526
20
-23.933478867757863
30
0
40
0.25000000000000355
210
-0
220
0
230
1
100
AcDbArc
50
-90
51
0
0
LINE
5
250
100
AcDbEntity
8
0
100
AcDbLine
10
-15.888781095278057
20
-15.185478867757855
30
0
11
-15.888781095278057
21
-15.652884730012113
31
0
0
LINE
5
251
100
AcDbEntity
8
0
100
AcDbLine
10
2.1147924474011526
20
-24.18347886775787
30
0
11
1.545230495883374
21
-24.18347886775787
31
0
0
ARC
5
252
100
AcDbEntity
8
0
100
AcDbCircle
10
1.5452304958833829
20
-24.433478867757881
30
0
40
0.25000000000001243
210
0
220
0
230
1
100
AcDbArc
50
90.000000000002032
51
180
0
LINE
5
253
100
AcDbEntity
8
0
100
AcDbLine
10
-17.504769504116659
20
-14.935478867757856
30
0
11
-17.408781095278066
21
-14.935478867757856
31
0
0
LINE
5
254
100
AcDbEntity
8
0
100
AcDbLine
10
-16.935207552598854
20
-9.7054788677578507
30
0
11
-17.504769504116631
21
-9.7054788677578419
31
0
0
SPLINE
5
255
100
AcDbEntity
8
0
100
AcDbSpline
70
4
71
2
72
6
73
3
74
0
42
0.000000001
43
0.0000000001
44
0.0000000001
40
-0.97572710622643788
40
-0.97572710622643788
40
-0.97572710622643788
40
-0.54807034639085228
40
-0.54807034639085228
40
-0.54807034639085228
41
1
41
1
41
1
10
-5.8886208005778595
20
-16.403196270293449
30
0
10
-5.9794800846750196
20
-16.008975300442398
30
0
10
-6.168205230337831
20
-15.725478867757854
30
0
0
ARC
5
256
100
AcDbEntity
8
0
100
AcDbCircle
10
-17.504769504116638
20
-14.685478867757844
30
0
40
0.25000000000001243
210
0
220
0
230
1
100
AcDbArc
50
180
51
269.99999999999511
0
ARC
5
257
100
AcDbEntity
8
0
100
AcDbCircle
10
-16.935207552598854
20
-9.4554788677578472
30
0
40
0.25000000000000355
210
-0
220
0
230
1
100
AcDbArc
50
-90
51
0
0
ARC
5
258
100
AcDbEntity
8
0
100
AcDbCircle
10
2.9112189047219439
20
-29.663478867757881
30
0
40
0.25000000000000355
210
0
220
-0
230
1
100
AcDbArc
50
0
51
90
0
LINE
5
259
100
AcDbEntity
8
0
100
AcDbLine
10
1.2952304958833616
20
-26.483478867757874
30
0
11
1.2952304958833527
21
-29.163478867757874
31
0
0
LINE
5
260
100
AcDbEntity
8
0
100
AcDbLine
10
1.2952304958833705
20
-24.43347886775787
30
0
11
1.2952304958833616
21
-26.483478867757874
31
0
0
ARC
5
261
100
AcDbEntity
8
0
100
AcDbCircle
10
-12.132206227522362
20
-15.050478867758672
30
0
40
0.67499999999918181
210
0
220
0
230
1
100
AcDbArc
50
269.99999999999699
51
274.48715581669285
0
ARC
5
262
100
AcDbEntity
8
0
100
AcDbCircle
10
-10.011994323938476
20
-16.214806291280439
30
0
40
2.1250000000000036
210
0
220
0
230
1
100
AcDbArc
50
-193.37040176933615
51
13.370401769336189
0
LINE
5
263
100
AcDbEntity
8
0
100
AcDbLine
10
-7.8917824203545539
20
-15.725478867757854
30
0
11
-6.1682052303378221
21
-15.725478867757854
31
0
0
LINE
5
264
100
AcDbEntity
8
0
100
AcDbLine
10
-17.408781095278066
20
-14.935478867757856
30
0
11
-16.138781095278063
21
-14.935478867757856
31
0
0
ARC
5
265
100
AcDbEntity
8
0
100
AcDbCircle
10
-22.138781095278102
20
-18.980478867757849
30
0
40
0.25000000000000355
210
0
220
0
230
1
100
AcDbArc
50
180
51
270
0
LINE
5
266
100
AcDbEntity
8
0
100
AcDbLine
10
-23.185207552598889
20
-25.17788473001211
30
0
11
-23.185207552598897
21
-24.710478867757857
31
0
0
ARC
5
267
100
AcDbEntity
8
0
100
AcDbCircle
10
-21.569219143760307
20
-24.210478867757864
30
0
40
0.24999999999999911
210
-0
220
0
230
1
100
AcDbArc
50
-90
51
0
0
ARC
5
268
100
AcDbEntity
8
0
100
AcDbCircle
10
-4.9319943239384756
20
-16.214806291280432
30
0
40
0.97500000000000364
210
0
220
0
230
1
100
AcDbArc
50
-168.85921163874465
51
35.192812638647517
0
ARC
5
269
100
AcDbEntity
8
0
100
AcDbCircle
10
9.0380056760615197
20
-30.692806291280455
30
0
40
2.1249999999999938
210
0
220
0
230
1
100
AcDbArc
50
-193.37040176933607
51
13.370401769335997
0
LINE
5
270
100
AcDbEntity
8
0
100
AcDbLine
10
-22.935207552598893
20
-24.460478867757864
30
0
11
-21.665207552598886
21
-24.460478867757864
31
0
0
ARC
5
271
100
AcDbEntity
8
0
100
AcDbCircle
10
-22.935207552598893
20
-24.710478867757864
30
0
40
0.25000000000000355
210
0
220
-0
230
1
100
AcDbArc
50
90
51
180
0
LINE
5
272
100
AcDbEntity
8
0
100
AcDbLine
10
-21.319219143760311
20
-21.530478867757857
30
0
11
-21.319219143760321
21
-19.480478867757853
31
0
0
LINE
5
273
100
AcDbEntity
8
0
100
AcDbLine
10
-21.319219143760311
20
-21.530478867757857
30
0
11
-21.3192191437603
21
-24.210478867757864
31
0
0
SPLINE
5
274
100
AcDbEntity
8
0
100
AcDbSpline
70
4
71
2
72
6
73
3
74
0
42
0.000000001
43
0.0000000001
44
0.0000000001
40
-0.97572710622643788
40
-0.97572710622643788
40
-0.97572710622643788
40
-0.54807034639085228
40
-0.54807034639085228
40
-0.54807034639085228
41
1
41
1
41
1
10
-24.938620800577862
20
-25.928196270293448
30
0
10
-25.029480084675022
20
-25.5339753004424
30
0
10
-25.218205230337833
20
-25.25047886775786
30
0
0
LINE
5
275
100
AcDbEntity
8
0
100
AcDbLine
10
-13.855783395933612
20
-15.725478835302811
30
0
11
-12.132206227522397
21
-15.725478867757854
31
0
0
LINE
5
276
100
AcDbEntity
8
0
100
AcDbLine
10
-22.388781095278105
20
-18.980478867757849
30
0
11
-22.388781095278105
21
-16.450478867757855
31
0
0
ARC
5
277
100
AcDbEntity
8
0
100
AcDbCircle
10
-23.98199432393848
20
-25.739806291280438
30
0
40
0.97500000000000264
210
0
220
0
230
1
100
AcDbArc
50
-168.85921163874502
51
35.192812638647517
0
ARC
5
278
100
AcDbEntity
8
0
100
AcDbCircle
10
-22.638781095278098
20
-16.450478867757855
30
0
40
0.24999999999999467
210
0
220
0
230
1
100
AcDbArc
50
0
51
90.000000000002444
0
ARC
5
279
100
AcDbEntity
8
0
100
AcDbCircle
10
-21.569219143760332
20
-19.480478867757864
30
0
40
0.25000000000001243
210
0
220
-0
230
1
100
AcDbArc
50
0
51
89.999999999997556
0
LINE
5
280
100
AcDbEntity
8
0
100
AcDbLine
10
-21.569219143760307
20
-24.460478867757864
30
0
11
-21.665207552598886
21
-24.460478867757864
31
0
0
LINE
5
281
100
AcDbEntity
8
0
100
AcDbLine
10
-21.569219143760321
20
-19.230478867757849
30
0
11
-22.138781095278102
21
-19.230478867757853
31
0
0
LINE
5
282
100
AcDbEntity
8
0
100
AcDbLine
10
-35.735207552598851
20
-16.450478867757855
30
0
11
-35.735207552598851
21
-18.980478867757849
31
0
0
ARC
5
283
100
AcDbEntity
8
0
100
AcDbCircle
10
-36.554769504116621
20
-19.480478867757864
30
0
40
0.25000000000001465
210
0
220
0
230
1
100
AcDbArc
50
90.000000000003254
51
180
0
ARC
5
284
100
AcDbEntity
8
0
100
AcDbCircle
10
-29.061994323938478
20
-25.739806291280445
30
0
40
2.1250000000000036
210
0
220
0
230
1
100
AcDbArc
50
-193.37040176933621
51
13.370401769336217
0
SPLINE
5
285
100
AcDbEntity
8
0
100
AcDbSpline
70
0
71
3
72
10
73
6
74
0
42
0.000000001
43
0.0000000001
44
0.0000000001
40
0.086443474892683406
40
0.086443474892683406
40
0.086443474892683406
40
0.086443474892683406
40
0.10813737773055074
40
0.10813737773055074
40
0.16022954248518984
40
0.16022954248518984
40
0.16022954248518984
40
0.16022954248518984
10
-32.905783395933611
20
-25.250478835302811
30
0
10
-32.945537929260809
20
-25.310196726923557
30
0
10
-32.98137990491729
20
-25.372614521034087
30
0
10
-33.091019552458178
20
-25.592771454897509
30
0
10
-33.14637863093008
20
-25.759029554492425
30
0
10
-33.185367847299297
20
-25.928196270294379
30
0
0
ARC
5
286
100
AcDbEntity
8
0
100
AcDbCircle
10
-31.182206227522364
20
-24.575478867758676
30
0
40
0.67499999999918181
210
0
220
0
230
1
100
AcDbArc
50
269.99999999999699
51
274.48715581669302
0
ARC
5
287
100
AcDbEntity
8
0
100
AcDbCircle
10
11.158217579645406
20
-29.528478867758693
30
0
40
0.67499999999918192
210
0
220
0
230
1
100
AcDbArc
50
265.51284418330715
51
270.00000000000301
0
LINE
5
288
100
AcDbEntity
8
0
100
AcDbLine
10
-32.905783395933611
20
-25.250478835302811
30
0
11
-31.1822062275224
21
-25.25047886775786
31
0
0
LINE
5
289
100
AcDbEntity
8
0
100
AcDbLine
10
11.158217579645441
20
-30.203478867757877
30
0
11
12.881794769662173
21
-30.203478867757877
31
0
0
ARC
5
290
100
AcDbEntity
8
0
100
AcDbCircle
10
6.9177937724776424
20
-29.528478867758693
30
0
40
0.67499999999918181
210
0
220
0
230
1
100
AcDbArc
50
269.99999999999699
51
274.48715581669285
0
SPLINE
5
291
100
AcDbEntity
8
0
100
AcDbSpline
70
0
71
3
72
10
73
6
74
0
42
0.000000001
43
0.0000000001
44
0.0000000001
40
0.086443474892683406
40
0.086443474892683406
40
0.086443474892683406
40
0.086443474892683406
40
0.10813737773055074
40
0.10813737773055074
40
0.16022954248518984
40
0.16022954248518984
40
0.16022954248518984
40
0.16022954248518984
10
5.1942166040663924
20
-30.203478835302828
30
0
10
5.1544620707391982
20
-30.263196726923578
30
0
10
5.118620095082715
20
-30.325614521034105
30
0
10
5.0089804475418305
20
-30.545771454897526
30
0
10
4.9536213690699267
20
-30.712029554492442
30
0
10
4.9146321527007082
20
-30.881196270294389
30
0
0
ARC
5
292
100
AcDbEntity
8
0
100
AcDbCircle
10
-35.985207552598851
20
-18.980478867757849
30
0
40
0.25000000000000355
210
-0
220
0
230
1
100
AcDbArc
50
-90
51
0
0
ARC
5
293
100
AcDbEntity
8
0
100
AcDbCircle
10
3.9580056760615379
20
-30.692806291280455
30
0
40
0.97500000000000087
210
0
220
0
230
1
100
AcDbArc
50
144.80718736135267
51
348.85921163868932
0
LINE
5
294
100
AcDbEntity
8
0
100
AcDbLine
10
5.1942166040663924
20
-30.203478835302828
30
0
11
6.9177937724776069
21
-30.203478867757877
31
0
0
ARC
5
295
100
AcDbEntity
8
0
100
AcDbCircle
10
-26.941782420354592
20
-24.575478867758676
30
0
40
0.67499999999918192
210
0
220
0
230
1
100
AcDbArc
50
265.51284418330698
51
270.00000000000301
0
ARC
5
296
100
AcDbEntity
8
0
100
AcDbCircle
10
-35.485207552598858
20
-16.450478867757855
30
0
40
0.24999999999999467
210
0
220
-0
230
1
100
AcDbArc
50
89.99999999999838
51
180
0
LINE
5
297
100
AcDbEntity
8
0
100
AcDbLine
10
-29.285207552598855
20
-16.200478867757866
30
0
11
-28.838781095278101
21
-16.200478867757862
31
0
0
LINE
5
298
100
AcDbEntity
8
0
100
AcDbLine
10
3.1612189047219474
20
-29.663478867757878
30
0
11
3.1612189047219474
21
-30.130884730012131
31
0
0
LINE
5
299
100
AcDbEntity
8
0
100
AcDbLine
10
-35.985207552598851
20
-19.230478867757853
30
0
11
-36.554769504116635
21
-19.230478867757846
31
0
0
LINE
5
300
100
AcDbEntity
8
0
100
AcDbLine
10
-36.804769504116635
20
-19.480478867757853
30
0
11
-36.804769504116649
21
-21.530478867757857
31
0
0
ARC
5
301
100
AcDbEntity
8
0
100
AcDbCircle
10
-36.554769504116642
20
-24.210478867757846
30
0
40
0.25000000000001243
210
0
220
0
230
1
100
AcDbArc
50
180
51
269.99999999999511
0
LINE
5
302
100
AcDbEntity
8
0
100
AcDbLine
10
-36.554769504116663
20
-24.460478867757857
30
0
11
-36.45878109527807
21
-24.460478867757857
31
0
0
LINE
5
303
100
AcDbEntity
8
0
100
AcDbLine
10
-40.369219143760319
20
-21.530478867757861
30
0
11
-40.369219143760333
21
-19.480478867757856
31
0
0
LINE
5
304
100
AcDbEntity
8
0
100
AcDbLine
10
-40.619219143760333
20
-19.230478867757853
30
0
11
-41.188781095278117
21
-19.230478867757856
31
0
0
LINE
5
305
100
AcDbEntity
8
0
100
AcDbLine
10
-45.991782420354568
20
-25.250478867757863
30
0
11
-44.268205230337834
21
-25.250478867757863
31
0
0
LINE
5
306
100
AcDbEntity
8
0
100
AcDbLine
10
-41.688781095278117
20
-16.200478867757866
30
0
11
-47.888781095278112
21
-16.200478867757866
31
0
0
ARC
5
307
100
AcDbEntity
8
0
100
AcDbCircle
10
-43.031994323938491
20
-25.739806291280441
30
0
40
0.97500000000000264
210
0
220
0
230
1
100
AcDbArc
50
-168.85921163874488
51
35.192812638647517
0
LINE
5
308
100
AcDbEntity
8
0
100
AcDbLine
10
-54.785207552598862
20
-16.450478867757859
30
0
11
-54.785207552598862
21
-18.980478867757853
31
0
0
LINE
5
309
100
AcDbEntity
8
0
100
AcDbLine
10
-42.235207552598901
20
-25.177884730012114
30
0
11
-42.235207552598908
21
-24.710478867757864
31
0
0
LINE
5
310
100
AcDbEntity
8
0
100
AcDbLine
10
-40.369219143760319
20
-21.530478867757861
30
0
11
-40.369219143760311
21
-24.210478867757868
31
0
0
ARC
5
311
100
AcDbEntity
8
0
100
AcDbCircle
10
-34.141994323938469
20
-25.739806291280445
30
0
40
0.97500000000000087
210
0
220
0
230
1
100
AcDbArc
50
144.80718736135248
51
348.8592116386892
0
ARC
5
312
100
AcDbEntity
8
0
100
AcDbCircle
10
-41.188781095278117
20
-18.980478867757853
30
0
40
0.25000000000000355
210
0
220
0
230
1
100
AcDbArc
50
180
51
270
0
LINE
5
313
100
AcDbEntity
8
0
100
AcDbLine
10
-34.93878109527806
20
-24.710478867757857
30
0
11
-34.93878109527806
21
-25.177884730012117
31
0
0
LINE
5
314
100
AcDbEntity
8
0
100
AcDbLine
10
-41.438781095278117
20
-18.980478867757853
30
0
11
-41.438781095278117
21
-16.450478867757859
31
0
0
ARC
5
315
100
AcDbEntity
8
0
100
AcDbCircle
10
-41.688781095278109
20
-16.450478867757859
30
0
40
0.24999999999999467
210
0
220
0
230
1
100
AcDbArc
50
0
51
90.000000000001634
0
ARC
5
316
100
AcDbEntity
8
0
100
AcDbCircle
10
-45.991782420354603
20
-24.575478867758683
30
0
40
0.67499999999918192
210
0
220
0
230
1
100
AcDbArc
50
265.51284418330698
51
270.00000000000301
0
LINE
5
317
100
AcDbEntity
8
0
100
AcDbLine
10
-36.804769504116649
20
-21.530478867757857
30
0
11
-36.804769504116656
21
-24.210478867757857
31
0
0
LINE
5
318
100
AcDbEntity
8
0
100
AcDbLine
10
-48.335207552598867
20
-16.200478867757869
30
0
11
-47.888781095278112
21
-16.200478867757866
31
0
0
ARC
5
319
100
AcDbEntity
8
0
100
AcDbCircle
10
-40.619219143760347
20
-19.480478867757867
30
0
40
0.25000000000001243
210
0
220
-0
230
1
100
AcDbArc
50
0
51
89.999999999996746
0
LINE
5
320
100
AcDbEntity
8
0
100
AcDbLine
10
-40.619219143760319
20
-24.460478867757868
30
0
11
-40.715207552598898
21
-24.460478867757864
31
0
0
LINE
5
321
100
AcDbEntity
8
0
100
AcDbLine
10
-55.854769504116646
20
-19.480478867757856
30
0
11
-55.854769504116661
21
-21.530478867757861
31
0
0
ARC
5
322
100
AcDbEntity
8
0
100
AcDbCircle
10
-40.619219143760319
20
-24.210478867757868
30
0
40
0.24999999999999911
210
-0
220
0
230
1
100
AcDbArc
50
-90
51
0
0
SPLINE
5
323
100
AcDbEntity
8
0
100
AcDbSpline
70
4
71
2
72
6
73
3
74
0
42
0.000000001
43
0.0000000001
44
0.0000000001
40
-0.97572710622643788
40
-0.97572710622643788
40
-0.97572710622643788
40
-0.54807034639085228
40
-0.54807034639085228
40
-0.54807034639085228
41
1
41
1
41
1
10
-43.988620800577877
20
-25.928196270293455
30
0
10
-44.079480084675033
20
-25.533975300442407
30
0
10
-44.268205230337841
20
-25.250478867757863
30
0
0
ARC
5
324
100
AcDbEntity
8
0
100
AcDbCircle
10
-41.985207552598908
20
-24.710478867757871
30
0
40
0.25000000000000355
210
0
220
-0
230
1
100
AcDbArc
50
90
51
180
0
ARC
5
325
100
AcDbEntity
8
0
100
AcDbCircle
10
-55.604769504116632
20
-19.480478867757867
30
0
40
0.25000000000001465
210
0
220
0
230
1
100
AcDbArc
50
90.000000000003254
51
180
0
LINE
5
326
100
AcDbEntity
8
0
100
AcDbLine
10
-29.285207552598855
20
-16.200478867757866
30
0
11
-35.485207552598851
21
-16.200478867757862
31
0
0
LINE
5
327
100
AcDbEntity
8
0
100
AcDbLine
10
-36.45878109527807
20
-24.460478867757857
30
0
11
-35.18878109527806
21
-24.460478867757864
31
0
0
ARC
5
328
100
AcDbEntity
8
0
100
AcDbCircle
10
-55.035207552598862
20
-18.980478867757853
30
0
40
0.25000000000000355
210
-0
220
0
230
1
100
AcDbArc
50
-90
51
0
0
ARC
5
329
100
AcDbEntity
8
0
100
AcDbCircle
10
-35.18878109527806
20
-24.710478867757864
30
0
40
0.25000000000000355
210
0
220
-0
230
1
100
AcDbArc
50
0
51
90
0
LINE
5
330
100
AcDbEntity
8
0
100
AcDbLine
10
-55.035207552598862
20
-19.230478867757856
30
0
11
-55.604769504116646
21
-19.230478867757853
31
0
0
LINE
5
331
100
AcDbEntity
8
0
100
AcDbLine
10
-41.985207552598908
20
-24.460478867757868
30
0
11
-40.715207552598898
21
-24.460478867757864
31
0
0
ARC
5
332
100
AcDbEntity
8
0
100
AcDbCircle
10
-54.53520755259887
20
-16.450478867757859
30
0
40
0.24999999999999467
210
0
220
-0
230
1
100
AcDbArc
50
89.99999999999838
51
180
0
ARC
5
333
100
AcDbEntity
8
0
100
AcDbCircle
10
-50.232206227522376
20
-24.575478867758683
30
0
40
0.67499999999918181
210
0
220
0
230
1
100
AcDbArc
50
269.99999999999699
51
274.48715581669302
0
ARC
5
334
100
AcDbEntity
8
0
100
AcDbCircle
10
-53.191994323938481
20
-25.739806291280445
30
0
40
0.97500000000000087
210
0
220
0
230
1
100
AcDbArc
50
144.80718736135248
51
348.8592116386892
0
LINE
5
335
100
AcDbEntity
8
0
100
AcDbLine
10
5.1942166040663924
20
27.137021164697181
30
0
11
6.9177937724776069
21
27.137021132242133
31
0
0
ARC
5
336
100
AcDbEntity
8
0
100
AcDbCircle
10
9.0380056760615197
20
26.647693708719551
30
0
40
2.1249999999999938
210
0
220
0
230
1
100
AcDbArc
50
-193.37040176933613
51
13.370401769336105
0
LINE
5
337
100
AcDbEntity
8
0
100
AcDbLine
10
-22.638781095278109
20
-16.200478867757862
30
0
11
-28.838781095278101
21
-16.200478867757862
31
0
0
ARC
5
338
100
AcDbEntity
8
0
100
AcDbCircle
10
-48.11199432393849
20
-25.739806291280445
30
0
40
2.1250000000000027
210
0
220
0
230
1
100
AcDbArc
50
-193.3704017693361
51
13.370401769336105
0
SPLINE
5
339
100
AcDbEntity
8
0
100
AcDbSpline
70
0
71
3
72
10
73
6
74
0
42
0.000000001
43
0.0000000001
44
0.0000000001
40
0.086443474892683406
40
0.086443474892683406
40
0.086443474892683406
40
0.086443474892683406
40
0.10813737773055074
40
0.10813737773055074
40
0.16022954248518984
40
0.16022954248518984
40
0.16022954248518984
40
0.16022954248518984
10
-51.955783395933622
20
-25.250478835302815
30
0
10
-51.99553792926082
20
-25.310196726923564
30
0
10
-52.031379904917301
20
-25.372614521034095
30
0
10
-52.141019552458189
20
-25.592771454897516
30
0
10
-52.196378630930091
20
-25.759029554492436
30
0
10
-52.235367847299308
20
-25.928196270294379
30
0
0
ARC
5
340
100
AcDbEntity
8
0
100
AcDbCircle
10
-54.238781095278071
20
-24.710478867757871
30
0
40
0.25000000000000355
210
0
220
-0
230
1
100
AcDbArc
50
0
51
90
0
LINE
5
341
100
AcDbEntity
8
0
100
AcDbLine
10
-51.955783395933622
20
-25.250478835302815
30
0
11
-50.232206227522411
21
-25.250478867757863
31
0
0
LINE
5
342
100
AcDbEntity
8
0
100
AcDbLine
10
-48.335207552598867
20
-16.200478867757869
30
0
11
-54.535207552598862
21
-16.200478867757866
31
0
0
ARC
5
343
100
AcDbEntity
8
0
100
AcDbCircle
10
-48.11199432393849
20
-6.6898062912804468
30
0
40
2.1250000000000031
210
0
220
0
230
1
100
AcDbArc
50
-193.3704017693361
51
13.370401769336105
0
ARC
5
344
100
AcDbEntity
8
0
100
AcDbCircle
10
-55.604769504116653
20
-24.21047886775785
30
0
40
0.25000000000001243
210
0
220
0
230
1
100
AcDbArc
50
180
51
269.99999999999511
0
LINE
5
345
100
AcDbEntity
8
0
100
AcDbLine
10
-55.604769504116675
20
-24.460478867757864
30
0
11
-55.508781095278081
21
-24.460478867757864
31
0
0
LINE
5
346
100
AcDbEntity
8
0
100
AcDbLine
10
-26.941782420354556
20
-25.25047886775786
30
0
11
-25.218205230337823
21
-25.25047886775786
31
0
0
ARC
5
347
100
AcDbEntity
8
0
100
AcDbCircle
10
-29.061994323938478
20
-6.6898062912804424
30
0
40
2.1250000000000031
210
0
220
0
230
1
100
AcDbArc
50
-193.37040176933613
51
13.37040176933616
0
LINE
5
348
100
AcDbEntity
8
0
100
AcDbLine
10
-16.685207552598847
20
-6.9254788677578549
30
0
11
-16.685207552598847
21
-9.4554788677578472
31
0
0
LINE
5
349
100
AcDbEntity
8
0
100
AcDbLine
10
-55.508781095278081
20
-24.460478867757864
30
0
11
-54.238781095278071
21
-24.460478867757868
31
0
0
LINE
5
350
100
AcDbEntity
8
0
100
AcDbLine
10
-53.988781095278071
20
-24.710478867757864
30
0
11
-53.988781095278071
21
-25.177884730012117
31
0
0
LINE
5
351
100
AcDbEntity
8
0
100
AcDbLine
10
1.2952304958833616
20
-7.242978867757861
30
0
11
1.2952304958833527
21
-9.9229788677578625
31
0
0
LINE
5
352
100
AcDbEntity
8
0
100
AcDbLine
10
-55.854769504116661
20
-21.530478867757861
30
0
11
-55.854769504116668
21
-24.210478867757864
31
0
0
LINE
5
353
100
AcDbEntity
8
0
100
AcDbLine
10
-3.3387810952781027
20
-9.4554788677578472
30
0
11
-3.3387810952781027
21
-6.9254788677578549
31
0
0
SPLINE
5
354
100
AcDbEntity
8
0
100
AcDbSpline
70
0
71
3
72
10
73
6
74
0
42
0.000000001
43
0.0000000001
44
0.0000000001
40
0.086443474892683406
40
0.086443474892683406
40
0.086443474892683406
40
0.086443474892683406
40
0.10813737773055074
40
0.10813737773055074
40
0.16022954248518984
40
0.16022954248518984
40
0.16022954248518984
40
0.16022954248518984
10
5.1942166040663924
20
27.137021164697181
30
0
10
5.1544620707391982
20
27.077303273076431
30
0
10
5.118620095082715
20
27.014885478965901
30
0
10
5.0089804475418305
20
26.79472854510248
30
0
10
4.9536213690699267
20
26.628470445507567
30
0
10
4.9146321527007082
20
26.459303729705617
30
0
0
ARC
5
355
100
AcDbEntity
8
0
100
AcDbCircle
10
6.9177937724776424
20
27.812021132241313
30
0
40
0.67499999999918181
210
0
220
0
230
1
100
AcDbArc
50
269.99999999999699
51
274.48715581669285
0
ARC
5
356
100
AcDbEntity
8
0
100
AcDbCircle
10
11.158217579645406
20
27.812021132241313
30
0
40
0.67499999999918192
210
0
220
0
230
1
100
AcDbArc
50
265.51284418330715
51
270.00000000000301
0
LINE
5
357
100
AcDbEntity
8
0
100
AcDbLine
10
-3.8852075525988905
20
23.16452113224214
30
0
11
-2.6152075525988838
21
23.16452113224214
31
0
0
LINE
5
358
100
AcDbEntity
8
0
100
AcDbLine
10
-15.888781095278057
20
22.91452113224214
30
0
11
-15.888781095278057
21
22.447115269987883
31
0
0
LINE
5
359
100
AcDbEntity
8
0
100
AcDbLine
10
1.6412189047219372
20
27.927021132242132
30
0
11
2.9112189047219439
21
27.927021132242128
31
0
0
ARC
5
360
100
AcDbEntity
8
0
100
AcDbCircle
10
-3.0887810952780992
20
28.644521132242147
30
0
40
0.25000000000000355
210
0
220
0
230
1
100
AcDbArc
50
180
51
270
0
LINE
5
361
100
AcDbEntity
8
0
100
AcDbLine
10
-2.2692191437603082
20
26.094521132242143
30
0
11
-2.2692191437603171
21
28.144521132242151
31
0
0
LINE
5
362
100
AcDbEntity
8
0
100
AcDbLine
10
1.5452304958833474
20
27.927021132242132
30
0
11
1.6412189047219372
21
27.927021132242132
31
0
0
LINE
5
363
100
AcDbEntity
8
0
100
AcDbLine
10
2.3647924474011561
20
35.937021132242137
30
0
11
2.3647924474011561
21
33.407021132242143
31
0
0
LINE
5
364
100
AcDbEntity
8
0
100
AcDbLine
10
1.2952304958833705
20
32.907021132242136
30
0
11
1.2952304958833616
21
30.857021132242135
31
0
0
ARC
5
365
100
AcDbEntity
8
0
100
AcDbCircle
10
1.5452304958833829
20
32.907021132242129
30
0
40
0.25000000000001243
210
0
220
0
230
1
100
AcDbArc
50
90.000000000002032
51
180
0
LINE
5
366
100
AcDbEntity
8
0
100
AcDbLine
10
1.2952304958833616
20
30.857021132242135
30
0
11
1.2952304958833527
21
28.177021132242132
31
0
0
LINE
5
367
100
AcDbEntity
8
0
100
AcDbLine
10
-2.5192191437603206
20
28.394521132242151
30
0
11
-3.0887810952780992
21
28.394521132242147
31
0
0
LINE
5
368
100
AcDbEntity
8
0
100
AcDbLine
10
-3.3387810952781027
20
28.644521132242147
30
0
11
-3.3387810952781027
21
31.174521132242141
31
0
0
LINE
5
369
100
AcDbEntity
8
0
100
AcDbLine
10
2.1147924474011526
20
33.157021132242136
30
0
11
1.545230495883374
21
33.157021132242136
31
0
0
ARC
5
370
100
AcDbEntity
8
0
100
AcDbCircle
10
-4.9319943239384756
20
21.885193708719566
30
0
40
0.97500000000000364
210
0
220
0
230
1
100
AcDbArc
50
-168.85921163874465
51
35.192812638647354
0
LINE
5
371
100
AcDbEntity
8
0
100
AcDbLine
10
3.1612189047219474
20
27.677021132242132
30
0
11
3.1612189047219474
21
27.209615269987879
31
0
0
LINE
5
372
100
AcDbEntity
8
0
100
AcDbLine
10
-2.2692191437603082
20
26.094521132242143
30
0
11
-2.2692191437602993
21
23.414521132242136
31
0
0
ARC
5
373
100
AcDbEntity
8
0
100
AcDbCircle
10
-7.8917824203545894
20
23.049521132241324
30
0
40
0.67499999999918192
210
0
220
0
230
1
100
AcDbArc
50
265.51284418330715
51
270.00000000000301
0
SPLINE
5
374
100
AcDbEntity
8
0
100
AcDbSpline
70
4
71
2
72
6
73
3
74
0
42
0.000000001
43
0.0000000001
44
0.0000000001
40
-0.97572710622643788
40
-0.97572710622643788
40
-0.97572710622643788
40
-0.54807034639085228
40
-0.54807034639085228
40
-0.54807034639085228
41
1
41
1
41
1
10
-5.8886208005778595
20
21.696803729706549
30
0
10
-5.9794800846750196
20
22.091024699557597
30
0
10
-6.168205230337831
20
22.374521132242144
30
0
0
ARC
5
375
100
AcDbEntity
8
0
100
AcDbCircle
10
-12.132206227522362
20
23.049521132241324
30
0
40
0.67499999999918181
210
0
220
0
230
1
100
AcDbArc
50
269.99999999999699
51
274.48715581669285
0
ARC
5
376
100
AcDbEntity
8
0
100
AcDbCircle
10
3.9580056760615379
20
26.647693708719551
30
0
40
0.97500000000000087
210
0
220
0
230
1
100
AcDbArc
50
144.80718736135248
51
348.85921163868932
0
ARC
5
377
100
AcDbEntity
8
0
100
AcDbCircle
10
1.5452304958833651
20
28.177021132242146
30
0
40
0.25000000000001243
210
0
220
0
230
1
100
AcDbArc
50
180
51
269.99999999999591
0
LINE
5
378
100
AcDbEntity
8
0
100
AcDbLine
10
-7.8917824203545539
20
22.374521132242144
30
0
11
-6.1682052303378221
21
22.374521132242144
31
0
0
LINE
5
379
100
AcDbEntity
8
0
100
AcDbLine
10
11.158217579645441
20
27.137021132242133
30
0
11
12.881794769662173
21
27.137021132242133
31
0
0
ARC
5
380
100
AcDbEntity
8
0
100
AcDbCircle
10
-2.5192191437603295
20
28.144521132242136
30
0
40
0.25000000000001243
210
0
220
-0
230
1
100
AcDbArc
50
0
51
89.999999999997954
0
ARC
5
381
100
AcDbEntity
8
0
100
AcDbCircle
10
-3.8852075525988905
20
22.914521132242136
30
0
40
0.25000000000000355
210
0
220
-0
230
1
100
AcDbArc
50
90
51
180
0
ARC
5
382
100
AcDbEntity
8
0
100
AcDbCircle
10
2.9112189047219439
20
27.677021132242125
30
0
40
0.25000000000000355
210
0
220
-0
230
1
100
AcDbArc
50
0
51
90
0
ARC
5
383
100
AcDbEntity
8
0
100
AcDbCircle
10
2.1147924474011526
20
33.407021132242143
30
0
40
0.25000000000000355
210
-0
220
0
230
1
100
AcDbArc
50
-90
51
0
0
LINE
5
384
100
AcDbEntity
8
0
100
AcDbLine
10
-4.1352075525988852
20
22.44711526998789
30
0
11
-4.1352075525988941
21
22.91452113224214
31
0
0
SPLINE
5
385
100
AcDbEntity
8
0
100
AcDbSpline
70
0
71
3
72
10
73
6
74
0
42
0.000000001
43
0.0000000001
44
0.0000000001
40
0.086443474892683406
40
0.086443474892683406
40
0.086443474892683406
40
0.086443474892683406
40
0.10813737773055074
40
0.10813737773055074
40
0.16022954248518984
40
0.16022954248518984
40
0.16022954248518984
40
0.16022954248518984
10
-13.855783395933612
20
22.374521164697185
30
0
10
-13.895537929260806
20
22.314803273076439
30
0
10
-13.931379904917289
20
22.252385478965913
30
0
10
-14.041019552458174
20
22.032228545102491
30
0
10
-14.096378630930078
20
21.865970445507571
30
0
10
-14.135367847299296
20
21.696803729705625
30
0
0
LINE
5
386
100
AcDbEntity
8
0
100
AcDbLine
10
-2.5192191437603029
20
23.16452113224214
30
0
11
-2.6152075525988838
21
23.16452113224214
31
0
0
ARC
5
387
100
AcDbEntity
8
0
100
AcDbCircle
10
-2.5192191437603029
20
23.414521132242136
30
0
40
0.24999999999999467
210
-0
220
0
230
1
100
AcDbArc
50
-90
51
0
0
LINE
5
388
100
AcDbEntity
8
0
100
AcDbLine
10
-13.855783395933612
20
22.374521164697185
30
0
11
-12.132206227522397
21
22.374521132242144
31
0
0
ARC
5
389
100
AcDbEntity
8
0
100
AcDbCircle
10
-16.138781095278063
20
22.914521132242136
30
0
40
0.25000000000000355
210
0
220
-0
230
1
100
AcDbArc
50
0
51
90
0
ARC
5
390
100
AcDbEntity
8
0
100
AcDbCircle
10
25.967793772477634
20
3.9995211322413282
30
0
40
0.67499999999918181
210
0
220
0
230
1
100
AcDbArc
50
269.99999999999699
51
274.48715581669302
0
LINE
5
391
100
AcDbEntity
8
0
100
AcDbLine
10
20.595230495883339
20
4.1145211322421442
30
0
11
20.691218904721929
21
4.1145211322421442
31
0
0
ARC
5
392
100
AcDbEntity
8
0
100
AcDbCircle
10
-16.935207552598854
20
28.644521132242147
30
0
40
0.25000000000000355
210
-0
220
0
230
1
100
AcDbArc
50
-90
51
0
0
LINE
5
393
100
AcDbEntity
8
0
100
AcDbLine
10
-17.408781095278066
20
23.16452113224214
30
0
11
-16.138781095278063
21
23.16452113224214
31
0
0
LINE
5
394
100
AcDbEntity
8
0
100
AcDbLine
10
-17.504769504116659
20
23.16452113224214
30
0
11
-17.408781095278066
21
23.16452113224214
31
0
0
LINE
5
395
100
AcDbEntity
8
0
100
AcDbLine
10
-41.438781095278117
20
19.119521132242141
30
0
11
-41.438781095278117
21
21.649521132242135
31
0
0
LINE
5
396
100
AcDbEntity
8
0
100
AcDbLine
10
-22.388781095278105
20
19.119521132242149
30
0
11
-22.388781095278105
21
21.649521132242139
31
0
0
LINE
5
397
100
AcDbEntity
8
0
100
AcDbLine
10
-35.735207552598851
20
21.649521132242139
30
0
11
-35.735207552598851
21
19.119521132242149
31
0
0
LINE
5
398
100
AcDbEntity
8
0
100
AcDbLine
10
-17.754769504116645
20
26.094521132242143
30
0
11
-17.754769504116652
21
23.414521132242143
31
0
0
ARC
5
399
100
AcDbEntity
8
0
100
AcDbCircle
10
-17.504769504116624
20
28.144521132242136
30
0
40
0.25000000000001688
210
0
220
0
230
1
100
AcDbArc
50
90.000000000001634
51
180
0
LINE
5
400
100
AcDbEntity
8
0
100
AcDbLine
10
-17.754769504116634
20
28.144521132242151
30
0
11
-17.754769504116645
21
26.094521132242143
31
0
0
ARC
5
401
100
AcDbEntity
8
0
100
AcDbCircle
10
-15.091994323938467
20
21.885193708719555
30
0
40
0.97500000000000087
210
0
220
0
230
1
100
AcDbArc
50
144.80718736135248
51
348.85921163868932
0
ARC
5
402
100
AcDbEntity
8
0
100
AcDbCircle
10
-10.011994323938476
20
21.885193708719555
30
0
40
2.1250000000000036
210
0
220
0
230
1
100
AcDbArc
50
-193.37040176933627
51
13.37040176933627
0
LINE
5
403
100
AcDbEntity
8
0
100
AcDbLine
10
-54.785207552598862
20
21.649521132242135
30
0
11
-54.785207552598862
21
19.119521132242141
31
0
0
LINE
5
404
100
AcDbEntity
8
0
100
AcDbLine
10
-16.935207552598854
20
28.394521132242147
30
0
11
-17.504769504116631
21
28.394521132242154
31
0
0
ARC
5
405
100
AcDbEntity
8
0
100
AcDbCircle
10
21.961218904721935
20
3.8645211322421402
30
0
40
0.25000000000000355
210
0
220
-0
230
1
100
AcDbArc
50
0
51
90
0
ARC
5
406
100
AcDbEntity
8
0
100
AcDbCircle
10
-17.504769504116638
20
23.41452113224215
30
0
40
0.25000000000001243
210
0
220
0
230
1
100
AcDbArc
50
180
51
269.99999999999511
0
ARC
5
407
100
AcDbEntity
8
0
100
AcDbCircle
10
15.461218904721898
20
-2.162978867757861
30
0
40
0.24999999999999467
210
0
220
0
230
1
100
AcDbArc
50
0
51
90.000000000002032
0
LINE
5
408
100
AcDbEntity
8
0
100
AcDbLine
10
15.711218904721893
20
-4.6929788677578532
30
0
11
15.711218904721893
21
-2.162978867757861
31
0
0
LINE
5
409
100
AcDbEntity
8
0
100
AcDbLine
10
16.530780856239677
20
-4.9429788677578568
30
0
11
15.961218904721896
21
-4.9429788677578568
31
0
0
LINE
5
410
100
AcDbEntity
8
0
100
AcDbLine
10
-16.685207552598847
20
31.174521132242141
30
0
11
-16.685207552598847
21
28.644521132242147
31
0
0
ARC
5
411
100
AcDbEntity
8
0
100
AcDbCircle
10
20.595230495883357
20
4.3645211322421567
30
0
40
0.25000000000001243
210
0
220
0
230
1
100
AcDbArc
50
180
51
269.99999999999591
0
LINE
5
412
100
AcDbEntity
8
0
100
AcDbLine
10
24.244216604066384
20
3.3245211646971895
30
0
11
25.967793772477599
21
3.3245211322421464
31
0
0
ARC
5
413
100
AcDbEntity
8
0
100
AcDbCircle
10
15.961218904721896
20
-4.6929788677578532
30
0
40
0.25000000000000355
210
0
220
0
230
1
100
AcDbArc
50
180
51
270
0
LINE
5
414
100
AcDbEntity
8
0
100
AcDbLine
10
22.211218904721939
20
3.8645211322421447
30
0
11
22.211218904721939
21
3.397115269987887
31
0
0
LINE
5
415
100
AcDbEntity
8
0
100
AcDbLine
10
20.691218904721929
20
4.1145211322421442
30
0
11
21.961218904721935
21
4.1145211322421442
31
0
0
ARC
5
416
100
AcDbEntity
8
0
100
AcDbCircle
10
16.530780856239666
20
-5.1929788677578692
30
0
40
0.25000000000001243
210
0
220
-0
230
1
100
AcDbArc
50
0
51
89.999999999997556
0
SPLINE
5
417
100
AcDbEntity
8
0
100
AcDbSpline
70
0
71
3
72
10
73
6
74
0
42
0.000000001
43
0.0000000001
44
0.0000000001
40
0.086443474892683406
40
0.086443474892683406
40
0.086443474892683406
40
0.086443474892683406
40
0.10813737773055074
40
0.10813737773055074
40
0.16022954248518984
40
0.16022954248518984
40
0.16022954248518984
40
0.16022954248518984
10
24.244216604066384
20
3.3245211646971895
30
0
10
24.20446207073919
20
3.2648032730764442
30
0
10
24.168620095082709
20
3.2023854789659167
30
0
10
24.058980447541821
20
2.9822285451024944
30
0
10
24.003621369069919
20
2.8159704455075762
30
0
10
23.964632152700702
20
2.646803729705629
30
0
0
ARC
5
418
100
AcDbEntity
8
0
100
AcDbCircle
10
-3.8852075525988905
20
3.8645211322421402
30
0
40
0.25000000000000355
210
0
220
-0
230
1
100
AcDbArc
50
90
51
180
0
ARC
5
419
100
AcDbEntity
8
0
100
AcDbCircle
10
2.6147924474011508
20
-2.162978867757861
30
0
40
0.24999999999999467
210
0
220
-0
230
1
100
AcDbArc
50
89.999999999997954
51
180
0
LINE
5
420
100
AcDbEntity
8
0
100
AcDbLine
10
2.1147924474011526
20
-4.9429788677578568
30
0
11
1.545230495883374
21
-4.9429788677578568
31
0
0
LINE
5
421
100
AcDbEntity
8
0
100
AcDbLine
10
8.8147924474011425
20
-1.9129788677578752
30
0
11
9.2612189047218969
21
-1.9129788677578663
31
0
0
LINE
5
422
100
AcDbEntity
8
0
100
AcDbLine
10
-2.5192191437603029
20
4.1145211322421442
30
0
11
-2.6152075525988838
21
4.1145211322421442
31
0
0
ARC
5
423
100
AcDbEntity
8
0
100
AcDbCircle
10
-3.5887810952780974
20
-6.9254788677578549
30
0
40
0.24999999999999467
210
0
220
0
230
1
100
AcDbArc
50
0
51
90.000000000002032
0
LINE
5
424
100
AcDbEntity
8
0
100
AcDbLine
10
8.8147924474011425
20
-1.9129788677578752
30
0
11
2.6147924474011597
21
-1.9129788677578663
31
0
0
ARC
5
425
100
AcDbEntity
8
0
100
AcDbCircle
10
-7.8917824203545894
20
3.9995211322413282
30
0
40
0.67499999999918192
210
0
220
0
230
1
100
AcDbArc
50
265.51284418330715
51
270.00000000000301
0
LINE
5
426
100
AcDbEntity
8
0
100
AcDbLine
10
-3.8852075525988905
20
4.1145211322421442
30
0
11
-2.6152075525988838
21
4.1145211322421442
31
0
0
ARC
5
427
100
AcDbEntity
8
0
100
AcDbCircle
10
-4.9319943239384756
20
2.83519370871957
30
0
40
0.97500000000000364
210
0
220
0
230
1
100
AcDbArc
50
-168.85921163874465
51
35.192812638647439
0
SPLINE
5
428
100
AcDbEntity
8
0
100
AcDbSpline
70
4
71
2
72
6
73
3
74
0
42
0.000000001
43
0.0000000001
44
0.0000000001
40
-0.97572710622643788
40
-0.97572710622643788
40
-0.97572710622643788
40
-0.54807034639085228
40
-0.54807034639085228
40
-0.54807034639085228
41
1
41
1
41
1
10
-5.8886208005778595
20
2.6468037297065528
30
0
10
-5.9794800846750196
20
3.0410246995576018
30
0
10
-6.168205230337831
20
3.3245211322421464
30
0
0
ARC
5
429
100
AcDbEntity
8
0
100
AcDbCircle
10
-2.5192191437603029
20
4.3645211322421389
30
0
40
0.24999999999999467
210
-0
220
0
230
1
100
AcDbArc
50
-90
51
0
0
LINE
5
430
100
AcDbEntity
8
0
100
AcDbLine
10
-4.1352075525988852
20
3.3971152699878959
30
0
11
-4.1352075525988941
21
3.8645211322421447
31
0
0
ARC
5
431
100
AcDbEntity
8
0
100
AcDbCircle
10
1.5452304958833829
20
-5.1929788677578692
30
0
40
0.25000000000001243
210
0
220
0
230
1
100
AcDbArc
50
90.000000000002032
51
180
0
LINE
5
432
100
AcDbEntity
8
0
100
AcDbLine
10
-7.8917824203545539
20
3.3245211322421464
30
0
11
-6.1682052303378221
21
3.3245211322421464
31
0
0
ARC
5
433
100
AcDbEntity
8
0
100
AcDbCircle
10
2.1147924474011526
20
-4.6929788677578532
30
0
40
0.25000000000000355
210
-0
220
0
230
1
100
AcDbArc
50
-90
51
0
0
LINE
5
434
100
AcDbEntity
8
0
100
AcDbLine
10
1.2952304958833705
20
-5.1929788677578603
30
0
11
1.2952304958833616
21
-7.242978867757861
31
0
0
LINE
5
435
100
AcDbEntity
8
0
100
AcDbLine
10
2.3647924474011561
20
-2.162978867757861
30
0
11
2.3647924474011561
21
-4.6929788677578532
31
0
0
LINE
5
436
100
AcDbEntity
8
0
100
AcDbLine
10
35.580780856239691
20
-14.935478867757856
30
0
11
35.484792447401112
21
-14.935478867757856
31
0
0
LINE
5
437
100
AcDbEntity
8
0
100
AcDbLine
10
27.864792447401143
20
-6.6754788677578603
30
0
11
28.311218904721898
21
-6.6754788677578603
31
0
0
ARC
5
438
100
AcDbEntity
8
0
100
AcDbCircle
10
9.0380056760615197
20
7.5976937087195555
30
0
40
2.1249999999999938
210
0
220
0
230
1
100
AcDbArc
50
-193.3704017693361
51
13.370401769336052
0
LINE
5
439
100
AcDbEntity
8
0
100
AcDbLine
10
5.1942166040663924
20
8.0870211646971839
30
0
11
6.9177937724776069
21
8.0870211322421355
31
0
0
LINE
5
440
100
AcDbEntity
8
0
100
AcDbLine
10
8.8147924474011425
20
17.137021132242126
30
0
11
9.2612189047218969
21
17.137021132242133
31
0
0
ARC
5
441
100
AcDbEntity
8
0
100
AcDbCircle
10
2.6147924474011508
20
16.88702113224214
30
0
40
0.24999999999999467
210
0
220
-0
230
1
100
AcDbArc
50
89.999999999997954
51
180
0
LINE
5
442
100
AcDbEntity
8
0
100
AcDbLine
10
11.158217579645441
20
8.0870211322421355
30
0
11
12.881794769662173
21
8.0870211322421355
31
0
0
LINE
5
443
100
AcDbEntity
8
0
100
AcDbLine
10
3.1612189047219474
20
8.6270211322421346
30
0
11
3.1612189047219474
21
8.1596152699878814
31
0
0
LINE
5
444
100
AcDbEntity
8
0
100
AcDbLine
10
1.2952304958833616
20
11.80702113224214
30
0
11
1.2952304958833527
21
9.1270211322421364
31
0
0
ARC
5
445
100
AcDbEntity
8
0
100
AcDbCircle
10
1.5452304958833829
20
13.857021132242132
30
0
40
0.25000000000001243
210
0
220
0
230
1
100
AcDbArc
50
90.000000000002032
51
180
0
ARC
5
446
100
AcDbEntity
8
0
100
AcDbCircle
10
6.9177937724776424
20
8.7620211322413173
30
0
40
0.67499999999918181
210
0
220
0
230
1
100
AcDbArc
50
269.99999999999699
51
274.48715581669285
0
ARC
5
447
100
AcDbEntity
8
0
100
AcDbCircle
10
1.5452304958833651
20
9.1270211322421506
30
0
40
0.25000000000001243
210
0
220
0
230
1
100
AcDbArc
50
180
51
269.99999999999591
0
ARC
5
448
100
AcDbEntity
8
0
100
AcDbCircle
10
-2.5192191437603295
20
9.0945211322421411
30
0
40
0.25000000000001243
210
0
220
-0
230
1
100
AcDbArc
50
0
51
89.999999999997954
0
LINE
5
449
100
AcDbEntity
8
0
100
AcDbLine
10
-2.5192191437603206
20
9.3445211322421535
30
0
11
-3.0887810952780992
21
9.34452113224215
31
0
0
ARC
5
450
100
AcDbEntity
8
0
100
AcDbCircle
10
11.158217579645406
20
8.7620211322413173
30
0
40
0.67499999999918192
210
0
220
0
230
1
100
AcDbArc
50
265.51284418330715
51
270.00000000000301
0
ARC
5
451
100
AcDbEntity
8
0
100
AcDbCircle
10
2.1147924474011526
20
14.357021132242147
30
0
40
0.25000000000000355
210
-0
220
0
230
1
100
AcDbArc
50
-90
51
0
0
ARC
5
452
100
AcDbEntity
8
0
100
AcDbCircle
10
-3.0887810952780992
20
9.5945211322421535
30
0
40
0.25000000000000355
210
0
220
0
230
1
100
AcDbArc
50
180
51
270
0
ARC
5
453
100
AcDbEntity
8
0
100
AcDbCircle
10
3.9580056760615379
20
7.5976937087195555
30
0
40
0.97500000000000087
210
0
220
0
230
1
100
AcDbArc
50
144.80718736135256
51
348.85921163868932
0
ARC
5
454
100
AcDbEntity
8
0
100
AcDbCircle
10
2.9112189047219439
20
8.6270211322421293
30
0
40
0.25000000000000355
210
0
220
-0
230
1
100
AcDbArc
50
0
51
90
0
ARC
5
455
100
AcDbEntity
8
0
100
AcDbCircle
10
-3.5887810952780974
20
12.124521132242146
30
0
40
0.24999999999999467
210
0
220
0
230
1
100
AcDbArc
50
0
51
90.000000000002032
0
LINE
5
456
100
AcDbEntity
8
0
100
AcDbLine
10
-3.3387810952781027
20
9.5945211322421535
30
0
11
-3.3387810952781027
21
12.124521132242146
31
0
0
SPLINE
5
457
100
AcDbEntity
8
0
100
AcDbSpline
70
0
71
3
72
10
73
6
74
0
42
0.000000001
43
0.0000000001
44
0.0000000001
40
0.086443474892683406
40
0.086443474892683406
40
0.086443474892683406
40
0.086443474892683406
40
0.10813737773055074
40
0.10813737773055074
40
0.16022954248518984
40
0.16022954248518984
40
0.16022954248518984
40
0.16022954248518984
10
5.1942166040663924
20
8.0870211646971839
30
0
10
5.1544620707391982
20
8.0273032730764342
30
0
10
5.118620095082715
20
7.9648854789659058
30
0
10
5.0089804475418305
20
7.7447285451024843
30
0
10
4.9536213690699267
20
7.5784704455075698
30
0
10
4.9146321527007082
20
7.4093037297056235
30
0
0
LINE
5
458
100
AcDbEntity
8
0
100
AcDbLine
10
1.2952304958833705
20
13.85702113224214
30
0
11
1.2952304958833616
21
11.80702113224214
31
0
0
LINE
5
459
100
AcDbEntity
8
0
100
AcDbLine
10
-2.2692191437603082
20
7.0445211322421457
30
0
11
-2.2692191437603171
21
9.0945211322421553
31
0
0
LINE
5
460
100
AcDbEntity
8
0
100
AcDbLine
10
2.3647924474011561
20
16.88702113224214
30
0
11
2.3647924474011561
21
14.357021132242147
31
0
0
LINE
5
461
100
AcDbEntity
8
0
100
AcDbLine
10
8.8147924474011425
20
17.137021132242126
30
0
11
2.6147924474011597
21
17.137021132242133
31
0
0
LINE
5
462
100
AcDbEntity
8
0
100
AcDbLine
10
1.6412189047219372
20
8.8770211322421382
30
0
11
2.9112189047219439
21
8.8770211322421329
31
0
0
LINE
5
463
100
AcDbEntity
8
0
100
AcDbLine
10
1.5452304958833474
20
8.8770211322421382
30
0
11
1.6412189047219372
21
8.8770211322421382
31
0
0
ARC
5
464
100
AcDbEntity
8
0
100
AcDbCircle
10
-22.935207552598893
20
-5.660478867757865
30
0
40
0.25000000000000355
210
0
220
-0
230
1
100
AcDbArc
50
90
51
180
0
LINE
5
465
100
AcDbEntity
8
0
100
AcDbLine
10
2.1147924474011526
20
14.107021132242144
30
0
11
1.545230495883374
21
14.107021132242144
31
0
0
LINE
5
466
100
AcDbEntity
8
0
100
AcDbLine
10
-21.319219143760311
20
-2.480478867757856
30
0
11
-21.319219143760321
21
-0.43047886775785082
31
0
0
LINE
5
467
100
AcDbEntity
8
0
100
AcDbLine
10
-2.2692191437603082
20
7.0445211322421457
30
0
11
-2.2692191437602993
21
4.3645211322421389
31
0
0
ARC
5
468
100
AcDbEntity
8
0
100
AcDbCircle
10
-21.569219143760332
20
-0.43047886775786193
30
0
40
0.25000000000001243
210
0
220
-0
230
1
100
AcDbArc
50
0
51
89.999999999997556
0
ARC
5
469
100
AcDbEntity
8
0
100
AcDbCircle
10
-15.091994323938467
20
2.8351937087195611
30
0
40
0.97500000000000087
210
0
220
0
230
1
100
AcDbArc
50
144.80718736135256
51
348.85921163868932
0
ARC
5
470
100
AcDbEntity
8
0
100
AcDbCircle
10
-35.485207552598858
20
2.5995211322421441
30
0
40
0.24999999999999467
210
0
220
-0
230
1
100
AcDbArc
50
89.99999999999838
51
180
0
LINE
5
471
100
AcDbEntity
8
0
100
AcDbLine
10
-36.804769504116635
20
-0.43047886775785082
30
0
11
-36.804769504116649
21
-2.480478867757856
31
0
0
ARC
5
472
100
AcDbEntity
8
0
100
AcDbCircle
10
-36.554769504116642
20
-5.1604788677578455
30
0
40
0.25000000000001243
210
0
220
0
230
1
100
AcDbArc
50
180
51
269.99999999999511
0
ARC
5
473
100
AcDbEntity
8
0
100
AcDbCircle
10
-10.011994323938476
20
2.8351937087195611
30
0
40
2.1250000000000036
210
0
220
0
230
1
100
AcDbArc
50
-193.37040176933615
51
13.370401769336189
0
LINE
5
474
100
AcDbEntity
8
0
100
AcDbLine
10
-3.5887810952781063
20
-6.6754788677578603
30
0
11
-9.7887810952780985
21
-6.6754788677578603
31
0
0
ARC
5
475
100
AcDbEntity
8
0
100
AcDbCircle
10
-26.941782420354592
20
-5.525478867758677
30
0
40
0.67499999999918192
210
0
220
0
230
1
100
AcDbArc
50
265.51284418330698
51
270.00000000000301
0
LINE
5
476
100
AcDbEntity
8
0
100
AcDbLine
10
-36.804769504116649
20
-2.480478867757856
30
0
11
-36.804769504116656
21
-5.1604788677578579
31
0
0
SPLINE
5
477
100
AcDbEntity
8
0
100
AcDbSpline
70
0
71
3
72
10
73
6
74
0
42
0.000000001
43
0.0000000001
44
0.0000000001
40
0.086443474892683406
40
0.086443474892683406
40
0.086443474892683406
40
0.086443474892683406
40
0.10813737773055074
40
0.10813737773055074
40
0.16022954248518984
40
0.16022954248518984
40
0.16022954248518984
40
0.16022954248518984
10
-32.905783395933611
20
12.849521164697183
30
0
10
-32.945537929260809
20
12.789803273076437
30
0
10
-32.98137990491729
20
12.727385478965907
30
0
10
-33.091019552458178
20
12.507228545102487
30
0
10
-33.14637863093008
20
12.340970445507569
30
0
10
-33.185367847299297
20
12.171803729705621
30
0
0
LINE
5
478
100
AcDbEntity
8
0
100
AcDbLine
10
-35.985207552598851
20
-0.18047886775785171
30
0
11
-36.554769504116635
21
-0.18047886775784727
31
0
0
LINE
5
479
100
AcDbEntity
8
0
100
AcDbLine
10
-29.285207552598855
20
2.8495211322421343
30
0
11
-28.838781095278101
21
2.8495211322421388
31
0
0
ARC
5
480
100
AcDbEntity
8
0
100
AcDbCircle
10
-35.985207552598851
20
0.06952113224215184
30
0
40
0.25000000000000355
210
-0
220
0
230
1
100
AcDbArc
50
-90
51
0
0
LINE
5
481
100
AcDbEntity
8
0
100
AcDbLine
10
-36.554769504116663
20
-5.4104788677578579
30
0
11
-36.45878109527807
21
-5.4104788677578579
31
0
0
ARC
5
482
100
AcDbEntity
8
0
100
AcDbCircle
10
-31.182206227522364
20
-5.525478867758677
30
0
40
0.67499999999918181
210
0
220
0
230
1
100
AcDbArc
50
269.99999999999699
51
274.48715581669302
0
ARC
5
483
100
AcDbEntity
8
0
100
AcDbCircle
10
-36.554769504116642
20
13.889521132242152
30
0
40
0.25000000000001243
210
0
220
0
230
1
100
AcDbArc
50
180
51
269.99999999999511
0
LINE
5
484
100
AcDbEntity
8
0
100
AcDbLine
10
-29.285207552598855
20
2.8495211322421343
30
0
11
-35.485207552598851
21
2.8495211322421388
31
0
0
ARC
5
485
100
AcDbEntity
8
0
100
AcDbCircle
10
-36.554769504116621
20
18.619521132242134
30
0
40
0.25000000000001465
210
0
220
0
230
1
100
AcDbArc
50
90.000000000003254
51
180
0
LINE
5
486
100
AcDbEntity
8
0
100
AcDbLine
10
-32.905783395933611
20
-6.2004788353028122
30
0
11
-31.1822062275224
21
-6.2004788677578588
31
0
0
ARC
5
487
100
AcDbEntity
8
0
100
AcDbCircle
10
-35.18878109527806
20
-5.660478867757865
30
0
40
0.25000000000000355
210
0
220
-0
230
1
100
AcDbArc
50
0
51
90
0
ARC
5
488
100
AcDbEntity
8
0
100
AcDbCircle
10
-34.141994323938469
20
-6.6898062912804424
30
0
40
0.97500000000000087
210
0
220
0
230
1
100
AcDbArc
50
144.80718736135256
51
348.8592116386892
0
ARC
5
489
100
AcDbEntity
8
0
100
AcDbCircle
10
-36.554769504116621
20
-0.43047886775786193
30
0
40
0.25000000000001465
210
0
220
0
230
1
100
AcDbArc
50
90.000000000003254
51
180
0
LINE
5
490
100
AcDbEntity
8
0
100
AcDbLine
10
-34.93878109527806
20
-5.6604788677578588
30
0
11
-34.93878109527806
21
-6.1278847300121164
31
0
0
LINE
5
491
100
AcDbEntity
8
0
100
AcDbLine
10
-36.45878109527807
20
-5.4104788677578579
30
0
11
-35.18878109527806
21
-5.4104788677578615
31
0
0
LINE
5
492
100
AcDbEntity
8
0
100
AcDbLine
10
-35.735207552598851
20
2.5995211322421441
30
0
11
-35.735207552598851
21
0.06952113224215184
31
0
0
SPLINE
5
493
100
AcDbEntity
8
0
100
AcDbSpline
70
0
71
3
72
10
73
6
74
0
42
0.000000001
43
0.0000000001
44
0.0000000001
40
0.086443474892683406
40
0.086443474892683406
40
0.086443474892683406
40
0.086443474892683406
40
0.10813737773055074
40
0.10813737773055074
40
0.16022954248518984
40
0.16022954248518984
40
0.16022954248518984
40
0.16022954248518984
10
-32.905783395933611
20
-6.2004788353028122
30
0
10
-32.945537929260809
20
-6.2601967269235592
30
0
10
-32.98137990491729
20
-6.3226145210340885
30
0
10
-33.091019552458178
20
-6.5427714548975091
30
0
10
-33.14637863093008
20
-6.7090295544924272
30
0
10
-33.185367847299297
20
-6.8781962702943744
30
0
0
LINE
5
494
100
AcDbEntity
8
0
100
AcDbLine
10
-36.804769504116635
20
18.619521132242145
30
0
11
-36.804769504116649
21
16.569521132242141
31
0
0
ARC
5
495
100
AcDbEntity
8
0
100
AcDbCircle
10
-26.941782420354592
20
13.524521132241318
30
0
40
0.67499999999918192
210
0
220
0
230
1
100
AcDbArc
50
265.51284418330698
51
270.00000000000301
0
LINE
5
496
100
AcDbEntity
8
0
100
AcDbLine
10
-36.554769504116663
20
13.639521132242137
30
0
11
-36.45878109527807
21
13.639521132242137
31
0
0
LINE
5
497
100
AcDbEntity
8
0
100
AcDbLine
10
-34.93878109527806
20
13.389521132242137
30
0
11
-34.93878109527806
21
12.922115269987879
31
0
0
LINE
5
498
100
AcDbEntity
8
0
100
AcDbLine
10
-41.438781095278117
20
0.069521132242147399
30
0
11
-41.438781095278117
21
2.5995211322421397
31
0
0
ARC
5
499
100
AcDbEntity
8
0
100
AcDbCircle
10
-34.141994323938469
20
12.360193708719553
30
0
40
0.97500000000000087
210
0
220
0
230
1
100
AcDbArc
50
144.80718736135256
51
348.8592116386892
0
LINE
5
500
100
AcDbEntity
8
0
100
AcDbLine
10
-36.804769504116649
20
16.569521132242141
30
0
11
-36.804769504116656
21
13.889521132242137
31
0
0
LINE
5
501
100
AcDbEntity
8
0
100
AcDbLine
10
-40.619219143760319
20
-5.4104788677578668
30
0
11
-40.715207552598898
21
-5.4104788677578641
31
0
0
ARC
5
502
100
AcDbEntity
8
0
100
AcDbCircle
10
-55.604769504116653
20
-5.160478867757849
30
0
40
0.25000000000001243
210
0
220
0
230
1
100
AcDbArc
50
180
51
269.99999999999511
0
SPLINE
5
503
100
AcDbEntity
8
0
100
AcDbSpline
70
0
71
3
72
10
73
6
74
0
42
0.000000001
43
0.0000000001
44
0.0000000001
40
0.086443474892683406
40
0.086443474892683406
40
0.086443474892683406
40
0.086443474892683406
40
0.10813737773055074
40
0.10813737773055074
40
0.16022954248518984
40
0.16022954248518984
40
0.16022954248518984
40
0.16022954248518984
10
-51.955783395933622
20
-6.2004788353028157
30
0
10
-51.99553792926082
20
-6.2601967269235637
30
0
10
-52.031379904917301
20
-6.3226145210340938
30
0
10
-52.141019552458189
20
-6.5427714548975136
30
0
10
-52.196378630930091
20
-6.7090295544924317
30
0
10
-52.235367847299308
20
-6.8781962702943789
30
0
0
ARC
5
504
100
AcDbEntity
8
0
100
AcDbCircle
10
-55.604769504116632
20
-0.43047886775786637
30
0
40
0.25000000000001465
210
0
220
0
230
1
100
AcDbArc
50
90.000000000003254
51
180
0
LINE
5
505
100
AcDbEntity
8
0
100
AcDbLine
10
-41.985207552598908
20
-5.4104788677578668
30
0
11
-40.715207552598898
21
-5.4104788677578641
31
0
0
LINE
5
506
100
AcDbEntity
8
0
100
AcDbLine
10
-32.905783395933611
20
12.849521164697183
30
0
11
-31.1822062275224
21
12.849521132242137
31
0
0
LINE
5
507
100
AcDbEntity
8
0
100
AcDbLine
10
-35.985207552598851
20
18.869521132242145
30
0
11
-36.554769504116635
21
18.869521132242149
31
0
0
ARC
5
508
100
AcDbEntity
8
0
100
AcDbCircle
10
-40.619219143760319
20
-5.1604788677578668
30
0
40
0.24999999999999911
210
-0
220
0
230
1
100
AcDbArc
50
-90
51
0
0
SPLINE
5
509
100
AcDbEntity
8
0
100
AcDbSpline
70
4
71
2
72
6
73
3
74
0
42
0.000000001
43
0.0000000001
44
0.0000000001
40
-0.97572710622643788
40
-0.97572710622643788
40
-0.97572710622643788
40
-0.54807034639085228
40
-0.54807034639085228
40
-0.54807034639085228
41
1
41
1
41
1
10
-43.988620800577877
20
-6.8781962702934525
30
0
10
-44.079480084675033
20
-6.4839753004424061
30
0
10
-44.268205230337841
20
-6.2004788677578642
30
0
0
LINE
5
510
100
AcDbEntity
8
0
100
AcDbLine
10
-53.988781095278071
20
-5.6604788677578632
30
0
11
-53.988781095278071
21
-6.1278847300121209
31
0
0
ARC
5
511
100
AcDbEntity
8
0
100
AcDbCircle
10
-53.191994323938481
20
-6.6898062912804468
30
0
40
0.97500000000000087
210
0
220
0
230
1
100
AcDbArc
50
144.80718736135256
51
348.8592116386892
0
ARC
5
512
100
AcDbEntity
8
0
100
AcDbCircle
10
-55.035207552598862
20
0.069521132242147399
30
0
40
0.25000000000000355
210
-0
220
0
230
1
100
AcDbArc
50
-90
51
0
0
ARC
5
513
100
AcDbEntity
8
0
100
AcDbCircle
10
-41.985207552598908
20
-5.6604788677578703
30
0
40
0.25000000000000355
210
0
220
-0
230
1
100
AcDbArc
50
90
51
180
0
LINE
5
514
100
AcDbEntity
8
0
100
AcDbLine
10
-42.235207552598901
20
-6.1278847300121146
30
0
11
-42.235207552598908
21
-5.6604788677578632
31
0
0
ARC
5
515
100
AcDbEntity
8
0
100
AcDbCircle
10
-35.985207552598851
20
19.119521132242149
30
0
40
0.25000000000000355
210
-0
220
0
230
1
100
AcDbArc
50
-90
51
0
0
ARC
5
516
100
AcDbEntity
8
0
100
AcDbCircle
10
-29.061994323938478
20
12.360193708719553
30
0
40
2.1250000000000031
210
0
220
0
230
1
100
AcDbArc
50
-193.37040176933613
51
13.37040176933616
0
ARC
5
517
100
AcDbEntity
8
0
100
AcDbCircle
10
-41.188781095278117
20
0.069521132242147399
30
0
40
0.25000000000000355
210
0
220
0
230
1
100
AcDbArc
50
180
51
270
0
ARC
5
518
100
AcDbEntity
8
0
100
AcDbCircle
10
-35.18878109527806
20
13.38952113224213
30
0
40
0.25000000000000355
210
0
220
-0
230
1
100
AcDbArc
50
0
51
90
0
ARC
5
519
100
AcDbEntity
8
0
100
AcDbCircle
10
-31.182206227522364
20
13.524521132241318
30
0
40
0.67499999999918181
210
0
220
0
230
1
100
AcDbArc
50
269.99999999999699
51
274.48715581669302
0
LINE
5
520
100
AcDbEntity
8
0
100
AcDbLine
10
-36.45878109527807
20
13.639521132242137
30
0
11
-35.18878109527806
21
13.639521132242134
31
0
0
ARC
5
521
100
AcDbEntity
8
0
100
AcDbCircle
10
-40.619219143760347
20
-0.43047886775786637
30
0
40
0.25000000000001243
210
0
220
-0
230
1
100
AcDbArc
50
0
51
89.999999999996746
0
LINE
5
522
100
AcDbEntity
8
0
100
AcDbLine
10
-41.688781095278117
20
2.8495211322421343
30
0
11
-47.888781095278112
21
2.8495211322421343
31
0
0
LINE
5
523
100
AcDbEntity
8
0
100
AcDbLine
10
-55.854769504116646
20
-0.43047886775785527
30
0
11
-55.854769504116661
21
-2.4804788677578604
31
0
0
LINE
5
524
100
AcDbEntity
8
0
100
AcDbLine
10
-45.991782420354568
20
-6.2004788677578642
30
0
11
-44.268205230337834
21
-6.2004788677578642
31
0
0
ARC
5
525
100
AcDbEntity
8
0
100
AcDbCircle
10
56.329516803030081
20
-31.207344378949891
30
0
40
0.24999999999999556
210
-0
220
0
230
1
100
AcDbArc
50
-10.000000000000497
51
80.000000000001407
0
LINE
5
526
100
AcDbEntity
8
0
100
AcDbLine
10
56.746898900916712
20
-36.439307292451588
30
0
11
57.102877665133917
21
-34.420451398776557
31
0
0
SPLINE
5
527
100
AcDbEntity
8
0
100
AcDbSpline
70
0
71
3
72
10
73
6
74
0
42
0.000000001
43
0.0000000001
44
0.0000000001
40
0.086443474892683406
40
0.086443474892683406
40
0.086443474892683406
40
0.086443474892683406
40
0.10813737773055074
40
0.10813737773055074
40
0.16022954248518984
40
0.16022954248518984
40
0.16022954248518984
40
0.16022954248518984
10
44.690389379317125
20
-38.090806333884338
30
0
10
44.640868903625076
20
-38.142713674279719
30
0
10
44.594732711914006
20
-38.197959308088954
30
0
10
44.448528886612095
20
-38.395732838441532
30
0
10
44.36514042091634
20
-38.549852100829717
30
0
10
44.297368046431146
20
-38.709678387731906
30
0
0
LINE
5
528
100
AcDbEntity
8
0
100
AcDbLine
10
42.703110618939277
20
-31.62752729964437
30
0
11
42.142201593263813
21
-31.528623904694882
31
0
0
ARC
5
529
100
AcDbEntity
8
0
100
AcDbCircle
10
41.277433668482495
20
-36.432966514695686
30
0
40
0.25000000000002098
210
0
220
0
230
1
100
AcDbArc
50
170.00000000000227
51
259.99999999999523
0
LINE
5
530
100
AcDbEntity
8
0
100
AcDbLine
10
39.395230495883354
20
-14.481978867757856
30
0
11
39.395230495883347
21
-17.161978867757853
31
0
0
ARC
5
531
100
AcDbEntity
8
0
100
AcDbCircle
10
43.387988452046628
20
-38.358034031432851
30
0
40
0.97500000000000087
210
0
220
0
230
1
100
AcDbArc
50
134.8071873613531
51
338.85921163868858
0
LINE
5
532
100
AcDbEntity
8
0
100
AcDbLine
10
56.372928847446808
20
-30.96114244069684
30
0
11
50.26712077877113
21
-29.884523739161875
31
0
0
ARC
5
533
100
AcDbEntity
8
0
100
AcDbCircle
10
42.098789548847087
20
-31.774825842947951
30
0
40
0.25000000000001665
210
0
220
-0
230
1
100
AcDbArc
50
80.000000000002103
51
169.99999999999721
0
LINE
5
534
100
AcDbEntity
8
0
100
AcDbLine
10
41.496608846376802
20
-33.750269692206238
30
0
11
41.031231730229422
21
-36.389554470278959
31
0
0
LINE
5
535
100
AcDbEntity
8
0
100
AcDbLine
10
56.900087771297592
20
-34.130837416106765
30
0
11
56.339178745622121
21
-34.031934021157291
31
0
0
LINE
5
536
100
AcDbEntity
8
0
100
AcDbLine
10
55.991907802099561
20
-39.281381964360627
30
0
11
55.897377672876026
21
-39.26471375208866
31
0
0
LINE
5
537
100
AcDbEntity
8
0
100
AcDbLine
10
42.782047493451117
20
-37.205983833527497
30
0
11
42.700883317239828
21
-37.666288750478849
31
0
0
LINE
5
538
100
AcDbEntity
8
0
100
AcDbLine
10
54.646671826550516
20
-39.044180566451658
30
0
11
55.897377672876026
21
-39.26471375208866
31
0
0
LINE
5
539
100
AcDbEntity
8
0
100
AcDbLine
10
54.880780856239689
20
-14.481978867757856
30
0
11
54.880780856239696
21
-17.161978867757863
31
0
0
ARC
5
540
100
AcDbEntity
8
0
100
AcDbCircle
10
42.535845555198065
20
-37.162571789110771
30
0
40
0.2500000000000035
210
-0
220
0
230
1
100
AcDbArc
50
-9.9999999999985629
51
80.000000000000071
0
ARC
5
541
100
AcDbEntity
8
0
100
AcDbCircle
10
42.746522663356018
20
-31.381325361391319
30
0
40
0.25000000000000222
210
0
220
0
230
1
100
AcDbArc
50
259.99999999999818
51
349.99999999999983
0
ARC
5
542
100
AcDbEntity
8
0
100
AcDbCircle
10
46.504994051972631
20
-37.725357166926813
30
0
40
0.67499999999918714
210
0
220
0
230
1
100
AcDbArc
50
259.99999999999676
51
264.48715581669313
0
ARC
5
543
100
AcDbEntity
8
0
100
AcDbCircle
10
43.678256429359443
20
-28.976585835103904
30
0
40
0.24999999999999786
210
0
220
-0
230
1
100
AcDbArc
50
79.999999999996433
51
170.00000000000003
0
LINE
5
544
100
AcDbEntity
8
0
100
AcDbLine
10
41.328551753289283
20
-36.69583666522071
30
0
11
42.579257599614799
21
-36.916369850857713
31
0
0
LINE
5
545
100
AcDbEntity
8
0
100
AcDbLine
10
54.630780856239696
20
-17.41197886775786
30
0
11
54.534792447401117
21
-17.41197886775786
31
0
0
LINE
5
546
100
AcDbEntity
8
0
100
AcDbLine
10
41.23402162406574
20
-36.679168452948744
30
0
11
41.328551753289283
21
-36.69583666522071
31
0
0
LINE
5
547
100
AcDbEntity
8
0
100
AcDbLine
10
44.690389379317125
20
-38.090806333884338
30
0
11
46.387781532047555
21
-38.390102400209251
31
0
0
LINE
5
548
100
AcDbEntity
8
0
100
AcDbLine
10
43.432054491106406
20
-28.933173790687174
30
0
11
42.992724601609069
21
-31.424737405808052
31
0
0
LINE
5
549
100
AcDbEntity
8
0
100
AcDbLine
10
41.852587610594021
20
-31.731413798531204
30
0
11
41.496608846376802
21
-33.750269692206238
31
0
0
ARC
5
550
100
AcDbEntity
8
0
100
AcDbCircle
10
56.035319846516288
20
-39.035180026107589
30
0
40
0.24999999999998604
210
0
220
0
230
1
100
AcDbArc
50
260.0000000000008
51
350.00000000000193
0
ARC
5
551
100
AcDbEntity
8
0
100
AcDbCircle
10
50.680996293328995
20
-38.46169903357697
30
0
40
0.67499999999917759
210
0
220
0
230
1
100
AcDbArc
50
255.5128441833069
51
260.00000000000392
0
LINE
5
552
100
AcDbEntity
8
0
100
AcDbLine
10
54.275893667669443
20
-39.70727537723932
30
0
11
54.357057843880725
21
-39.246970460287976
31
0
0
LINE
5
553
100
AcDbEntity
8
0
100
AcDbLine
10
56.746898900916712
20
-36.439307292451588
30
0
11
56.281521784769353
21
-39.078592070524316
31
0
0
LINE
5
554
100
AcDbEntity
8
0
100
AcDbLine
10
65.205673544950713
20
-33.579620514422928
30
0
11
64.34036258233678
21
-35.957042845011259
31
0
0
ARC
5
555
100
AcDbEntity
8
0
100
AcDbCircle
10
64.105439427140297
20
-35.871537809179856
30
0
40
0.25000000000000161
210
0
220
0
230
1
100
AcDbArc
50
249.99999999999991
51
340.00000000000352
0
LINE
5
556
100
AcDbEntity
8
0
100
AcDbLine
10
63.128983226023706
20
-41.61387545319576
30
0
11
62.969121006024238
21
-42.053093292868162
31
0
0
LINE
5
557
100
AcDbEntity
8
0
100
AcDbLine
10
63.1642930373593
20
-36.061077423450442
30
0
11
62.463151743541665
21
-37.987447296061546
31
0
0
LINE
5
558
100
AcDbEntity
8
0
100
AcDbLine
10
49.827476542451876
20
-29.807002598385822
30
0
11
50.26712077877113
21
-29.884523739161875
31
0
0
ARC
5
559
100
AcDbEntity
8
0
100
AcDbCircle
10
63.399216192555777
20
-36.146582459281866
30
0
40
0.25000000000001832
210
0
220
-0
230
1
100
AcDbArc
50
70.000000000000057
51
159.99999999999838
0
LINE
5
560
100
AcDbEntity
8
0
100
AcDbLine
10
50.563783773404005
20
-39.126444266859409
30
0
11
52.26117595304747
21
-39.425740304974106
31
0
0
LINE
5
561
100
AcDbEntity
8
0
100
AcDbLine
10
56.136388851785796
20
-33.742320038487506
30
0
11
56.575718741283126
21
-31.250756423366624
31
0
0
ARC
5
562
100
AcDbEntity
8
0
100
AcDbCircle
10
61.781460914625363
20
-40.591328555599176
30
0
40
0.25000000000000921
210
0
220
0
230
1
100
AcDbArc
50
160.00000000000773
51
249.99999999999545
0
ARC
5
563
100
AcDbEntity
8
0
100
AcDbCircle
10
56.382590790038847
20
-33.785732082904232
30
0
40
0.2500000000000035
210
0
220
0
230
1
100
AcDbArc
50
170.00000000000142
51
260.00000000000165
0
SPLINE
5
564
100
AcDbEntity
8
0
100
AcDbSpline
70
4
71
2
72
6
73
3
74
0
42
0.000000001
43
0.0000000001
44
0.0000000001
40
-0.97572710622643788
40
-0.97572710622643788
40
-0.97572710622643788
40
-0.54807034639085228
40
-0.54807034639085228
40
-0.54807034639085228
41
1
41
1
41
1
10
52.418828475173108
20
-40.141710984074315
30
0
10
52.397805300773818
20
-39.737701567457421
30
0
10
52.26117595304747
20
-39.425740304974106
30
0
0
ARC
5
565
100
AcDbEntity
8
0
100
AcDbCircle
10
56.856675726880852
20
-34.37703935435983
30
0
40
0.25000000000001227
210
-0
220
0
230
1
100
AcDbArc
50
-9.9999999999980549
51
79.999999999998749
0
ARC
5
566
100
AcDbEntity
8
0
100
AcDbCircle
10
48.390811837348629
20
-39.24016677398086
30
0
40
2.1250000000000053
210
0
220
0
230
1
100
AcDbArc
50
-203.37040176933635
51
3.3704017693362909
0
LINE
5
567
100
AcDbEntity
8
0
100
AcDbLine
10
61.786155478260525
20
-40.859081680144257
30
0
11
62.979565106658633
21
-41.293447262167859
31
0
0
LINE
5
568
100
AcDbEntity
8
0
100
AcDbLine
10
62.463151743541665
20
-37.987447296061546
30
0
11
61.546537759428865
21
-40.505823519767787
31
0
0
LINE
5
569
100
AcDbEntity
8
0
100
AcDbLine
10
61.695955878793917
20
-40.826251710795674
30
0
11
61.786155478260525
21
-40.859081680144257
31
0
0
ARC
5
570
100
AcDbEntity
8
0
100
AcDbCircle
10
53.393635222650644
20
-40.122299516528848
30
0
40
0.97500000000000153
210
0
220
0
230
1
100
AcDbArc
50
-178.85921163874434
51
25.192812638646988
0
LINE
5
571
100
AcDbEntity
8
0
100
AcDbLine
10
49.827476542451876
20
-29.807002598385822
30
0
11
43.721668473776191
21
-28.730383896850856
31
0
0
ARC
5
572
100
AcDbEntity
8
0
100
AcDbCircle
10
62.894060070827223
20
-41.528370417364343
30
0
40
0.24999999999999856
210
-0
220
0
230
1
100
AcDbArc
50
-19.99999999999952
51
70.000000000002004
0
ARC
5
573
100
AcDbEntity
8
0
100
AcDbCircle
10
54.603259782133776
20
-39.290382504704709
30
0
40
0.25000000000000505
210
0
220
-0
230
1
100
AcDbArc
50
79.999999999998195
51
169.99999999999983
0
LINE
5
574
100
AcDbEntity
8
0
100
AcDbLine
10
64.01993439130888
20
-36.106460964376332
30
0
11
63.484721228387201
21
-35.911659304085369
31
0
0
ARC
5
575
100
AcDbEntity
8
0
100
AcDbCircle
10
70.689876588632657
20
-44.222151582362926
30
0
40
0.67499999999917382
210
0
220
0
230
1
100
AcDbArc
50
245.51284418330661
51
250.00000000000298
0
ARC
5
576
100
AcDbEntity
8
0
100
AcDbCircle
10
66.705181628032207
20
-42.771841224073832
30
0
40
0.67499999999917126
210
0
220
0
230
1
100
AcDbArc
50
249.99999999999739
51
254.48715581669302
0
ARC
5
577
100
AcDbEntity
8
0
100
AcDbCircle
10
68.299305676061522
20
-44.591106291280447
30
0
40
2.1250000000000138
210
0
220
0
230
1
100
AcDbArc
50
146.62959823066385
51
353.37040176933618
0
LINE
5
578
100
AcDbEntity
8
0
100
AcDbLine
10
70.459012991888144
20
-44.856444101392654
30
0
11
72.078645758701782
21
-45.445942218955018
31
0
0
ARC
5
579
100
AcDbEntity
8
0
100
AcDbCircle
10
-21.569219143760307
20
13.889521132242134
30
0
40
0.24999999999999911
210
-0
220
0
230
1
100
AcDbArc
50
-90
51
0
0
LINE
5
580
100
AcDbEntity
8
0
100
AcDbLine
10
-21.319219143760311
20
16.569521132242141
30
0
11
-21.3192191437603
21
13.889521132242134
31
0
0
ARC
5
581
100
AcDbEntity
8
0
100
AcDbCircle
10
-16.435207552598854
20
12.124521132242146
30
0
40
0.24999999999999467
210
0
220
-0
230
1
100
AcDbArc
50
89.99999999999838
51
180
0
LINE
5
582
100
AcDbEntity
8
0
100
AcDbLine
10
-3.5887810952781063
20
12.37452113224214
30
0
11
-9.7887810952780985
21
12.37452113224214
31
0
0
LINE
5
583
100
AcDbEntity
8
0
100
AcDbLine
10
-17.754769504116645
20
7.0445211322421457
30
0
11
-17.754769504116652
21
4.3645211322421478
31
0
0
LINE
5
584
100
AcDbEntity
8
0
100
AcDbLine
10
-21.569219143760307
20
13.639521132242134
30
0
11
-21.665207552598886
21
13.639521132242136
31
0
0
LINE
5
585
100
AcDbEntity
8
0
100
AcDbLine
10
-10.235207552598853
20
12.37452113224214
30
0
11
-9.7887810952780985
21
12.37452113224214
31
0
0
LINE
5
586
100
AcDbEntity
8
0
100
AcDbLine
10
-16.935207552598854
20
9.34452113224215
30
0
11
-17.504769504116631
21
9.3445211322421589
31
0
0
LINE
5
587
100
AcDbEntity
8
0
100
AcDbLine
10
-16.685207552598847
20
12.124521132242146
30
0
11
-16.685207552598847
21
9.5945211322421535
31
0
0
LINE
5
588
100
AcDbEntity
8
0
100
AcDbLine
10
-17.754769504116634
20
9.0945211322421553
30
0
11
-17.754769504116645
21
7.0445211322421457
31
0
0
ARC
5
589
100
AcDbEntity
8
0
100
AcDbCircle
10
-22.935207552598893
20
13.38952113224213
30
0
40
0.25000000000000355
210
0
220
-0
230
1
100
AcDbArc
50
90
51
180
0
ARC
5
590
100
AcDbEntity
8
0
100
AcDbCircle
10
-17.504769504116624
20
9.0945211322421411
30
0
40
0.25000000000001688
210
0
220
0
230
1
100
AcDbArc
50
90.000000000001634
51
180
0
LINE
5
591
100
AcDbEntity
8
0
100
AcDbLine
10
-21.319219143760311
20
16.569521132242141
30
0
11
-21.319219143760321
21
18.619521132242145
31
0
0
ARC
5
592
100
AcDbEntity
8
0
100
AcDbCircle
10
-23.98199432393848
20
12.36019370871956
30
0
40
0.97500000000000264
210
0
220
0
230
1
100
AcDbArc
50
-168.8592116387448
51
35.192812638647439
0
SPLINE
5
593
100
AcDbEntity
8
0
100
AcDbSpline
70
4
71
2
72
6
73
3
74
0
42
0.000000001
43
0.0000000001
44
0.0000000001
40
-0.97572710622643788
40
-0.97572710622643788
40
-0.97572710622643788
40
-0.54807034639085228
40
-0.54807034639085228
40
-0.54807034639085228
41
1
41
1
41
1
10
13.161379199422136
20
7.4093037297065472
30
0
10
13.070519915324976
20
7.8035246995575918
30
0
10
12.881794769662164
20
8.0870211322421355
30
0
0
ARC
5
594
100
AcDbEntity
8
0
100
AcDbCircle
10
-16.935207552598854
20
9.5945211322421535
30
0
40
0.25000000000000355
210
-0
220
0
230
1
100
AcDbArc
50
-90
51
0
0
LINE
5
595
100
AcDbEntity
8
0
100
AcDbLine
10
-22.935207552598893
20
13.639521132242134
30
0
11
-21.665207552598886
21
13.639521132242136
31
0
0
SPLINE
5
596
100
AcDbEntity
8
0
100
AcDbSpline
70
4
71
2
72
6
73
3
74
0
42
0.000000001
43
0.0000000001
44
0.0000000001
40
-0.97572710622643788
40
-0.97572710622643788
40
-0.97572710622643788
40
-0.54807034639085228
40
-0.54807034639085228
40
-0.54807034639085228
41
1
41
1
41
1
10
-24.938620800577862
20
12.171803729706546
30
0
10
-25.029480084675022
20
12.566024699557595
30
0
10
-25.218205230337833
20
12.849521132242137
30
0
0
ARC
5
597
100
AcDbEntity
8
0
100
AcDbCircle
10
-22.138781095278102
20
19.119521132242149
30
0
40
0.25000000000000355
210
0
220
0
230
1
100
AcDbArc
50
180
51
270
0
LINE
5
598
100
AcDbEntity
8
0
100
AcDbLine
10
-10.235207552598853
20
12.37452113224214
30
0
11
-16.435207552598847
21
12.37452113224214
31
0
0
LINE
5
599
100
AcDbEntity
8
0
100
AcDbLine
10
-23.185207552598889
20
12.922115269987886
30
0
11
-23.185207552598897
21
13.389521132242137
31
0
0
LINE
5
600
100
AcDbEntity
8
0
100
AcDbLine
10
-21.569219143760321
20
18.869521132242145
30
0
11
-22.138781095278102
21
18.869521132242145
31
0
0
LINE
5
601
100
AcDbEntity
8
0
100
AcDbLine
10
-23.185207552598889
20
-6.1278847300121093
30
0
11
-23.185207552598897
21
-5.6604788677578588
31
0
0
LINE
5
602
100
AcDbEntity
8
0
100
AcDbLine
10
-10.235207552598853
20
-6.6754788677578603
30
0
11
-16.435207552598847
21
-6.6754788677578603
31
0
0
LINE
5
603
100
AcDbEntity
8
0
100
AcDbLine
10
-13.855783395933612
20
3.3245211646971895
30
0
11
-12.132206227522397
21
3.3245211322421464
31
0
0
LINE
5
604
100
AcDbEntity
8
0
100
AcDbLine
10
-21.569219143760307
20
-5.4104788677578615
30
0
11
-21.665207552598886
21
-5.4104788677578597
31
0
0
ARC
5
605
100
AcDbEntity
8
0
100
AcDbCircle
10
-23.98199432393848
20
-6.6898062912804352
30
0
40
0.97500000000000264
210
0
220
0
230
1
100
AcDbArc
50
-168.8592116387448
51
35.192812638647439
0
LINE
5
606
100
AcDbEntity
8
0
100
AcDbLine
10
-17.408781095278066
20
4.1145211322421442
30
0
11
-16.138781095278063
21
4.1145211322421442
31
0
0
LINE
5
607
100
AcDbEntity
8
0
100
AcDbLine
10
-22.935207552598893
20
-5.4104788677578615
30
0
11
-21.665207552598886
21
-5.4104788677578597
31
0
0
LINE
5
608
100
AcDbEntity
8
0
100
AcDbLine
10
-22.388781095278105
20
0.06952113224215184
30
0
11
-22.388781095278105
21
2.5995211322421441
31
0
0
SPLINE
5
609
100
AcDbEntity
8
0
100
AcDbSpline
70
4
71
2
72
6
73
3
74
0
42
0.000000001
43
0.0000000001
44
0.0000000001
40
-0.97572710622643788
40
-0.97572710622643788
40
-0.97572710622643788
40
-0.54807034639085228
40
-0.54807034639085228
40
-0.54807034639085228
41
1
41
1
41
1
10
-24.938620800577862
20
-6.8781962702934489
30
0
10
-25.029480084675022
20
-6.4839753004424017
30
0
10
-25.218205230337833
20
-6.2004788677578588
30
0
0
ARC
5
610
100
AcDbEntity
8
0
100
AcDbCircle
10
-17.504769504116638
20
4.3645211322421567
30
0
40
0.25000000000001243
210
0
220
0
230
1
100
AcDbArc
50
180
51
269.99999999999511
0
LINE
5
611
100
AcDbEntity
8
0
100
AcDbLine
10
-21.319219143760311
20
-2.480478867757856
30
0
11
-21.3192191437603
21
-5.1604788677578632
31
0
0
LINE
5
612
100
AcDbEntity
8
0
100
AcDbLine
10
-15.888781095278057
20
3.8645211322421447
30
0
11
-15.888781095278057
21
3.397115269987887
31
0
0
ARC
5
613
100
AcDbEntity
8
0
100
AcDbCircle
10
-12.132206227522362
20
3.9995211322413282
30
0
40
0.67499999999918181
210
0
220
0
230
1
100
AcDbArc
50
269.99999999999699
51
274.48715581669285
0
ARC
5
614
100
AcDbEntity
8
0
100
AcDbCircle
10
-22.638781095278098
20
2.5995211322421441
30
0
40
0.24999999999999467
210
0
220
0
230
1
100
AcDbArc
50
0
51
90.000000000002444
0
ARC
5
615
100
AcDbEntity
8
0
100
AcDbCircle
10
-22.138781095278102
20
0.06952113224215184
30
0
40
0.25000000000000355
210
0
220
0
230
1
100
AcDbArc
50
180
51
270
0
LINE
5
616
100
AcDbEntity
8
0
100
AcDbLine
10
-17.504769504116659
20
4.1145211322421442
30
0
11
-17.408781095278066
21
4.1145211322421442
31
0
0
LINE
5
617
100
AcDbEntity
8
0
100
AcDbLine
10
-21.569219143760321
20
-0.18047886775784949
30
0
11
-22.138781095278102
21
-0.18047886775785171
31
0
0
ARC
5
618
100
AcDbEntity
8
0
100
AcDbCircle
10
-16.435207552598854
20
-6.9254788677578549
30
0
40
0.24999999999999467
210
0
220
-0
230
1
100
AcDbArc
50
89.99999999999838
51
180
0
LINE
5
619
100
AcDbEntity
8
0
100
AcDbLine
10
-10.235207552598853
20
-6.6754788677578603
30
0
11
-9.7887810952780985
21
-6.6754788677578603
31
0
0
SPLINE
5
620
100
AcDbEntity
8
0
100
AcDbSpline
70
0
71
3
72
10
73
6
74
0
42
0.000000001
43
0.0000000001
44
0.0000000001
40
0.086443474892683406
40
0.086443474892683406
40
0.086443474892683406
40
0.086443474892683406
40
0.10813737773055074
40
0.10813737773055074
40
0.16022954248518984
40
0.16022954248518984
40
0.16022954248518984
40
0.16022954248518984
10
-13.855783395933612
20
3.3245211646971895
30
0
10
-13.895537929260806
20
3.2648032730764442
30
0
10
-13.931379904917289
20
3.2023854789659167
30
0
10
-14.041019552458174
20
2.9822285451024944
30
0
10
-14.096378630930078
20
2.8159704455075762
30
0
10
-14.135367847299296
20
2.646803729705629
30
0
0
ARC
5
621
100
AcDbEntity
8
0
100
AcDbCircle
10
-21.569219143760307
20
-5.1604788677578632
30
0
40
0.24999999999999911
210
-0
220
0
230
1
100
AcDbArc
50
-90
51
0
0
ARC
5
622
100
AcDbEntity
8
0
100
AcDbCircle
10
-16.138781095278063
20
3.8645211322421402
30
0
40
0.25000000000000355
210
0
220
-0
230
1
100
AcDbArc
50
0
51
90
0
ARC
5
623
100
AcDbEntity
8
0
100
AcDbCircle
10
-21.569219143760332
20
18.619521132242134
30
0
40
0.25000000000001243
210
0
220
-0
230
1
100
AcDbArc
50
0
51
89.999999999997556
0
ARC
5
624
100
AcDbEntity
8
0
100
AcDbCircle
10
-3.8852075525988905
20
-15.18547886775786
30
0
40
0.25000000000000355
210
0
220
-0
230
1
100
AcDbArc
50
90
51
180
0
ARC
5
625
100
AcDbEntity
8
0
100
AcDbCircle
10
-2.5192191437603295
20
-9.9554788677578578
30
0
40
0.25000000000001243
210
0
220
-0
230
1
100
AcDbArc
50
0
51
89.999999999997954
0
LINE
5
626
100
AcDbEntity
8
0
100
AcDbLine
10
2.3647924474011561
20
-21.403478867757872
30
0
11
2.3647924474011561
21
-23.933478867757863
31
0
0
LINE
5
627
100
AcDbEntity
8
0
100
AcDbLine
10
-2.2692191437603082
20
-12.005478867757855
30
0
11
-2.2692191437602993
21
-14.685478867757862
31
0
0
ARC
5
628
100
AcDbEntity
8
0
100
AcDbCircle
10
9.0380056760615197
20
-11.452306291280445
30
0
40
2.1249999999999938
210
0
220
0
230
1
100
AcDbArc
50
-193.3704017693361
51
13.370401769336052
0
LINE
5
629
100
AcDbEntity
8
0
100
AcDbLine
10
-4.1352075525988852
20
-15.652884730012104
30
0
11
-4.1352075525988941
21
-15.185478867757855
31
0
0
LINE
5
630
100
AcDbEntity
8
0
100
AcDbLine
10
-2.5192191437603206
20
-9.7054788677578472
30
0
11
-3.0887810952780992
21
-9.7054788677578507
31
0
0
LINE
5
631
100
AcDbEntity
8
0
100
AcDbLine
10
5.1942166040663924
20
-10.962978835302817
30
0
11
6.9177937724776069
21
-10.962978867757865
31
0
0
ARC
5
632
100
AcDbEntity
8
0
100
AcDbCircle
10
1.5452304958833651
20
-9.9229788677578501
30
0
40
0.25000000000001243
210
0
220
0
230
1
100
AcDbArc
50
180
51
269.99999999999591
0
LINE
5
633
100
AcDbEntity
8
0
100
AcDbLine
10
11.158217579645441
20
-10.962978867757865
30
0
11
12.881794769662173
21
-10.962978867757865
31
0
0
ARC
5
634
100
AcDbEntity
8
0
100
AcDbCircle
10
3.9580056760615379
20
-11.452306291280445
30
0
40
0.97500000000000087
210
0
220
0
230
1
100
AcDbArc
50
144.80718736135256
51
348.85921163868932
0
ARC
5
635
100
AcDbEntity
8
0
100
AcDbCircle
10
11.158217579645406
20
-10.287978867758682
30
0
40
0.67499999999918192
210
0
220
0
230
1
100
AcDbArc
50
265.51284418330715
51
270.00000000000301
0
SPLINE
5
636
100
AcDbEntity
8
0
100
AcDbSpline
70
0
71
3
72
10
73
6
74
0
42
0.000000001
43
0.0000000001
44
0.0000000001
40
0.086443474892683406
40
0.086443474892683406
40
0.086443474892683406
40
0.086443474892683406
40
0.10813737773055074
40
0.10813737773055074
40
0.16022954248518984
40
0.16022954248518984
40
0.16022954248518984
40
0.16022954248518984
10
5.1942166040663924
20
-10.962978835302817
30
0
10
5.1544620707391982
20
-11.022696726923567
30
0
10
5.118620095082715
20
-11.085114521034093
30
0
10
5.0089804475418305
20
-11.305271454897516
30
0
10
4.9536213690699267
20
-11.471529554492431
30
0
10
4.9146321527007082
20
-11.640696270294377
30
0
0
ARC
5
637
100
AcDbEntity
8
0
100
AcDbCircle
10
-2.5192191437603029
20
-14.685478867757862
30
0
40
0.24999999999999467
210
-0
220
0
230
1
100
AcDbArc
50
-90
51
0
0
LINE
5
638
100
AcDbEntity
8
0
100
AcDbLine
10
-2.5192191437603029
20
-14.935478867757856
30
0
11
-2.6152075525988838
21
-14.935478867757856
31
0
0
LINE
5
639
100
AcDbEntity
8
0
100
AcDbLine
10
-3.8852075525988905
20
-14.935478867757856
30
0
11
-2.6152075525988838
21
-14.935478867757856
31
0
0
ARC
5
640
100
AcDbEntity
8
0
100
AcDbCircle
10
-3.0887810952780992
20
-9.4554788677578472
30
0
40
0.25000000000000355
210
0
220
0
230
1
100
AcDbArc
50
180
51
270
0
LINE
5
641
100
AcDbEntity
8
0
100
AcDbLine
10
1.6412189047219372
20
-10.172978867757863
30
0
11
2.9112189047219439
21
-10.172978867757866
31
0
0
ARC
5
642
100
AcDbEntity
8
0
100
AcDbCircle
10
2.9112189047219439
20
-10.42297886775787
30
0
40
0.25000000000000355
210
0
220
-0
230
1
100
AcDbArc
50
0
51
90
0
LINE
5
643
100
AcDbEntity
8
0
100
AcDbLine
10
1.5452304958833474
20
-10.172978867757863
30
0
11
1.6412189047219372
21
-10.172978867757863
31
0
0
LINE
5
644
100
AcDbEntity
8
0
100
AcDbLine
10
3.1612189047219474
20
-10.422978867757866
30
0
11
3.1612189047219474
21
-10.890384730012119
31
0
0
LINE
5
645
100
AcDbEntity
8
0
100
AcDbLine
10
-2.2692191437603082
20
-12.005478867757855
30
0
11
-2.2692191437603171
21
-9.9554788677578454
31
0
0
ARC
5
646
100
AcDbEntity
8
0
100
AcDbCircle
10
2.6147924474011508
20
-21.403478867757872
30
0
40
0.24999999999999467
210
0
220
-0
230
1
100
AcDbArc
50
89.999999999997954
51
180
0
ARC
5
647
100
AcDbEntity
8
0
100
AcDbCircle
10
1.5452304958833651
20
-29.16347886775786
30
0
40
0.25000000000001243
210
0
220
0
230
1
100
AcDbArc
50
180
51
269.99999999999591
0
ARC
5
648
100
AcDbEntity
8
0
100
AcDbCircle
10
-45.991782420354603
20
-5.5254788677586824
30
0
40
0.67499999999918192
210
0
220
0
230
1
100
AcDbArc
50
265.51284418330698
51
270.00000000000301
0
ARC
5
649
100
AcDbEntity
8
0
100
AcDbCircle
10
-43.031994323938491
20
-6.6898062912804406
30
0
40
0.97500000000000264
210
0
220
0
230
1
100
AcDbArc
50
-168.85921163874494
51
35.192812638647439
0
LINE
5
650
100
AcDbEntity
8
0
100
AcDbLine
10
-40.369219143760319
20
-2.4804788677578604
30
0
11
-40.369219143760311
21
-5.1604788677578668
31
0
0
LINE
5
651
100
AcDbEntity
8
0
100
AcDbLine
10
-54.785207552598862
20
2.5995211322421397
30
0
11
-54.785207552598862
21
0.069521132242147399
31
0
0
LINE
5
652
100
AcDbEntity
8
0
100
AcDbLine
10
-48.335207552598867
20
2.8495211322421299
30
0
11
-47.888781095278112
21
2.8495211322421343
31
0
0
LINE
5
653
100
AcDbEntity
8
0
100
AcDbLine
10
-55.854769504116661
20
-2.4804788677578604
30
0
11
-55.854769504116668
21
-5.1604788677578632
31
0
0
LINE
5
654
100
AcDbEntity
8
0
100
AcDbLine
10
-55.035207552598862
20
-0.18047886775785615
30
0
11
-55.604769504116646
21
-0.18047886775785171
31
0
0
ARC
5
655
100
AcDbEntity
8
0
100
AcDbCircle
10
-54.238781095278071
20
-5.6604788677578703
30
0
40
0.25000000000000355
210
0
220
-0
230
1
100
AcDbArc
50
0
51
90
0
ARC
5
656
100
AcDbEntity
8
0
100
AcDbCircle
10
-54.53520755259887
20
2.5995211322421397
30
0
40
0.24999999999999467
210
0
220
-0
230
1
100
AcDbArc
50
89.99999999999838
51
180
0
LINE
5
657
100
AcDbEntity
8
0
100
AcDbLine
10
-55.604769504116675
20
-5.4104788677578615
30
0
11
-55.508781095278081
21
-5.4104788677578615
31
0
0
LINE
5
658
100
AcDbEntity
8
0
100
AcDbLine
10
-55.508781095278081
20
-5.4104788677578615
30
0
11
-54.238781095278071
21
-5.4104788677578668
31
0
0
LINE
5
659
100
AcDbEntity
8
0
100
AcDbLine
10
-51.955783395933622
20
-6.2004788353028157
30
0
11
-50.232206227522411
21
-6.2004788677578642
31
0
0
ARC
5
660
100
AcDbEntity
8
0
100
AcDbCircle
10
-41.688781095278109
20
2.5995211322421397
30
0
40
0.24999999999999467
210
0
220
0
230
1
100
AcDbArc
50
0
51
90.000000000001634
0
ARC
5
661
100
AcDbEntity
8
0
100
AcDbCircle
10
-50.232206227522376
20
-5.5254788677586824
30
0
40
0.67499999999918181
210
0
220
0
230
1
100
AcDbArc
50
269.99999999999699
51
274.48715581669302
0
LINE
5
662
100
AcDbEntity
8
0
100
AcDbLine
10
-48.335207552598867
20
2.8495211322421299
30
0
11
-54.535207552598862
21
2.8495211322421343
31
0
0
ARC
5
663
100
AcDbEntity
8
0
100
AcDbCircle
10
-54.238781095278071
20
13.389521132242127
30
0
40
0.25000000000000355
210
0
220
-0
230
1
100
AcDbArc
50
0
51
90
0
ARC
5
664
100
AcDbEntity
8
0
100
AcDbCircle
10
-40.619219143760319
20
13.889521132242129
30
0
40
0.24999999999999911
210
-0
220
0
230
1
100
AcDbArc
50
-90
51
0
0
LINE
5
665
100
AcDbEntity
8
0
100
AcDbLine
10
-40.619219143760333
20
-0.18047886775785393
30
0
11
-41.188781095278117
21
-0.18047886775785615
31
0
0
ARC
5
666
100
AcDbEntity
8
0
100
AcDbCircle
10
-45.991782420354603
20
13.524521132241315
30
0
40
0.67499999999918192
210
0
220
0
230
1
100
AcDbArc
50
265.51284418330698
51
270.00000000000301
0
LINE
5
667
100
AcDbEntity
8
0
100
AcDbLine
10
-42.235207552598901
20
12.922115269987881
30
0
11
-42.235207552598908
21
13.389521132242132
31
0
0
ARC
5
668
100
AcDbEntity
8
0
100
AcDbCircle
10
-41.188781095278117
20
19.119521132242141
30
0
40
0.25000000000000355
210
0
220
0
230
1
100
AcDbArc
50
180
51
270
0
LINE
5
669
100
AcDbEntity
8
0
100
AcDbLine
10
-45.991782420354568
20
12.849521132242131
30
0
11
-44.268205230337834
21
12.849521132242131
31
0
0
LINE
5
670
100
AcDbEntity
8
0
100
AcDbLine
10
-40.619219143760333
20
18.869521132242141
30
0
11
-41.188781095278117
21
18.869521132242141
31
0
0
LINE
5
671
100
AcDbEntity
8
0
100
AcDbLine
10
-40.369219143760319
20
16.569521132242137
30
0
11
-40.369219143760311
21
13.889521132242129
31
0
0
ARC
5
672
100
AcDbEntity
8
0
100
AcDbCircle
10
-40.619219143760347
20
18.619521132242131
30
0
40
0.25000000000001243
210
0
220
-0
230
1
100
AcDbArc
50
0
51
89.999999999996746
0
LINE
5
673
100
AcDbEntity
8
0
100
AcDbLine
10
-41.985207552598908
20
13.63952113224213
30
0
11
-40.715207552598898
21
13.639521132242132
31
0
0
LINE
5
674
100
AcDbEntity
8
0
100
AcDbLine
10
-40.369219143760319
20
16.569521132242137
30
0
11
-40.369219143760333
21
18.619521132242141
31
0
0
ARC
5
675
100
AcDbEntity
8
0
100
AcDbCircle
10
-41.985207552598908
20
13.389521132242127
30
0
40
0.25000000000000355
210
0
220
-0
230
1
100
AcDbArc
50
90
51
180
0
LINE
5
676
100
AcDbEntity
8
0
100
AcDbLine
10
-40.619219143760319
20
13.63952113224213
30
0
11
-40.715207552598898
21
13.639521132242132
31
0
0
LINE
5
677
100
AcDbEntity
8
0
100
AcDbLine
10
-40.369219143760319
20
-2.4804788677578604
30
0
11
-40.369219143760333
21
-0.43047886775785527
31
0
0
SPLINE
5
678
100
AcDbEntity
8
0
100
AcDbSpline
70
4
71
2
72
6
73
3
74
0
42
0.000000001
43
0.0000000001
44
0.0000000001
40
-0.97572710622643788
40
-0.97572710622643788
40
-0.97572710622643788
40
-0.54807034639085228
40
-0.54807034639085228
40
-0.54807034639085228
41
1
41
1
41
1
10
-43.988620800577877
20
12.171803729706543
30
0
10
-44.079480084675033
20
12.566024699557589
30
0
10
-44.268205230337841
20
12.849521132242131
30
0
0
ARC
5
679
100
AcDbEntity
8
0
100
AcDbCircle
10
-43.031994323938491
20
12.360193708719557
30
0
40
0.97500000000000264
210
0
220
0
230
1
100
AcDbArc
50
-168.85921163874488
51
35.192812638647354
0
ARC
5
680
100
AcDbEntity
8
0
100
AcDbCircle
10
-55.604769504116632
20
18.619521132242131
30
0
40
0.25000000000001465
210
0
220
0
230
1
100
AcDbArc
50
90.000000000003254
51
180
0
ARC
5
681
100
AcDbEntity
8
0
100
AcDbCircle
10
-50.232206227522376
20
13.524521132241315
30
0
40
0.67499999999918181
210
0
220
0
230
1
100
AcDbArc
50
269.99999999999699
51
274.48715581669302
0
LINE
5
682
100
AcDbEntity
8
0
100
AcDbLine
10
-51.955783395933622
20
12.84952116469718
30
0
11
-50.232206227522411
21
12.849521132242131
31
0
0
LINE
5
683
100
AcDbEntity
8
0
100
AcDbLine
10
-53.988781095278071
20
13.389521132242132
30
0
11
-53.988781095278071
21
12.922115269987875
31
0
0
LINE
5
684
100
AcDbEntity
8
0
100
AcDbLine
10
-55.508781095278081
20
13.639521132242134
30
0
11
-54.238781095278071
21
13.63952113224213
31
0
0
SPLINE
5
685
100
AcDbEntity
8
0
100
AcDbSpline
70
0
71
3
72
10
73
6
74
0
42
0.000000001
43
0.0000000001
44
0.0000000001
40
0.086443474892683406
40
0.086443474892683406
40
0.086443474892683406
40
0.086443474892683406
40
0.10813737773055074
40
0.10813737773055074
40
0.16022954248518984
40
0.16022954248518984
40
0.16022954248518984
40
0.16022954248518984
10
-51.955783395933622
20
12.84952116469718
30
0
10
-51.99553792926082
20
12.789803273076432
30
0
10
-52.031379904917301
20
12.727385478965903
30
0
10
-52.141019552458189
20
12.507228545102482
30
0
10
-52.196378630930091
20
12.340970445507564
30
0
10
-52.235367847299308
20
12.171803729705617
30
0
0
LINE
5
686
100
AcDbEntity
8
0
100
AcDbLine
10
-55.854769504116661
20
16.569521132242137
30
0
11
-55.854769504116668
21
13.889521132242134
31
0
0
ARC
5
687
100
AcDbEntity
8
0
100
AcDbCircle
10
6.9177937724776424
20
-10.287978867758682
30
0
40
0.67499999999918181
210
0
220
0
230
1
100
AcDbArc
50
269.99999999999699
51
274.48715581669285
0
ARC
5
688
100
AcDbEntity
8
0
100
AcDbCircle
10
-53.191994323938481
20
12.360193708719549
30
0
40
0.97500000000000087
210
0
220
0
230
1
100
AcDbArc
50
144.80718736135256
51
348.8592116386892
0
LINE
5
689
100
AcDbEntity
8
0
100
AcDbLine
10
-55.854769504116646
20
18.619521132242141
30
0
11
-55.854769504116661
21
16.569521132242137
31
0
0
LINE
5
690
100
AcDbEntity
8
0
100
AcDbLine
10
-22.638781095278109
20
2.8495211322421388
30
0
11
-28.838781095278101
21
2.8495211322421388
31
0
0
ARC
5
691
100
AcDbEntity
8
0
100
AcDbCircle
10
-55.604769504116653
20
13.889521132242146
30
0
40
0.25000000000001243
210
0
220
0
230
1
100
AcDbArc
50
180
51
269.99999999999511
0
ARC
5
692
100
AcDbEntity
8
0
100
AcDbCircle
10
-48.11199432393849
20
12.360193708719549
30
0
40
2.1250000000000031
210
0
220
0
230
1
100
AcDbArc
50
-193.3704017693361
51
13.370401769336105
0
LINE
5
693
100
AcDbEntity
8
0
100
AcDbLine
10
-55.035207552598862
20
18.869521132242141
30
0
11
-55.604769504116646
21
18.869521132242145
31
0
0
LINE
5
694
100
AcDbEntity
8
0
100
AcDbLine
10
-26.941782420354556
20
-6.2004788677578588
30
0
11
-25.218205230337823
21
-6.2004788677578588
31
0
0
LINE
5
695
100
AcDbEntity
8
0
100
AcDbLine
10
-55.604769504116675
20
13.639521132242134
30
0
11
-55.508781095278081
21
13.639521132242134
31
0
0
ARC
5
696
100
AcDbEntity
8
0
100
AcDbCircle
10
-55.035207552598862
20
19.119521132242141
30
0
40
0.25000000000000355
210
-0
220
0
230
1
100
AcDbArc
50
-90
51
0
0
LINE
5
697
100
AcDbEntity
8
0
100
AcDbLine
10
-26.941782420354556
20
12.849521132242137
30
0
11
-25.218205230337823
21
12.849521132242137
31
0
0
ARC
5
698
100
AcDbEntity
8
0
100
AcDbCircle
10
53.264792447401106
20
-17.66197886775786
30
0
40
0.25000000000000355
210
0
220
-0
230
1
100
AcDbArc
50
90
51
180
0
ARC
5
699
100
AcDbEntity
8
0
100
AcDbCircle
10
52.218005676061523
20
-18.691306291280434
30
0
40
0.97500000000000364
210
0
220
0
230
1
100
AcDbArc
50
-168.85921163874465
51
35.192812638647354
0
ARC
5
700
100
AcDbEntity
8
0
100
AcDbCircle
10
41.011218904721936
20
-17.66197886775786
30
0
40
0.25000000000000355
210
0
220
-0
230
1
100
AcDbArc
50
0
51
90
0
LINE
5
701
100
AcDbEntity
8
0
100
AcDbLine
10
39.395230495883368
20
-12.431978867757847
30
0
11
39.395230495883354
21
-14.481978867757856
31
0
0
LINE
5
702
100
AcDbEntity
8
0
100
AcDbLine
10
49.258217579645446
20
-18.201978867757859
30
0
11
50.981794769662173
21
-18.201978867757859
31
0
0
SPLINE
5
703
100
AcDbEntity
8
0
100
AcDbSpline
70
4
71
2
72
6
73
3
74
0
42
0.000000001
43
0.0000000001
44
0.0000000001
40
-0.97572710622643788
40
-0.97572710622643788
40
-0.97572710622643788
40
-0.54807034639085228
40
-0.54807034639085228
40
-0.54807034639085228
41
1
41
1
41
1
10
51.261379199422137
20
-18.879696270293451
30
0
10
51.170519915324981
20
-18.485475300442403
30
0
10
50.981794769662166
20
-18.201978867757859
30
0
0
ARC
5
704
100
AcDbEntity
8
0
100
AcDbCircle
10
42.058005676061534
20
-18.691306291280444
30
0
40
0.97500000000000087
210
0
220
0
230
1
100
AcDbArc
50
144.80718736135248
51
348.8592116386892
0
LINE
5
705
100
AcDbEntity
8
0
100
AcDbLine
10
39.645230495883339
20
-17.41197886775786
30
0
11
39.741218904721933
21
-17.41197886775786
31
0
0
ARC
5
706
100
AcDbEntity
8
0
100
AcDbCircle
10
54.630780856239696
20
-17.161978867757863
30
0
40
0.24999999999999467
210
-0
220
0
230
1
100
AcDbArc
50
-90
51
0
0
ARC
5
707
100
AcDbEntity
8
0
100
AcDbCircle
10
54.630780856239667
20
-12.431978867757865
30
0
40
0.25000000000001243
210
0
220
-0
230
1
100
AcDbArc
50
0
51
89.999999999996746
0
ARC
5
708
100
AcDbEntity
8
0
100
AcDbCircle
10
49.258217579645411
20
-17.526978867758672
30
0
40
0.67499999999918414
210
0
220
0
230
1
100
AcDbArc
50
265.51284418330704
51
270.00000000000301
0
ARC
5
709
100
AcDbEntity
8
0
100
AcDbCircle
10
47.138005676061525
20
-18.691306291280444
30
0
40
2.1250000000000036
210
0
220
0
230
1
100
AcDbArc
50
-193.37040176933621
51
13.370401769336217
0
LINE
5
710
100
AcDbEntity
8
0
100
AcDbLine
10
54.880780856239689
20
-14.481978867757856
30
0
11
54.880780856239681
21
-12.431978867757847
31
0
0
LINE
5
711
100
AcDbEntity
8
0
100
AcDbLine
10
54.630780856239681
20
-12.181978867757852
30
0
11
54.061218904721898
21
-12.181978867757852
31
0
0
LINE
5
712
100
AcDbEntity
8
0
100
AcDbLine
10
53.561218904721891
20
-9.1519788677578617
30
0
11
47.361218904721902
21
-9.1519788677578617
31
0
0
LINE
5
713
100
AcDbEntity
8
0
100
AcDbLine
10
41.261218904721943
20
-17.66197886775786
30
0
11
41.261218904721943
21
-18.129384730012116
31
0
0
LINE
5
714
100
AcDbEntity
8
0
100
AcDbLine
10
53.014792447401113
20
-18.129384730012109
30
0
11
53.014792447401106
21
-17.66197886775786
31
0
0
LINE
5
715
100
AcDbEntity
8
0
100
AcDbLine
10
39.741218904721933
20
-17.41197886775786
30
0
11
41.011218904721936
21
-17.41197886775786
31
0
0
SPLINE
5
716
100
AcDbEntity
8
0
100
AcDbSpline
70
0
71
3
72
10
73
6
74
0
42
0.000000001
43
0.0000000001
44
0.0000000001
40
0.086443474892683406
40
0.086443474892683406
40
0.086443474892683406
40
0.086443474892683406
40
0.10813737773055074
40
0.10813737773055074
40
0.16022954248518984
40
0.16022954248518984
40
0.16022954248518984
40
0.16022954248518984
10
43.294216604066385
20
-18.201978835302814
30
0
10
43.254462070739194
20
-18.26169672692356
30
0
10
43.218620095082713
20
-18.324114521034087
30
0
10
43.108980447541825
20
-18.544271454897508
30
0
10
43.053621369069923
20
-18.710529554492428
30
0
10
43.014632152700699
20
-18.879696270294374
30
0
0
LINE
5
717
100
AcDbEntity
8
0
100
AcDbLine
10
53.264792447401106
20
-17.41197886775786
30
0
11
54.534792447401117
21
-17.41197886775786
31
0
0
ARC
5
718
100
AcDbEntity
8
0
100
AcDbCircle
10
40.214792447401145
20
-11.931978867757849
30
0
40
0.25000000000000355
210
-0
220
0
230
1
100
AcDbArc
50
-90
51
0
0
ARC
5
719
100
AcDbEntity
8
0
100
AcDbCircle
10
45.017793772477638
20
-17.526978867758672
30
0
40
0.67499999999918403
210
0
220
0
230
1
100
AcDbArc
50
269.99999999999699
51
274.48715581669296
0
ARC
5
720
100
AcDbEntity
8
0
100
AcDbCircle
10
39.645230495883361
20
-17.161978867757846
30
0
40
0.25000000000001243
210
0
220
0
230
1
100
AcDbArc
50
180
51
269.99999999999511
0
LINE
5
721
100
AcDbEntity
8
0
100
AcDbLine
10
43.294216604066385
20
-18.201978835302814
30
0
11
45.017793772477603
21
-18.201978867757859
31
0
0
ARC
5
722
100
AcDbEntity
8
0
100
AcDbCircle
10
33.168005676061519
20
-16.214806291280432
30
0
40
0.97500000000000364
210
0
220
0
230
1
100
AcDbArc
50
-168.85921163874457
51
35.192812638647517
0
LINE
5
723
100
AcDbEntity
8
0
100
AcDbLine
10
21.414792447401148
20
-26.165978867757865
30
0
11
21.414792447401148
21
-28.695978867757859
31
0
0
SPLINE
5
724
100
AcDbEntity
8
0
100
AcDbSpline
70
0
71
3
72
10
73
6
74
0
42
0.000000001
43
0.0000000001
44
0.0000000001
40
0.086443474892683406
40
0.086443474892683406
40
0.086443474892683406
40
0.086443474892683406
40
0.10813737773055074
40
0.10813737773055074
40
0.16022954248518984
40
0.16022954248518984
40
0.16022954248518984
40
0.16022954248518984
10
24.244216604066384
20
-15.725478835302811
30
0
10
24.20446207073919
20
-15.785196726923555
30
0
10
24.168620095082709
20
-15.847614521034084
30
0
10
24.058980447541821
20
-16.067771454897507
30
0
10
24.003621369069919
20
-16.234029554492423
30
0
10
23.964632152700702
20
-16.403196270294373
30
0
0
LINE
5
725
100
AcDbEntity
8
0
100
AcDbLine
10
24.244216604066384
20
-15.725478835302811
30
0
11
25.967793772477599
21
-15.725478867757854
31
0
0
LINE
5
726
100
AcDbEntity
8
0
100
AcDbLine
10
20.345230495883364
20
-29.195978867757859
30
0
11
20.345230495883353
21
-31.245978867757866
31
0
0
ARC
5
727
100
AcDbEntity
8
0
100
AcDbCircle
10
14.11800567606152
20
-30.692806291280448
30
0
40
0.97500000000000364
210
0
220
0
230
1
100
AcDbArc
50
-168.85921163874465
51
35.192812638647183
0
LINE
5
728
100
AcDbEntity
8
0
100
AcDbLine
10
16.530780856239694
20
-29.413478867757878
30
0
11
16.434792447401112
21
-29.413478867757874
31
0
0
LINE
5
729
100
AcDbEntity
8
0
100
AcDbLine
10
34.214792447401109
20
-14.935478867757856
30
0
11
35.484792447401112
21
-14.935478867757856
31
0
0
LINE
5
730
100
AcDbEntity
8
0
100
AcDbLine
10
15.164792447401105
20
-29.413478867757878
30
0
11
16.434792447401112
21
-29.413478867757874
31
0
0
ARC
5
731
100
AcDbEntity
8
0
100
AcDbCircle
10
20.595230495883374
20
-29.195978867757869
30
0
40
0.25000000000001688
210
0
220
0
230
1
100
AcDbArc
50
90.000000000002444
51
180
0
ARC
5
732
100
AcDbEntity
8
0
100
AcDbCircle
10
15.961218904721896
20
-23.933478867757863
30
0
40
0.25000000000000355
210
0
220
0
230
1
100
AcDbArc
50
180
51
270
0
ARC
5
733
100
AcDbEntity
8
0
100
AcDbCircle
10
28.08800567606152
20
-16.214806291280439
30
0
40
2.1250000000000036
210
0
220
0
230
1
100
AcDbArc
50
-193.37040176933621
51
13.370401769336217
0
ARC
5
734
100
AcDbEntity
8
0
100
AcDbCircle
10
23.008005676061529
20
-16.214806291280439
30
0
40
0.97500000000000087
210
0
220
0
230
1
100
AcDbArc
50
144.80718736135256
51
348.85921163868932
0
ARC
5
735
100
AcDbEntity
8
0
100
AcDbCircle
10
20.595230495883357
20
-33.925978867757856
30
0
40
0.25000000000001243
210
0
220
0
230
1
100
AcDbArc
50
180
51
269.99999999999591
0
LINE
5
736
100
AcDbEntity
8
0
100
AcDbLine
10
27.864792447401143
20
-6.6754788677578603
30
0
11
21.664792447401151
21
-6.6754788677578603
31
0
0
LINE
5
737
100
AcDbEntity
8
0
100
AcDbLine
10
35.830780856239684
20
-12.005478867757855
30
0
11
35.830780856239699
21
-14.685478867757862
31
0
0
LINE
5
738
100
AcDbEntity
8
0
100
AcDbLine
10
20.345230495883353
20
-31.245978867757866
30
0
11
20.345230495883342
21
-33.925978867757863
31
0
0
LINE
5
739
100
AcDbEntity
8
0
100
AcDbLine
10
35.580780856239677
20
-9.7054788677578472
30
0
11
35.0112189047219
21
-9.7054788677578507
31
0
0
ARC
5
740
100
AcDbEntity
8
0
100
AcDbCircle
10
21.66479244740114
20
-26.165978867757865
30
0
40
0.24999999999999467
210
0
220
-0
230
1
100
AcDbArc
50
89.999999999997556
51
180
0
LINE
5
741
100
AcDbEntity
8
0
100
AcDbLine
10
35.830780856239684
20
-12.005478867757855
30
0
11
35.830780856239677
21
-9.9554788677578454
31
0
0
ARC
5
742
100
AcDbEntity
8
0
100
AcDbCircle
10
35.0112189047219
20
-9.4554788677578472
30
0
40
0.25000000000000355
210
0
220
0
230
1
100
AcDbArc
50
180
51
270
0
ARC
5
743
100
AcDbEntity
8
0
100
AcDbCircle
10
16.530780856239666
20
-24.433478867757881
30
0
40
0.25000000000001243
210
0
220
-0
230
1
100
AcDbArc
50
0
51
89.999999999997556
0
ARC
5
744
100
AcDbEntity
8
0
100
AcDbCircle
10
15.164792447401105
20
-29.663478867757881
30
0
40
0.25000000000000355
210
0
220
-0
230
1
100
AcDbArc
50
90
51
180
0
LINE
5
745
100
AcDbEntity
8
0
100
AcDbLine
10
21.164792447401144
20
-28.945978867757862
30
0
11
20.595230495883364
21
-28.945978867757852
31
0
0
LINE
5
746
100
AcDbEntity
8
0
100
AcDbLine
10
30.208217579645442
20
-15.725478867757854
30
0
11
31.931794769662176
21
-15.725478867757854
31
0
0
LINE
5
747
100
AcDbEntity
8
0
100
AcDbLine
10
20.595230495883339
20
-34.17597886775787
30
0
11
20.691218904721929
21
-34.17597886775787
31
0
0
LINE
5
748
100
AcDbEntity
8
0
100
AcDbLine
10
22.211218904721939
20
-34.42597886775787
30
0
11
22.211218904721939
21
-34.893384730012123
31
0
0
ARC
5
749
100
AcDbEntity
8
0
100
AcDbCircle
10
21.164792447401144
20
-28.695978867757859
30
0
40
0.25000000000000355
210
-0
220
0
230
1
100
AcDbArc
50
-90
51
0
0
LINE
5
750
100
AcDbEntity
8
0
100
AcDbLine
10
20.691218904721929
20
-34.17597886775787
30
0
11
21.961218904721935
21
-34.17597886775787
31
0
0
LINE
5
751
100
AcDbEntity
8
0
100
AcDbLine
10
14.91479244740111
20
-30.130884730012127
30
0
11
14.914792447401101
21
-29.663478867757878
31
0
0
ARC
5
752
100
AcDbEntity
8
0
100
AcDbCircle
10
16.530780856239694
20
-29.163478867757881
30
0
40
0.24999999999999911
210
-0
220
0
230
1
100
AcDbArc
50
-90
51
0
0
ARC
5
753
100
AcDbEntity
8
0
100
AcDbCircle
10
30.208217579645407
20
-34.290978867758682
30
0
40
0.67499999999918192
210
0
220
0
230
1
100
AcDbArc
50
265.51284418330704
51
270.00000000000301
0
LINE
5
754
100
AcDbEntity
8
0
100
AcDbLine
10
16.780780856239687
20
-26.483478867757874
30
0
11
16.78078085623968
21
-24.43347886775787
31
0
0
SPLINE
5
755
100
AcDbEntity
8
0
100
AcDbSpline
70
4
71
2
72
6
73
3
74
0
42
0.000000001
43
0.0000000001
44
0.0000000001
40
-0.97572710622643788
40
-0.97572710622643788
40
-0.97572710622643788
40
-0.54807034639085228
40
-0.54807034639085228
40
-0.54807034639085228
41
1
41
1
41
1
10
32.21137919942214
20
-35.643696270293461
30
0
10
32.120519915324977
20
-35.249475300442413
30
0
10
31.931794769662165
20
-34.965978867757869
30
0
0
LINE
5
756
100
AcDbEntity
8
0
100
AcDbLine
10
34.511218904721886
20
-25.915978867757872
30
0
11
28.311218904721898
21
-25.915978867757872
31
0
0
LINE
5
757
100
AcDbEntity
8
0
100
AcDbLine
10
33.964792447401109
20
-34.893384730012116
30
0
11
33.964792447401102
21
-34.42597886775787
31
0
0
ARC
5
758
100
AcDbEntity
8
0
100
AcDbCircle
10
34.214792447401109
20
-34.42597886775787
30
0
40
0.25000000000000355
210
0
220
-0
230
1
100
AcDbArc
50
90
51
180
0
ARC
5
759
100
AcDbEntity
8
0
100
AcDbCircle
10
33.168005676061519
20
-35.455306291280444
30
0
40
0.97500000000000364
210
0
220
0
230
1
100
AcDbArc
50
-168.85921163874457
51
35.192812638647517
0
LINE
5
760
100
AcDbEntity
8
0
100
AcDbLine
10
16.780780856239687
20
-26.483478867757874
30
0
11
16.780780856239698
21
-29.163478867757881
31
0
0
ARC
5
761
100
AcDbEntity
8
0
100
AcDbCircle
10
21.961218904721935
20
-34.42597886775787
30
0
40
0.25000000000000355
210
0
220
-0
230
1
100
AcDbArc
50
0
51
90
0
LINE
5
762
100
AcDbEntity
8
0
100
AcDbLine
10
30.208217579645442
20
-34.965978867757869
30
0
11
31.931794769662176
21
-34.965978867757869
31
0
0
LINE
5
763
100
AcDbEntity
8
0
100
AcDbLine
10
35.580780856239691
20
-34.17597886775787
30
0
11
35.484792447401112
21
-34.17597886775787
31
0
0
ARC
5
764
100
AcDbEntity
8
0
100
AcDbCircle
10
35.0112189047219
20
-28.695978867757859
30
0
40
0.25000000000000355
210
0
220
0
230
1
100
AcDbArc
50
180
51
270
0
SPLINE
5
765
100
AcDbEntity
8
0
100
AcDbSpline
70
0
71
3
72
10
73
6
74
0
42
0.000000001
43
0.0000000001
44
0.0000000001
40
0.086443474892683406
40
0.086443474892683406
40
0.086443474892683406
40
0.086443474892683406
40
0.10813737773055074
40
0.10813737773055074
40
0.16022954248518984
40
0.16022954248518984
40
0.16022954248518984
40
0.16022954248518984
10
24.244216604066384
20
-34.96597883530282
30
0
10
24.20446207073919
20
-35.02569672692357
30
0
10
24.168620095082709
20
-35.088114521034093
30
0
10
24.058980447541821
20
-35.308271454897515
30
0
10
24.003621369069919
20
-35.474529554492435
30
0
10
23.964632152700702
20
-35.643696270294384
30
0
0
ARC
5
766
100
AcDbEntity
8
0
100
AcDbCircle
10
34.5112189047219
20
-26.165978867757865
30
0
40
0.24999999999999467
210
0
220
0
230
1
100
AcDbArc
50
0
51
90.000000000003254
0
LINE
5
767
100
AcDbEntity
8
0
100
AcDbLine
10
34.214792447401109
20
-34.17597886775787
30
0
11
35.484792447401112
21
-34.17597886775787
31
0
0
LINE
5
768
100
AcDbEntity
8
0
100
AcDbLine
10
27.864792447401143
20
-25.915978867757872
30
0
11
28.311218904721898
21
-25.915978867757872
31
0
0
LINE
5
769
100
AcDbEntity
8
0
100
AcDbLine
10
16.530780856239677
20
-24.18347886775787
30
0
11
15.961218904721896
21
-24.18347886775787
31
0
0
ARC
5
770
100
AcDbEntity
8
0
100
AcDbCircle
10
35.580780856239691
20
-33.925978867757877
30
0
40
0.24999999999999467
210
-0
220
0
230
1
100
AcDbArc
50
-90
51
0
0
LINE
5
771
100
AcDbEntity
8
0
100
AcDbLine
10
24.244216604066384
20
-34.96597883530282
30
0
11
25.967793772477599
21
-34.965978867757869
31
0
0
ARC
5
772
100
AcDbEntity
8
0
100
AcDbCircle
10
35.58078085623967
20
-29.195978867757869
30
0
40
0.25000000000001243
210
0
220
-0
230
1
100
AcDbArc
50
0
51
89.99999999999838
0
ARC
5
773
100
AcDbEntity
8
0
100
AcDbCircle
10
25.967793772477634
20
-34.290978867758682
30
0
40
0.67499999999918181
210
0
220
0
230
1
100
AcDbArc
50
269.99999999999699
51
274.48715581669296
0
ARC
5
774
100
AcDbEntity
8
0
100
AcDbCircle
10
28.08800567606152
20
-35.455306291280451
30
0
40
2.1250000000000036
210
0
220
0
230
1
100
AcDbArc
50
-193.3704017693361
51
13.370401769336105
0
LINE
5
775
100
AcDbEntity
8
0
100
AcDbLine
10
34.761218904721893
20
-28.695978867757859
30
0
11
34.761218904721893
21
-26.165978867757865
31
0
0
LINE
5
776
100
AcDbEntity
8
0
100
AcDbLine
10
40.214792447401145
20
-12.181978867757852
30
0
11
39.645230495883368
21
-12.181978867757843
31
0
0
LINE
5
777
100
AcDbEntity
8
0
100
AcDbLine
10
40.464792447401152
20
-9.4019788677578564
30
0
11
40.464792447401152
21
-11.931978867757849
31
0
0
ARC
5
778
100
AcDbEntity
8
0
100
AcDbCircle
10
40.714792447401145
20
-9.4019788677578564
30
0
40
0.24999999999999467
210
0
220
-0
230
1
100
AcDbArc
50
89.99999999999838
51
180
0
ARC
5
779
100
AcDbEntity
8
0
100
AcDbCircle
10
39.645230495883375
20
-12.431978867757865
30
0
40
0.25000000000002132
210
0
220
0
230
1
100
AcDbArc
50
90.000000000001634
51
180
0
LINE
5
780
100
AcDbEntity
8
0
100
AcDbLine
10
35.830780856239684
20
-31.245978867757866
30
0
11
35.830780856239677
21
-29.195978867757859
31
0
0
ARC
5
781
100
AcDbEntity
8
0
100
AcDbCircle
10
54.061218904721898
20
-11.931978867757849
30
0
40
0.25000000000000355
210
0
220
0
230
1
100
AcDbArc
50
180
51
270
0
ARC
5
782
100
AcDbEntity
8
0
100
AcDbCircle
10
23.008005676061529
20
-35.455306291280451
30
0
40
0.97500000000000087
210
0
220
0
230
1
100
AcDbArc
50
144.80718736135248
51
348.85921163868932
0
LINE
5
783
100
AcDbEntity
8
0
100
AcDbLine
10
46.914792447401148
20
-9.1519788677578617
30
0
11
47.361218904721902
21
-9.1519788677578617
31
0
0
LINE
5
784
100
AcDbEntity
8
0
100
AcDbLine
10
27.864792447401143
20
-25.915978867757872
30
0
11
21.664792447401151
21
-25.915978867757872
31
0
0
LINE
5
785
100
AcDbEntity
8
0
100
AcDbLine
10
53.811218904721898
20
-11.931978867757849
30
0
11
53.811218904721898
21
-9.4019788677578564
31
0
0
LINE
5
786
100
AcDbEntity
8
0
100
AcDbLine
10
15.711218904721893
20
-23.933478867757863
30
0
11
15.711218904721893
21
-21.403478867757872
31
0
0
ARC
5
787
100
AcDbEntity
8
0
100
AcDbCircle
10
53.561218904721898
20
-9.4019788677578564
30
0
40
0.24999999999999467
210
0
220
0
230
1
100
AcDbArc
50
0
51
90.000000000001634
0
LINE
5
788
100
AcDbEntity
8
0
100
AcDbLine
10
35.580780856239677
20
-28.945978867757859
30
0
11
35.0112189047219
21
-28.945978867757862
31
0
0
LINE
5
789
100
AcDbEntity
8
0
100
AcDbLine
10
35.830780856239684
20
-31.245978867757866
30
0
11
35.830780856239699
21
-33.925978867757877
31
0
0
LINE
5
790
100
AcDbEntity
8
0
100
AcDbLine
10
46.914792447401148
20
-9.1519788677578617
30
0
11
40.714792447401152
21
-9.1519788677578617
31
0
0
SPLINE
5
791
100
AcDbEntity
8
0
100
AcDbSpline
70
4
71
2
72
6
73
3
74
0
42
0.000000001
43
0.0000000001
44
0.0000000001
40
-0.97572710622643788
40
-0.97572710622643788
40
-0.97572710622643788
40
-0.54807034639085228
40
-0.54807034639085228
40
-0.54807034639085228
41
1
41
1
41
1
10
72.109576181084336
20
-46.178411767834042
30
0
10
72.159027894898784
20
-45.776889526136557
30
0
10
72.078645758701782
20
-45.445942218955018
30
0
0
ARC
5
792
100
AcDbEntity
8
0
100
AcDbCircle
10
63.525667162469112
20
-42.853643963186052
30
0
40
0.97499999999998854
210
0
220
0
230
1
100
AcDbArc
50
124.80718736135351
51
328.85921163868943
0
SPLINE
5
793
100
AcDbEntity
8
0
100
AcDbSpline
70
4
71
2
72
6
73
3
74
0
42
0.000000001
43
0.0000000001
44
0.0000000001
40
-0.97572710622643788
40
-0.97572710622643788
40
-0.97572710622643788
40
-0.54807034639085228
40
-0.54807034639085228
40
-0.54807034639085228
41
1
41
1
41
1
10
13.161379199422136
20
-30.881196270293465
30
0
10
13.070519915324976
20
-30.48697530044242
30
0
10
12.881794769662164
20
-30.203478867757877
30
0
0
LINE
5
794
100
AcDbEntity
8
0
100
AcDbLine
10
77.014809145977068
20
-43.283817449787477
30
0
11
76.098195161864282
21
-45.802193673493719
31
0
0
SPLINE
5
795
100
AcDbEntity
8
0
100
AcDbSpline
70
4
71
2
72
6
73
3
74
0
42
0.000000001
43
0.0000000001
44
0.0000000001
40
-0.97572710622643788
40
-0.97572710622643788
40
-0.97572710622643788
40
-0.54807034639085228
40
-0.54807034639085228
40
-0.54807034639085228
41
1
41
1
41
1
10
13.161379199422136
20
26.459303729706541
30
0
10
13.070519915324976
20
26.853524699557589
30
0
10
12.881794769662164
20
27.137021132242133
30
0
0
LINE
5
796
100
AcDbEntity
8
0
100
AcDbLine
10
64.85468529587682
20
-42.816635602432918
30
0
11
66.474318031287638
21
-43.406133743103524
31
0
0
ARC
5
797
100
AcDbEntity
8
0
100
AcDbCircle
10
74.408652707140291
20
-45.71933939668309
30
0
40
0.25000000000000694
210
0
220
-0
230
1
100
AcDbArc
50
70.000000000004093
51
160.00000000000009
0
LINE
5
798
100
AcDbEntity
8
0
100
AcDbLine
10
77.014809145977068
20
-43.283817449787477
30
0
11
77.715950439794696
21
-41.357447577176352
31
0
0
LINE
5
799
100
AcDbEntity
8
0
100
AcDbLine
10
77.56653232042963
20
-41.037019386148458
30
0
11
77.031319157507951
21
-40.842217725857495
31
0
0
LINE
5
800
100
AcDbEntity
8
0
100
AcDbLine
10
74.494157742971694
20
-45.484416241486599
30
0
11
75.687567371369809
21
-45.918781823510201
31
0
0
LINE
5
801
100
AcDbEntity
8
0
100
AcDbLine
10
76.8819010381429
20
-40.521789534829594
30
0
11
77.747212000756832
21
-38.144367204241263
31
0
0
LINE
5
802
100
AcDbEntity
8
0
100
AcDbLine
10
15.461218904721889
20
17.137021132242133
30
0
11
9.2612189047218969
21
17.137021132242133
31
0
0
SPLINE
5
803
100
AcDbEntity
8
0
100
AcDbSpline
70
4
71
2
72
6
73
3
74
0
42
0.000000001
43
0.0000000001
44
0.0000000001
40
-0.97572710622643788
40
-0.97572710622643788
40
-0.97572710622643788
40
-0.54807034639085228
40
-0.54807034639085228
40
-0.54807034639085228
41
1
41
1
41
1
10
13.161379199422136
20
-11.640696270293454
30
0
10
13.070519915324976
20
-11.246475300442409
30
0
10
12.881794769662164
20
-10.962978867757865
30
0
0
SPLINE
5
804
100
AcDbEntity
8
0
100
AcDbSpline
70
0
71
3
72
10
73
6
74
0
42
0.000000001
43
0.0000000001
44
0.0000000001
40
0.086443474892683406
40
0.086443474892683406
40
0.086443474892683406
40
0.086443474892683406
40
0.10813737773055074
40
0.10813737773055074
40
0.16022954248518984
40
0.16022954248518984
40
0.16022954248518984
40
0.16022954248518984
10
64.85468529587682
20
-42.816635602432918
30
0
10
64.796903532415243
20
-42.859155213331391
30
0
10
64.741874949488704
20
-42.905550076211689
30
0
10
64.563549275674859
20
-43.074930954411897
30
0
10
64.454665139088803
20
-43.212228543793792
30
0
10
64.360168835791896
20
-43.357858160944716
30
0
0
ARC
5
805
100
AcDbEntity
8
0
100
AcDbCircle
10
77.116824193339369
20
-40.607294570661018
30
0
40
0.24999999999999326
210
0
220
0
230
1
100
AcDbArc
50
159.99999999999784
51
249.99999999999991
0
ARC
5
806
100
AcDbEntity
8
0
100
AcDbCircle
10
75.863272006667813
20
-45.716688637662287
30
0
40
0.25000000000000694
210
0
220
0
230
1
100
AcDbArc
50
250.00000000000102
51
339.99999999999631
0
LINE
5
807
100
AcDbEntity
8
0
100
AcDbLine
10
74.01386733194434
20
-46.073052200524046
30
0
11
74.173729551943794
21
-45.633834360851665
31
0
0
LINE
5
808
100
AcDbEntity
8
0
100
AcDbLine
10
75.777766970836396
20
-45.951611792858778
30
0
11
75.687567371369809
21
-45.918781823510201
31
0
0
LINE
5
809
100
AcDbEntity
8
0
100
AcDbLine
10
16.780780856239687
20
-7.242978867757861
30
0
11
16.78078085623968
21
-5.1929788677578603
31
0
0
ARC
5
810
100
AcDbEntity
8
0
100
AcDbCircle
10
73.072944189653924
20
-46.328568619374828
30
0
40
0.97499999999999276
210
0
220
0
230
1
100
AcDbArc
50
-188.85921163874463
51
15.192812638647622
0
LINE
5
811
100
AcDbEntity
8
0
100
AcDbLine
10
15.461218904721889
20
-1.9129788677578663
30
0
11
9.2612189047218969
21
-1.9129788677578663
31
0
0
LINE
5
812
100
AcDbEntity
8
0
100
AcDbLine
10
15.461218904721889
20
-21.153478867757876
30
0
11
9.2612189047218969
21
-21.153478867757876
31
0
0
ARC
5
813
100
AcDbEntity
8
0
100
AcDbCircle
10
77.481027284598184
20
-41.271942541344941
30
0
40
0.25000000000002359
210
-0
220
0
230
1
100
AcDbArc
50
-19.999999999995751
51
69.999999999994358
0
ARC
5
814
100
AcDbEntity
8
0
100
AcDbCircle
10
21.164792447401144
20
9.5945211322421535
30
0
40
0.25000000000000355
210
-0
220
0
230
1
100
AcDbArc
50
-90
51
0
0
LINE
5
815
100
AcDbEntity
8
0
100
AcDbLine
10
20.345230495883353
20
7.0445211322421457
30
0
11
20.345230495883342
21
4.3645211322421478
31
0
0
ARC
5
816
100
AcDbEntity
8
0
100
AcDbCircle
10
33.168005676061519
20
2.83519370871957
30
0
40
0.97500000000000364
210
0
220
0
230
1
100
AcDbArc
50
-168.85921163874457
51
35.192812638647439
0
LINE
5
817
100
AcDbEntity
8
0
100
AcDbLine
10
15.711218904721893
20
14.357021132242147
30
0
11
15.711218904721893
21
16.88702113224214
31
0
0
ARC
5
818
100
AcDbEntity
8
0
100
AcDbCircle
10
15.164792447401105
20
8.6270211322421293
30
0
40
0.25000000000000355
210
0
220
-0
230
1
100
AcDbArc
50
90
51
180
0
ARC
5
819
100
AcDbEntity
8
0
100
AcDbCircle
10
34.5112189047219
20
12.124521132242146
30
0
40
0.24999999999999467
210
0
220
0
230
1
100
AcDbArc
50
0
51
90.000000000003254
0
ARC
5
820
100
AcDbEntity
8
0
100
AcDbCircle
10
30.208217579645407
20
3.9995211322413282
30
0
40
0.67499999999918192
210
0
220
0
230
1
100
AcDbArc
50
265.51284418330698
51
270.00000000000301
0
LINE
5
821
100
AcDbEntity
8
0
100
AcDbLine
10
27.864792447401143
20
12.37452113224214
30
0
11
28.311218904721898
21
12.37452113224214
31
0
0
ARC
5
822
100
AcDbEntity
8
0
100
AcDbCircle
10
16.530780856239694
20
9.1270211322421329
30
0
40
0.24999999999999911
210
-0
220
0
230
1
100
AcDbArc
50
-90
51
0
0
LINE
5
823
100
AcDbEntity
8
0
100
AcDbLine
10
21.164792447401144
20
9.34452113224215
30
0
11
20.595230495883364
21
9.3445211322421589
31
0
0
LINE
5
824
100
AcDbEntity
8
0
100
AcDbLine
10
15.164792447401105
20
8.8770211322421329
30
0
11
16.434792447401112
21
8.8770211322421382
31
0
0
LINE
5
825
100
AcDbEntity
8
0
100
AcDbLine
10
27.864792447401143
20
12.37452113224214
30
0
11
21.664792447401151
21
12.37452113224214
31
0
0
LINE
5
826
100
AcDbEntity
8
0
100
AcDbLine
10
16.780780856239687
20
11.80702113224214
30
0
11
16.78078085623968
21
13.85702113224214
31
0
0
ARC
5
827
100
AcDbEntity
8
0
100
AcDbCircle
10
15.961218904721896
20
14.357021132242147
30
0
40
0.25000000000000355
210
0
220
0
230
1
100
AcDbArc
50
180
51
270
0
LINE
5
828
100
AcDbEntity
8
0
100
AcDbLine
10
20.345230495883364
20
9.0945211322421553
30
0
11
20.345230495883353
21
7.0445211322421457
31
0
0
LINE
5
829
100
AcDbEntity
8
0
100
AcDbLine
10
16.780780856239687
20
11.80702113224214
30
0
11
16.780780856239698
21
9.1270211322421329
31
0
0
LINE
5
830
100
AcDbEntity
8
0
100
AcDbLine
10
14.91479244740111
20
8.159615269987885
30
0
11
14.914792447401101
21
8.6270211322421346
31
0
0
LINE
5
831
100
AcDbEntity
8
0
100
AcDbLine
10
16.530780856239694
20
8.8770211322421329
30
0
11
16.434792447401112
21
8.8770211322421382
31
0
0
ARC
5
832
100
AcDbEntity
8
0
100
AcDbCircle
10
15.461218904721898
20
16.88702113224214
30
0
40
0.24999999999999467
210
0
220
0
230
1
100
AcDbArc
50
0
51
90.000000000002032
0
ARC
5
833
100
AcDbEntity
8
0
100
AcDbCircle
10
14.11800567606152
20
7.5976937087195644
30
0
40
0.97500000000000364
210
0
220
0
230
1
100
AcDbArc
50
-168.85921163874465
51
35.192812638647183
0
ARC
5
834
100
AcDbEntity
8
0
100
AcDbCircle
10
20.595230495883374
20
9.0945211322421411
30
0
40
0.25000000000001688
210
0
220
0
230
1
100
AcDbArc
50
90.000000000002444
51
180
0
ARC
5
835
100
AcDbEntity
8
0
100
AcDbCircle
10
23.008005676061529
20
2.8351937087195611
30
0
40
0.97500000000000087
210
0
220
0
230
1
100
AcDbArc
50
144.80718736135256
51
348.85921163868932
0
ARC
5
836
100
AcDbEntity
8
0
100
AcDbCircle
10
21.66479244740114
20
12.124521132242146
30
0
40
0.24999999999999467
210
0
220
-0
230
1
100
AcDbArc
50
89.999999999997556
51
180
0
ARC
5
837
100
AcDbEntity
8
0
100
AcDbCircle
10
16.530780856239666
20
13.857021132242132
30
0
40
0.25000000000001243
210
0
220
-0
230
1
100
AcDbArc
50
0
51
89.999999999997556
0
LINE
5
838
100
AcDbEntity
8
0
100
AcDbLine
10
21.414792447401148
20
12.124521132242146
30
0
11
21.414792447401148
21
9.5945211322421535
31
0
0
LINE
5
839
100
AcDbEntity
8
0
100
AcDbLine
10
16.530780856239677
20
14.107021132242144
30
0
11
15.961218904721896
21
14.107021132242144
31
0
0
LINE
5
840
100
AcDbEntity
8
0
100
AcDbLine
10
35.580780856239691
20
4.1145211322421442
30
0
11
35.484792447401112
21
4.1145211322421442
31
0
0
ARC
5
841
100
AcDbEntity
8
0
100
AcDbCircle
10
49.258217579645411
20
1.5230211322413267
30
0
40
0.67499999999918414
210
0
220
0
230
1
100
AcDbArc
50
265.51284418330698
51
270.00000000000301
0
ARC
5
842
100
AcDbEntity
8
0
100
AcDbCircle
10
39.645230495883375
20
6.6180211322421361
30
0
40
0.25000000000002132
210
0
220
0
230
1
100
AcDbArc
50
90.000000000001634
51
180
0
LINE
5
843
100
AcDbEntity
8
0
100
AcDbLine
10
35.580780856239677
20
9.3445211322421535
30
0
11
35.0112189047219
21
9.34452113224215
31
0
0
LINE
5
844
100
AcDbEntity
8
0
100
AcDbLine
10
35.830780856239684
20
7.0445211322421457
30
0
11
35.830780856239677
21
9.0945211322421553
31
0
0
ARC
5
845
100
AcDbEntity
8
0
100
AcDbCircle
10
40.714792447401145
20
9.6480211322421443
30
0
40
0.24999999999999467
210
0
220
-0
230
1
100
AcDbArc
50
89.99999999999838
51
180
0
LINE
5
846
100
AcDbEntity
8
0
100
AcDbLine
10
30.208217579645442
20
3.3245211322421464
30
0
11
31.931794769662176
21
3.3245211322421464
31
0
0
LINE
5
847
100
AcDbEntity
8
0
100
AcDbLine
10
41.261218904721943
20
1.3880211322421387
30
0
11
41.261218904721943
21
0.92061526998788334
31
0
0
ARC
5
848
100
AcDbEntity
8
0
100
AcDbCircle
10
47.138005676061525
20
0.35869370871955741
30
0
40
2.1250000000000036
210
0
220
0
230
1
100
AcDbArc
50
-193.37040176933621
51
13.370401769336217
0
ARC
5
849
100
AcDbEntity
8
0
100
AcDbCircle
10
34.214792447401109
20
3.8645211322421402
30
0
40
0.25000000000000355
210
0
220
-0
230
1
100
AcDbArc
50
90
51
180
0
ARC
5
850
100
AcDbEntity
8
0
100
AcDbCircle
10
39.645230495883361
20
1.8880211322421547
30
0
40
0.25000000000001243
210
0
220
0
230
1
100
AcDbArc
50
180
51
269.99999999999511
0
ARC
5
851
100
AcDbEntity
8
0
100
AcDbCircle
10
35.0112189047219
20
9.5945211322421535
30
0
40
0.25000000000000355
210
0
220
0
230
1
100
AcDbArc
50
180
51
270
0
LINE
5
852
100
AcDbEntity
8
0
100
AcDbLine
10
34.214792447401109
20
4.1145211322421442
30
0
11
35.484792447401112
21
4.1145211322421442
31
0
0
LINE
5
853
100
AcDbEntity
8
0
100
AcDbLine
10
39.395230495883368
20
6.6180211322421538
30
0
11
39.395230495883354
21
4.5680211322421442
31
0
0
LINE
5
854
100
AcDbEntity
8
0
100
AcDbLine
10
49.258217579645446
20
0.84802113224214271
30
0
11
50.981794769662173
21
0.84802113224214271
31
0
0
LINE
5
855
100
AcDbEntity
8
0
100
AcDbLine
10
39.645230495883339
20
1.6380211322421423
30
0
11
39.741218904721933
21
1.6380211322421423
31
0
0
LINE
5
856
100
AcDbEntity
8
0
100
AcDbLine
10
39.741218904721933
20
1.6380211322421423
30
0
11
41.011218904721936
21
1.6380211322421423
31
0
0
ARC
5
857
100
AcDbEntity
8
0
100
AcDbCircle
10
35.58078085623967
20
9.0945211322421411
30
0
40
0.25000000000001243
210
0
220
-0
230
1
100
AcDbArc
50
0
51
89.99999999999838
0
LINE
5
858
100
AcDbEntity
8
0
100
AcDbLine
10
34.761218904721893
20
9.5945211322421535
30
0
11
34.761218904721893
21
12.124521132242146
31
0
0
ARC
5
859
100
AcDbEntity
8
0
100
AcDbCircle
10
35.580780856239691
20
4.3645211322421389
30
0
40
0.24999999999999467
210
-0
220
0
230
1
100
AcDbArc
50
-90
51
0
0
LINE
5
860
100
AcDbEntity
8
0
100
AcDbLine
10
35.830780856239684
20
7.0445211322421457
30
0
11
35.830780856239699
21
4.3645211322421389
31
0
0
LINE
5
861
100
AcDbEntity
8
0
100
AcDbLine
10
33.964792447401109
20
3.3971152699878959
30
0
11
33.964792447401102
21
3.8645211322421447
31
0
0
SPLINE
5
862
100
AcDbEntity
8
0
100
AcDbSpline
70
4
71
2
72
6
73
3
74
0
42
0.000000001
43
0.0000000001
44
0.0000000001
40
-0.97572710622643788
40
-0.97572710622643788
40
-0.97572710622643788
40
-0.54807034639085228
40
-0.54807034639085228
40
-0.54807034639085228
41
1
41
1
41
1
10
32.21137919942214
20
2.6468037297065528
30
0
10
32.120519915324977
20
3.0410246995576018
30
0
10
31.931794769662165
20
3.3245211322421464
30
0
0
ARC
5
863
100
AcDbEntity
8
0
100
AcDbCircle
10
45.017793772477638
20
1.5230211322413267
30
0
40
0.67499999999918403
210
0
220
0
230
1
100
AcDbArc
50
269.99999999999699
51
274.48715581669302
0
LINE
5
864
100
AcDbEntity
8
0
100
AcDbLine
10
43.294216604066385
20
0.8480211646971858
30
0
11
45.017793772477603
21
0.84802113224214271
31
0
0
ARC
5
865
100
AcDbEntity
8
0
100
AcDbCircle
10
25.967793772477634
20
23.049521132241324
30
0
40
0.67499999999918181
210
0
220
0
230
1
100
AcDbArc
50
269.99999999999699
51
274.48715581669302
0
ARC
5
866
100
AcDbEntity
8
0
100
AcDbCircle
10
23.008005676061529
20
21.885193708719555
30
0
40
0.97500000000000087
210
0
220
0
230
1
100
AcDbArc
50
144.80718736135248
51
348.85921163868932
0
ARC
5
867
100
AcDbEntity
8
0
100
AcDbCircle
10
16.530780856239666
20
32.907021132242129
30
0
40
0.25000000000001243
210
0
220
-0
230
1
100
AcDbArc
50
0
51
89.999999999997556
0
ARC
5
868
100
AcDbEntity
8
0
100
AcDbCircle
10
40.214792447401145
20
7.118021132242152
30
0
40
0.25000000000000355
210
-0
220
0
230
1
100
AcDbArc
50
-90
51
0
0
LINE
5
869
100
AcDbEntity
8
0
100
AcDbLine
10
22.211218904721939
20
22.91452113224214
30
0
11
22.211218904721939
21
22.447115269987883
31
0
0
LINE
5
870
100
AcDbEntity
8
0
100
AcDbLine
10
40.464792447401152
20
9.6480211322421443
30
0
11
40.464792447401152
21
7.118021132242152
31
0
0
LINE
5
871
100
AcDbEntity
8
0
100
AcDbLine
10
20.345230495883353
20
26.094521132242143
30
0
11
20.345230495883342
21
23.414521132242143
31
0
0
LINE
5
872
100
AcDbEntity
8
0
100
AcDbLine
10
39.395230495883354
20
4.5680211322421442
30
0
11
39.395230495883347
21
1.8880211322421458
31
0
0
LINE
5
873
100
AcDbEntity
8
0
100
AcDbLine
10
46.914792447401148
20
9.898021132242139
30
0
11
40.714792447401152
21
9.898021132242139
31
0
0
ARC
5
874
100
AcDbEntity
8
0
100
AcDbCircle
10
42.058005676061534
20
0.35869370871955741
30
0
40
0.97500000000000087
210
0
220
0
230
1
100
AcDbArc
50
144.80718736135256
51
348.8592116386892
0
ARC
5
875
100
AcDbEntity
8
0
100
AcDbCircle
10
28.08800567606152
20
2.8351937087195611
30
0
40
2.1250000000000036
210
0
220
0
230
1
100
AcDbArc
50
-193.37040176933621
51
13.370401769336217
0
LINE
5
876
100
AcDbEntity
8
0
100
AcDbLine
10
34.511218904721886
20
12.37452113224214
30
0
11
28.311218904721898
21
12.37452113224214
31
0
0
ARC
5
877
100
AcDbEntity
8
0
100
AcDbCircle
10
15.164792447401105
20
27.677021132242125
30
0
40
0.25000000000000355
210
0
220
-0
230
1
100
AcDbArc
50
90
51
180
0
LINE
5
878
100
AcDbEntity
8
0
100
AcDbLine
10
40.214792447401145
20
6.8680211322421485
30
0
11
39.645230495883368
21
6.8680211322421574
31
0
0
ARC
5
879
100
AcDbEntity
8
0
100
AcDbCircle
10
41.011218904721936
20
1.3880211322421387
30
0
40
0.25000000000000355
210
0
220
-0
230
1
100
AcDbArc
50
0
51
90
0
SPLINE
5
880
100
AcDbEntity
8
0
100
AcDbSpline
70
0
71
3
72
10
73
6
74
0
42
0.000000001
43
0.0000000001
44
0.0000000001
40
0.086443474892683406
40
0.086443474892683406
40
0.086443474892683406
40
0.086443474892683406
40
0.10813737773055074
40
0.10813737773055074
40
0.16022954248518984
40
0.16022954248518984
40
0.16022954248518984
40
0.16022954248518984
10
43.294216604066385
20
0.8480211646971858
30
0
10
43.254462070739194
20
0.78830327307644055
30
0
10
43.218620095082713
20
0.72588547896591304
30
0
10
43.108980447541825
20
0.50572854510249066
30
0
10
43.053621369069923
20
0.33947044550757255
30
0
10
43.014632152700699
20
0.17030372970562535
30
0
0
LINE
5
881
100
AcDbEntity
8
0
100
AcDbLine
10
46.914792447401148
20
9.898021132242139
30
0
11
47.361218904721902
21
9.898021132242139
31
0
0
SPLINE
5
882
100
AcDbEntity
8
0
100
AcDbSpline
70
4
71
2
72
6
73
3
74
0
42
0.000000001
43
0.0000000001
44
0.0000000001
40
-0.97572710622643788
40
-0.97572710622643788
40
-0.97572710622643788
40
-0.54807034639085228
40
-0.54807034639085228
40
-0.54807034639085228
41
1
41
1
41
1
10
51.261379199422137
20
0.17030372970654906
30
0
10
51.170519915324981
20
0.5645246995575981
30
0
10
50.981794769662166
20
0.84802113224214271
30
0
0
LINE
5
883
100
AcDbEntity
8
0
100
AcDbLine
10
15.711218904721893
20
33.407021132242143
30
0
11
15.711218904721893
21
35.937021132242137
31
0
0
LINE
5
884
100
AcDbEntity
8
0
100
AcDbLine
10
16.780780856239687
20
30.857021132242135
30
0
11
16.78078085623968
21
32.907021132242136
31
0
0
LINE
5
885
100
AcDbEntity
8
0
100
AcDbLine
10
15.164792447401105
20
27.927021132242128
30
0
11
16.434792447401112
21
27.927021132242132
31
0
0
ARC
5
886
100
AcDbEntity
8
0
100
AcDbCircle
10
15.961218904721896
20
33.407021132242143
30
0
40
0.25000000000000355
210
0
220
0
230
1
100
AcDbArc
50
180
51
270
0
LINE
5
887
100
AcDbEntity
8
0
100
AcDbLine
10
16.780780856239687
20
30.857021132242135
30
0
11
16.780780856239698
21
28.177021132242128
31
0
0
SPLINE
5
888
100
AcDbEntity
8
0
100
AcDbSpline
70
0
71
3
72
10
73
6
74
0
42
0.000000001
43
0.0000000001
44
0.0000000001
40
0.086443474892683406
40
0.086443474892683406
40
0.086443474892683406
40
0.086443474892683406
40
0.10813737773055074
40
0.10813737773055074
40
0.16022954248518984
40
0.16022954248518984
40
0.16022954248518984
40
0.16022954248518984
10
24.244216604066384
20
22.374521164697185
30
0
10
24.20446207073919
20
22.314803273076439
30
0
10
24.168620095082709
20
22.252385478965913
30
0
10
24.058980447541821
20
22.032228545102491
30
0
10
24.003621369069919
20
21.865970445507571
30
0
10
23.964632152700702
20
21.696803729705625
30
0
0
LINE
5
889
100
AcDbEntity
8
0
100
AcDbLine
10
35.830780856239684
20
26.094521132242143
30
0
11
35.830780856239677
21
28.144521132242151
31
0
0
ARC
5
890
100
AcDbEntity
8
0
100
AcDbCircle
10
35.58078085623967
20
28.144521132242136
30
0
40
0.25000000000001243
210
0
220
-0
230
1
100
AcDbArc
50
0
51
89.99999999999838
0
LINE
5
891
100
AcDbEntity
8
0
100
AcDbLine
10
24.244216604066384
20
22.374521164697185
30
0
11
25.967793772477599
21
22.374521132242144
31
0
0
ARC
5
892
100
AcDbEntity
8
0
100
AcDbCircle
10
21.961218904721935
20
22.914521132242136
30
0
40
0.25000000000000355
210
0
220
-0
230
1
100
AcDbArc
50
0
51
90
0
LINE
5
893
100
AcDbEntity
8
0
100
AcDbLine
10
14.91479244740111
20
27.209615269987882
30
0
11
14.914792447401101
21
27.677021132242132
31
0
0
LINE
5
894
100
AcDbEntity
8
0
100
AcDbLine
10
35.830780856239684
20
26.094521132242143
30
0
11
35.830780856239699
21
23.414521132242136
31
0
0
ARC
5
895
100
AcDbEntity
8
0
100
AcDbCircle
10
33.168005676061519
20
21.885193708719566
30
0
40
0.97500000000000364
210
0
220
0
230
1
100
AcDbArc
50
-168.85921163874457
51
35.192812638647354
0
LINE
5
896
100
AcDbEntity
8
0
100
AcDbLine
10
21.414792447401148
20
31.174521132242141
30
0
11
21.414792447401148
21
28.644521132242147
31
0
0
ARC
5
897
100
AcDbEntity
8
0
100
AcDbCircle
10
20.595230495883357
20
23.41452113224215
30
0
40
0.25000000000001243
210
0
220
0
230
1
100
AcDbArc
50
180
51
269.99999999999591
0
ARC
5
898
100
AcDbEntity
8
0
100
AcDbCircle
10
21.164792447401144
20
28.644521132242147
30
0
40
0.25000000000000355
210
-0
220
0
230
1
100
AcDbArc
50
-90
51
0
0
LINE
5
899
100
AcDbEntity
8
0
100
AcDbLine
10
21.164792447401144
20
28.394521132242147
30
0
11
20.595230495883364
21
28.394521132242154
31
0
0
ARC
5
900
100
AcDbEntity
8
0
100
AcDbCircle
10
14.11800567606152
20
26.647693708719558
30
0
40
0.97500000000000364
210
0
220
0
230
1
100
AcDbArc
50
-168.85921163874465
51
35.192812638647354
0
ARC
5
901
100
AcDbEntity
8
0
100
AcDbCircle
10
20.595230495883374
20
28.144521132242136
30
0
40
0.25000000000001688
210
0
220
0
230
1
100
AcDbArc
50
90.000000000002444
51
180
0
LINE
5
902
100
AcDbEntity
8
0
100
AcDbLine
10
20.595230495883339
20
23.16452113224214
30
0
11
20.691218904721929
21
23.16452113224214
31
0
0
SPLINE
5
903
100
AcDbEntity
8
0
100
AcDbSpline
70
4
71
2
72
6
73
3
74
0
42
0.000000001
43
0.0000000001
44
0.0000000001
40
-0.97572710622643788
40
-0.97572710622643788
40
-0.97572710622643788
40
-0.54807034639085228
40
-0.54807034639085228
40
-0.54807034639085228
41
1
41
1
41
1
10
32.21137919942214
20
21.696803729706549
30
0
10
32.120519915324977
20
22.091024699557597
30
0
10
31.931794769662165
20
22.374521132242144
30
0
0
LINE
5
904
100
AcDbEntity
8
0
100
AcDbLine
10
16.530780856239677
20
33.157021132242136
30
0
11
15.961218904721896
21
33.157021132242136
31
0
0
LINE
5
905
100
AcDbEntity
8
0
100
AcDbLine
10
30.208217579645442
20
22.374521132242144
30
0
11
31.931794769662176
21
22.374521132242144
31
0
0
LINE
5
906
100
AcDbEntity
8
0
100
AcDbLine
10
16.530780856239694
20
27.927021132242128
30
0
11
16.434792447401112
21
27.927021132242132
31
0
0
LINE
5
907
100
AcDbEntity
8
0
100
AcDbLine
10
20.345230495883364
20
28.144521132242151
30
0
11
20.345230495883353
21
26.094521132242143
31
0
0
ARC
5
908
100
AcDbEntity
8
0
100
AcDbCircle
10
35.580780856239691
20
23.414521132242136
30
0
40
0.24999999999999467
210
-0
220
0
230
1
100
AcDbArc
50
-90
51
0
0
ARC
5
909
100
AcDbEntity
8
0
100
AcDbCircle
10
34.214792447401109
20
22.914521132242136
30
0
40
0.25000000000000355
210
0
220
-0
230
1
100
AcDbArc
50
90
51
180
0
ARC
5
910
100
AcDbEntity
8
0
100
AcDbCircle
10
35.0112189047219
20
28.644521132242147
30
0
40
0.25000000000000355
210
0
220
0
230
1
100
AcDbArc
50
180
51
270
0
ARC
5
911
100
AcDbEntity
8
0
100
AcDbCircle
10
16.530780856239694
20
28.177021132242128
30
0
40
0.24999999999999911
210
-0
220
0
230
1
100
AcDbArc
50
-90
51
0
0
LINE
5
912
100
AcDbEntity
8
0
100
AcDbLine
10
20.691218904721929
20
23.16452113224214
30
0
11
21.961218904721935
21
23.16452113224214
31
0
0
LINE
5
913
100
AcDbEntity
8
0
100
AcDbLine
10
34.761218904721893
20
28.644521132242147
30
0
11
34.761218904721893
21
31.174521132242141
31
0
0
LINE
5
914
100
AcDbEntity
8
0
100
AcDbLine
10
34.214792447401109
20
23.16452113224214
30
0
11
35.484792447401112
21
23.16452113224214
31
0
0
ARC
5
915
100
AcDbEntity
8
0
100
AcDbCircle
10
30.208217579645407
20
23.049521132241324
30
0
40
0.67499999999918192
210
0
220
0
230
1
100
AcDbArc
50
265.51284418330698
51
270.00000000000301
0
ARC
5
916
100
AcDbEntity
8
0
100
AcDbCircle
10
49.258217579645411
20
20.573021132241323
30
0
40
0.67499999999918414
210
0
220
0
230
1
100
AcDbArc
50
265.51284418330698
51
270.00000000000301
0
LINE
5
917
100
AcDbEntity
8
0
100
AcDbLine
10
40.464792447401152
20
28.69802113224214
30
0
11
40.464792447401152
21
26.168021132242146
31
0
0
LINE
5
918
100
AcDbEntity
8
0
100
AcDbLine
10
39.645230495883339
20
20.688021132242138
30
0
11
39.741218904721933
21
20.688021132242138
31
0
0
LINE
5
919
100
AcDbEntity
8
0
100
AcDbLine
10
40.214792447401145
20
25.918021132242146
30
0
11
39.645230495883368
21
25.918021132242153
31
0
0
LINE
5
920
100
AcDbEntity
8
0
100
AcDbLine
10
35.580780856239691
20
23.16452113224214
30
0
11
35.484792447401112
21
23.16452113224214
31
0
0
ARC
5
921
100
AcDbEntity
8
0
100
AcDbCircle
10
39.645230495883375
20
25.668021132242131
30
0
40
0.25000000000002132
210
0
220
0
230
1
100
AcDbArc
50
90.000000000001634
51
180
0
LINE
5
922
100
AcDbEntity
8
0
100
AcDbLine
10
39.741218904721933
20
20.688021132242138
30
0
11
41.011218904721936
21
20.688021132242138
31
0
0
SPLINE
5
923
100
AcDbEntity
8
0
100
AcDbSpline
70
0
71
3
72
10
73
6
74
0
42
0.000000001
43
0.0000000001
44
0.0000000001
40
0.086443474892683406
40
0.086443474892683406
40
0.086443474892683406
40
0.086443474892683406
40
0.10813737773055074
40
0.10813737773055074
40
0.16022954248518984
40
0.16022954248518984
40
0.16022954248518984
40
0.16022954248518984
10
43.294216604066385
20
19.89802116469718
30
0
10
43.254462070739194
20
19.838303273076438
30
0
10
43.218620095082713
20
19.775885478965908
30
0
10
43.108980447541825
20
19.555728545102486
30
0
10
43.053621369069923
20
19.38947044550757
30
0
10
43.014632152700699
20
19.22030372970562
30
0
0
SPLINE
5
924
100
AcDbEntity
8
0
100
AcDbSpline
70
4
71
2
72
6
73
3
74
0
42
0.000000001
43
0.0000000001
44
0.0000000001
40
-0.97572710622643788
40
-0.97572710622643788
40
-0.97572710622643788
40
-0.54807034639085228
40
-0.54807034639085228
40
-0.54807034639085228
41
1
41
1
41
1
10
51.261379199422137
20
19.220303729706544
30
0
10
51.170519915324981
20
19.614524699557595
30
0
10
50.981794769662166
20
19.898021132242139
30
0
0
LINE
5
925
100
AcDbEntity
8
0
100
AcDbLine
10
43.294216604066385
20
19.89802116469718
30
0
11
45.017793772477603
21
19.898021132242139
31
0
0
ARC
5
926
100
AcDbEntity
8
0
100
AcDbCircle
10
41.011218904721936
20
20.438021132242135
30
0
40
0.25000000000000355
210
0
220
-0
230
1
100
AcDbArc
50
0
51
90
0
ARC
5
927
100
AcDbEntity
8
0
100
AcDbCircle
10
42.058005676061534
20
19.408693708719554
30
0
40
0.97500000000000087
210
0
220
0
230
1
100
AcDbArc
50
144.80718736135267
51
348.8592116386892
0
LINE
5
928
100
AcDbEntity
8
0
100
AcDbLine
10
39.395230495883354
20
23.618021132242141
30
0
11
39.395230495883347
21
20.938021132242142
31
0
0
LINE
5
929
100
AcDbEntity
8
0
100
AcDbLine
10
49.258217579645446
20
19.898021132242139
30
0
11
50.981794769662173
21
19.898021132242139
31
0
0
LINE
5
930
100
AcDbEntity
8
0
100
AcDbLine
10
41.261218904721943
20
20.438021132242135
30
0
11
41.261218904721943
21
19.970615269987878
31
0
0
LINE
5
931
100
AcDbEntity
8
0
100
AcDbLine
10
33.964792447401109
20
22.44711526998789
30
0
11
33.964792447401102
21
22.91452113224214
31
0
0
ARC
5
932
100
AcDbEntity
8
0
100
AcDbCircle
10
45.017793772477638
20
20.573021132241323
30
0
40
0.67499999999918403
210
0
220
0
230
1
100
AcDbArc
50
269.99999999999699
51
274.48715581669302
0
LINE
5
933
100
AcDbEntity
8
0
100
AcDbLine
10
35.580780856239677
20
28.394521132242151
30
0
11
35.0112189047219
21
28.394521132242147
31
0
0
ARC
5
934
100
AcDbEntity
8
0
100
AcDbCircle
10
40.214792447401145
20
26.168021132242146
30
0
40
0.25000000000000355
210
-0
220
0
230
1
100
AcDbArc
50
-90
51
0
0
LINE
5
935
100
AcDbEntity
8
0
100
AcDbLine
10
39.395230495883368
20
25.668021132242149
30
0
11
39.395230495883354
21
23.618021132242141
31
0
0
ARC
5
936
100
AcDbEntity
8
0
100
AcDbCircle
10
39.645230495883361
20
20.938021132242149
30
0
40
0.25000000000001243
210
0
220
0
230
1
100
AcDbArc
50
180
51
269.99999999999511
0
ARC
5
937
100
AcDbEntity
8
0
100
AcDbCircle
10
28.08800567606152
20
21.885193708719555
30
0
40
2.1250000000000036
210
0
220
0
230
1
100
AcDbArc
50
-193.37040176933633
51
13.370401769336297
0
ARC
5
938
100
AcDbEntity
8
0
100
AcDbCircle
10
54.630780856239667
20
25.668021132242131
30
0
40
0.25000000000001243
210
0
220
-0
230
1
100
AcDbArc
50
0
51
89.999999999996746
0
LINE
5
939
100
AcDbEntity
8
0
100
AcDbLine
10
54.880780856239689
20
23.618021132242141
30
0
11
54.880780856239696
21
20.938021132242135
31
0
0
LINE
5
940
100
AcDbEntity
8
0
100
AcDbLine
10
54.880780856239689
20
4.5680211322421442
30
0
11
54.880780856239696
21
1.888021132242137
31
0
0
ARC
5
941
100
AcDbEntity
8
0
100
AcDbCircle
10
54.061218904721898
20
7.118021132242152
30
0
40
0.25000000000000355
210
0
220
0
230
1
100
AcDbArc
50
180
51
270
0
ARC
5
942
100
AcDbEntity
8
0
100
AcDbCircle
10
53.264792447401106
20
1.3880211322421387
30
0
40
0.25000000000000355
210
0
220
-0
230
1
100
AcDbArc
50
90
51
180
0
LINE
5
943
100
AcDbEntity
8
0
100
AcDbLine
10
54.630780856239681
20
25.918021132242146
30
0
11
54.061218904721898
21
25.918021132242146
31
0
0
ARC
5
944
100
AcDbEntity
8
0
100
AcDbCircle
10
53.561218904721898
20
9.6480211322421443
30
0
40
0.24999999999999467
210
0
220
0
230
1
100
AcDbArc
50
0
51
90.000000000001634
0
LINE
5
945
100
AcDbEntity
8
0
100
AcDbLine
10
53.811218904721898
20
7.118021132242152
30
0
11
53.811218904721898
21
9.6480211322421443
31
0
0
LINE
5
946
100
AcDbEntity
8
0
100
AcDbLine
10
54.630780856239681
20
6.8680211322421485
30
0
11
54.061218904721898
21
6.8680211322421485
31
0
0
LINE
5
947
100
AcDbEntity
8
0
100
AcDbLine
10
53.264792447401106
20
20.688021132242138
30
0
11
54.534792447401117
21
20.688021132242138
31
0
0
LINE
5
948
100
AcDbEntity
8
0
100
AcDbLine
10
54.880780856239689
20
23.618021132242141
30
0
11
54.880780856239681
21
25.668021132242149
31
0
0
LINE
5
949
100
AcDbEntity
8
0
100
AcDbLine
10
53.811218904721898
20
26.168021132242146
30
0
11
53.811218904721898
21
28.69802113224214
31
0
0
ARC
5
950
100
AcDbEntity
8
0
100
AcDbCircle
10
54.630780856239696
20
20.938021132242135
30
0
40
0.24999999999999467
210
-0
220
0
230
1
100
AcDbArc
50
-90
51
0
0
ARC
5
951
100
AcDbEntity
8
0
100
AcDbCircle
10
54.630780856239667
20
6.6180211322421361
30
0
40
0.25000000000001243
210
0
220
-0
230
1
100
AcDbArc
50
0
51
89.999999999996746
0
ARC
5
952
100
AcDbEntity
8
0
100
AcDbCircle
10
47.138005676061525
20
19.408693708719554
30
0
40
2.1250000000000036
210
0
220
0
230
1
100
AcDbArc
50
-193.37040176933621
51
13.370401769336217
0
ARC
5
953
100
AcDbEntity
8
0
100
AcDbCircle
10
54.061218904721898
20
26.168021132242146
30
0
40
0.25000000000000355
210
0
220
0
230
1
100
AcDbArc
50
180
51
270
0
LINE
5
954
100
AcDbEntity
8
0
100
AcDbLine
10
53.014792447401113
20
0.92061526998789223
30
0
11
53.014792447401106
21
1.3880211322421387
31
0
0
ARC
5
955
100
AcDbEntity
8
0
100
AcDbCircle
10
54.630780856239696
20
1.888021132242137
30
0
40
0.24999999999999467
210
-0
220
0
230
1
100
AcDbArc
50
-90
51
0
0
ARC
5
956
100
AcDbEntity
8
0
100
AcDbCircle
10
53.264792447401106
20
20.438021132242135
30
0
40
0.25000000000000355
210
0
220
-0
230
1
100
AcDbArc
50
90
51
180
0
LINE
5
957
100
AcDbEntity
8
0
100
AcDbLine
10
54.880780856239689
20
4.5680211322421442
30
0
11
54.880780856239681
21
6.6180211322421538
31
0
0
LINE
5
958
100
AcDbEntity
8
0
100
AcDbLine
10
53.014792447401113
20
19.970615269987888
30
0
11
53.014792447401106
21
20.438021132242135
31
0
0
LINE
5
959
100
AcDbEntity
8
0
100
AcDbLine
10
54.630780856239696
20
1.6380211322421423
30
0
11
54.534792447401117
21
1.6380211322421423
31
0
0
LINE
5
960
100
AcDbEntity
8
0
100
AcDbLine
10
53.264792447401106
20
1.6380211322421423
30
0
11
54.534792447401117
21
1.6380211322421423
31
0
0
LINE
5
961
100
AcDbEntity
8
0
100
AcDbLine
10
54.630780856239696
20
20.688021132242138
30
0
11
54.534792447401117
21
20.688021132242138
31
0
0
LINE
5
962
100
AcDbEntity
8
0
100
AcDbLine
10
20.595230495883339
20
-14.935478867757856
30
0
11
20.691218904721929
21
-14.935478867757856
31
0
0
LINE
5
963
100
AcDbEntity
8
0
100
AcDbLine
10
14.91479244740111
20
-10.890384730012116
30
0
11
14.914792447401101
21
-10.422978867757866
31
0
0
ARC
5
964
100
AcDbEntity
8
0
100
AcDbCircle
10
16.530780856239694
20
-9.9229788677578679
30
0
40
0.24999999999999911
210
-0
220
0
230
1
100
AcDbArc
50
-90
51
0
0
LINE
5
965
100
AcDbEntity
8
0
100
AcDbLine
10
15.164792447401105
20
-10.172978867757866
30
0
11
16.434792447401112
21
-10.172978867757863
31
0
0
LINE
5
966
100
AcDbEntity
8
0
100
AcDbLine
10
20.345230495883364
20
-9.9554788677578454
30
0
11
20.345230495883353
21
-12.005478867757855
31
0
0
ARC
5
967
100
AcDbEntity
8
0
100
AcDbCircle
10
21.66479244740114
20
-6.9254788677578549
30
0
40
0.24999999999999467
210
0
220
-0
230
1
100
AcDbArc
50
89.999999999997556
51
180
0
ARC
5
968
100
AcDbEntity
8
0
100
AcDbCircle
10
15.164792447401105
20
-10.42297886775787
30
0
40
0.25000000000000355
210
0
220
-0
230
1
100
AcDbArc
50
90
51
180
0
LINE
5
969
100
AcDbEntity
8
0
100
AcDbLine
10
22.211218904721939
20
-15.185478867757855
30
0
11
22.211218904721939
21
-15.652884730012113
31
0
0
LINE
5
970
100
AcDbEntity
8
0
100
AcDbLine
10
53.561218904721891
20
9.898021132242139
30
0
11
47.361218904721902
21
9.898021132242139
31
0
0
ARC
5
971
100
AcDbEntity
8
0
100
AcDbCircle
10
21.961218904721935
20
-15.18547886775786
30
0
40
0.25000000000000355
210
0
220
-0
230
1
100
AcDbArc
50
0
51
90
0
LINE
5
972
100
AcDbEntity
8
0
100
AcDbLine
10
21.164792447401144
20
-9.7054788677578507
30
0
11
20.595230495883364
21
-9.7054788677578419
31
0
0
LINE
5
973
100
AcDbEntity
8
0
100
AcDbLine
10
20.345230495883353
20
-12.005478867757855
30
0
11
20.345230495883342
21
-14.685478867757853
31
0
0
ARC
5
974
100
AcDbEntity
8
0
100
AcDbCircle
10
20.595230495883374
20
-9.9554788677578578
30
0
40
0.25000000000001688
210
0
220
0
230
1
100
AcDbArc
50
90.000000000002444
51
180
0
ARC
5
975
100
AcDbEntity
8
0
100
AcDbCircle
10
15.461218904721898
20
-21.403478867757872
30
0
40
0.24999999999999467
210
0
220
0
230
1
100
AcDbArc
50
0
51
90.000000000002032
0
ARC
5
976
100
AcDbEntity
8
0
100
AcDbCircle
10
14.11800567606152
20
-11.452306291280436
30
0
40
0.97500000000000364
210
0
220
0
230
1
100
AcDbArc
50
-168.85921163874465
51
35.192812638647183
0
ARC
5
977
100
AcDbEntity
8
0
100
AcDbCircle
10
20.595230495883357
20
-14.685478867757844
30
0
40
0.25000000000001243
210
0
220
0
230
1
100
AcDbArc
50
180
51
269.99999999999591
0
ARC
5
978
100
AcDbEntity
8
0
100
AcDbCircle
10
52.218005676061523
20
19.408693708719561
30
0
40
0.97500000000000364
210
0
220
0
230
1
100
AcDbArc
50
-168.85921163874465
51
35.192812638647517
0
ARC
5
979
100
AcDbEntity
8
0
100
AcDbCircle
10
21.164792447401144
20
-9.4554788677578472
30
0
40
0.25000000000000355
210
-0
220
0
230
1
100
AcDbArc
50
-90
51
0
0
LINE
5
980
100
AcDbEntity
8
0
100
AcDbLine
10
20.691218904721929
20
-14.935478867757856
30
0
11
21.961218904721935
21
-14.935478867757856
31
0
0
LINE
5
981
100
AcDbEntity
8
0
100
AcDbLine
10
16.530780856239694
20
-10.172978867757866
30
0
11
16.434792447401112
21
-10.172978867757863
31
0
0
LINE
5
982
100
AcDbEntity
8
0
100
AcDbLine
10
21.414792447401148
20
-6.9254788677578549
30
0
11
21.414792447401148
21
-9.4554788677578472
31
0
0
LINE
5
983
100
AcDbEntity
8
0
100
AcDbLine
10
16.780780856239687
20
-7.242978867757861
30
0
11
16.780780856239698
21
-9.9229788677578679
31
0
0
ARC
5
984
100
AcDbEntity
8
0
100
AcDbCircle
10
52.218005676061523
20
0.3586937087195663
30
0
40
0.97500000000000364
210
0
220
0
230
1
100
AcDbArc
50
-168.85921163874465
51
35.192812638647439
0
ARC
5
985
100
AcDbEntity
8
0
100
AcDbCircle
10
35.58078085623967
20
-9.9554788677578578
30
0
40
0.25000000000001243
210
0
220
-0
230
1
100
AcDbArc
50
0
51
89.99999999999838
0
LINE
5
986
100
AcDbEntity
8
0
100
AcDbLine
10
34.511218904721886
20
-6.6754788677578603
30
0
11
28.311218904721898
21
-6.6754788677578603
31
0
0
ARC
5
987
100
AcDbEntity
8
0
100
AcDbCircle
10
34.5112189047219
20
-6.9254788677578549
30
0
40
0.24999999999999467
210
0
220
0
230
1
100
AcDbArc
50
0
51
90.000000000003254
0
ARC
5
988
100
AcDbEntity
8
0
100
AcDbCircle
10
34.214792447401109
20
-15.18547886775786
30
0
40
0.25000000000000355
210
0
220
-0
230
1
100
AcDbArc
50
90
51
180
0
LINE
5
989
100
AcDbEntity
8
0
100
AcDbLine
10
34.761218904721893
20
-9.4554788677578472
30
0
11
34.761218904721893
21
-6.9254788677578549
31
0
0
LINE
5
990
100
AcDbEntity
8
0
100
AcDbLine
10
33.964792447401109
20
-15.652884730012104
30
0
11
33.964792447401102
21
-15.185478867757855
31
0
0
SPLINE
5
991
100
AcDbEntity
8
0
100
AcDbSpline
70
4
71
2
72
6
73
3
74
0
42
0.000000001
43
0.0000000001
44
0.0000000001
40
-0.97572710622643788
40
-0.97572710622643788
40
-0.97572710622643788
40
-0.54807034639085228
40
-0.54807034639085228
40
-0.54807034639085228
41
1
41
1
41
1
10
32.21137919942214
20
-16.403196270293449
30
0
10
32.120519915324977
20
-16.008975300442398
30
0
10
31.931794769662165
20
-15.725478867757854
30
0
0
ARC
5
992
100
AcDbEntity
8
0
100
AcDbCircle
10
35.580780856239691
20
-14.685478867757862
30
0
40
0.24999999999999467
210
-0
220
0
230
1
100
AcDbArc
50
-90
51
0
0
LINE
5
993
100
AcDbEntity
8
0
100
AcDbLine
10
65.205673544950713
20
-33.579620514422928
30
0
11
58.33244964168577
21
-30.804551854645617
31
0
0
LINE
5
994
100
AcDbEntity
8
0
100
AcDbLine
10
78.8872559802778
20
-38.285889533000073
30
0
11
77.835087413095621
21
-37.90293149311519
31
0
0
LINE
5
995
100
AcDbEntity
8
0
100
AcDbLine
10
77.835087413095621
20
-37.90293149311519
30
0
11
77.747212000756832
21
-38.144367204241263
31
0
0
LINE
5
996
100
AcDbEntity
8
0
100
AcDbLine
10
1.2874999999997705
20
36.187500000000377
30
0
11
2.3647924474011561
21
36.187500000000377
31
0
0
LINE
5
997
100
AcDbEntity
8
0
100
AcDbLine
10
2.3647924474011561
20
36.187500000000377
30
0
11
2.3647924474011561
21
35.937021132242137
31
0
0
LINE
5
998
100
AcDbEntity
8
0
100
AcDbLine
10
16.837499999998844
20
36.187500000000377
30
0
11
15.711218904721893
21
36.187500000000377
31
0
0
LINE
5
999
100
AcDbEntity
8
0
100
AcDbLine
10
15.711218904721893
20
36.187500000000377
30
0
11
15.711218904721893
21
35.937021132242137
31
0
0
LINE
5
1000
100
AcDbEntity
8
0
100
AcDbLine
10
35.887500000000131
20
31.424999999999592
30
0
11
34.761218904721893
21
31.424999999999592
31
0
0
LINE
5
1001
100
AcDbEntity
8
0
100
AcDbLine
10
34.761218904721893
20
31.424999999999592
30
0
11
34.761218904721893
21
31.174521132242141
31
0
0
LINE
5
1002
100
AcDbEntity
8
0
100
AcDbLine
10
20.337499999998929
20
31.424999999999592
30
0
11
21.414792447401148
21
31.424999999999592
31
0
0
LINE
5
1003
100
AcDbEntity
8
0
100
AcDbLine
10
21.414792447401148
20
31.424999999999592
30
0
11
21.414792447401148
21
31.174521132242141
31
0
0
LINE
5
1004
100
AcDbEntity
8
0
100
AcDbLine
10
39.234505788760941
20
28.948499999999946
30
0
11
40.464792447401152
21
28.948499999999946
31
0
0
LINE
5
1005
100
AcDbEntity
8
0
100
AcDbLine
10
40.464792447401152
20
28.948499999999946
30
0
11
40.464792447401152
21
28.69802113224214
31
0
0
LINE
5
1006
100
AcDbEntity
8
0
100
AcDbLine
10
54.9375
20
28.948499999999996
30
0
11
53.811218904721898
21
28.94850000000001
31
0
0
LINE
5
1007
100
AcDbEntity
8
0
100
AcDbLine
10
53.811218904721898
20
28.94850000000001
30
0
11
53.811218904721898
21
28.69802113224214
31
0
0
LINE
5
1008
100
AcDbEntity
8
0
100
AcDbLine
10
-2.2125000000001727
20
31.424999999999592
30
0
11
-3.3387810952781027
21
31.424999999999592
31
0
0
LINE
5
1009
100
AcDbEntity
8
0
100
AcDbLine
10
-3.3387810952781027
20
31.424999999999592
30
0
11
-3.3387810952781027
21
31.174521132242141
31
0
0
LINE
5
1010
100
AcDbEntity
8
0
100
AcDbLine
10
-17.762500000000241
20
31.424999999999592
30
0
11
-16.685207552598847
21
31.424999999999592
31
0
0
LINE
5
1011
100
AcDbEntity
8
0
100
AcDbLine
10
-16.685207552598847
20
31.424999999999592
30
0
11
-16.685207552598847
21
31.174521132242141
31
0
0
LINE
5
1012
100
AcDbEntity
8
0
100
AcDbLine
10
-21.262500000000468
20
21.900000000000013
30
0
11
-22.388781095278105
21
21.900000000000013
31
0
0
LINE
5
1013
100
AcDbEntity
8
0
100
AcDbLine
10
-22.388781095278105
20
21.900000000000013
30
0
11
-22.388781095278105
21
21.649521132242139
31
0
0
LINE
5
1014
100
AcDbEntity
8
0
100
AcDbLine
10
-55.862499999999983
20
21.900000000000013
30
0
11
-54.785207552598862
21
21.900000000000013
31
0
0
LINE
5
1015
100
AcDbEntity
8
0
100
AcDbLine
10
-54.785207552598862
20
21.900000000000013
30
0
11
-54.785207552598862
21
21.649521132242135
31
0
0
LINE
5
1016
100
AcDbEntity
8
0
100
AcDbLine
10
-41.438781095278117
20
21.900000000000013
30
0
11
-41.438781095278117
21
21.649521132242135
31
0
0
LINE
5
1017
100
AcDbEntity
8
0
100
AcDbLine
10
-41.438781095278117
20
21.900000000000013
30
0
11
-35.735207552598851
21
21.900000000000013
31
0
0
LINE
5
1018
100
AcDbEntity
8
0
100
AcDbLine
10
-35.735207552598851
20
21.900000000000013
30
0
11
-35.735207552598851
21
21.649521132242139
31
0
0
ENDSEC
0
SECTION
2
OBJECTS
0
DICTIONARY
5
C
100
AcDbDictionary
3
ACAD_GROUP
350
D
3
ACAD_MLINESTYLE
350
17
0
DICTIONARY
5
D
100
AcDbDictionary
0
DICTIONARY
5
1A
330
C
100
AcDbDictionary
0
DICTIONARY
5
17
100
AcDbDictionary
0
ENDSEC
0
EOF
