0
SECTION
2
HEADER
9
$INSUNITS
70
4
9
$ACADVER
1
AC1014
9
$HANDSEED
5
FFFF
0
ENDSEC
0
SECTION
2
TABLES
0
TABLE
2
VPORT
5
8
100
AcDbSymbolTable
0
ENDTAB
0
TABLE
2
LTYPE
5
5
100
AcDbSymbolTable
0
LTYPE
5
14
100
AcDbSymbolTableRecord
100
AcDbLinetypeTableRecord
2
BYBLOCK
70
0
0
LTYPE
5
15
100
AcDbSymbolTableRecord
100
AcDbLinetypeTableRecord
2
BYLAYER
70
0
0
ENDTAB
0
TABLE
2
LAYER
5
2
100
AcDbSymbolTable
70
2
0
LAYER
5
50
100
AcDbSymbolTableRecord
100
AcDbLayerTableRecord
2
0
70
0
6
CONTINUOUS
0
ENDTAB
0
TABLE
2
STYLE
5
3
100
AcDbSymbolTable
70
1
0
STYLE
5
11
100
AcDbSymbolTableRecord
100
AcDbTextStyleTableRecord
2
STANDARD
70
0
0
ENDTAB
0
TABLE
2
VIEW
5
6
100
AcDbSymbolTable
70
0
0
ENDTAB
0
TABLE
2
UCS
5
7
100
AcDbSymbolTable
70
0
0
ENDTAB
0
TABLE
2
APPID
5
9
100
AcDbSymbolTable
70
2
0
APPID
5
12
100
AcDbSymbolTableRecord
100
AcDbRegAppTableRecord
2
ACAD
70
0
0
ENDTAB
0
TABLE
2
DIMSTYLE
5
A
100
AcDbSymbolTable
70
1
0
ENDTAB
0
TABLE
2
BLOCK_RECORD
5
1
100
AcDbSymbolTable
70
1
0
BLOCK_RECORD
5
1F
100
AcDbSymbolTableRecord
100
AcDbBlockTableRecord
2
*MODEL_SPACE
0
BLOCK_RECORD
5
1B
100
AcDbSymbolTableRecord
100
AcDbBlockTableRecord
2
*PAPER_SPACE
0
ENDTAB
0
ENDSEC
0
SECTION
2
BLOCKS
0
BLOCK
5
20
100
AcDbEntity
100
AcDbBlockBegin
2
*MODEL_SPACE
0
ENDBLK
5
21
100
AcDbEntity
100
AcDbBlockEnd
0
BLOCK
5
1C
100
AcDbEntity
100
AcDbBlockBegin
2
*PAPER_SPACE
0
ENDBLK
5
1D
100
AcDbEntity
100
AcDbBlockEnd
0
ENDSEC
0
SECTION
2
ENTITIES
0
LWPOLYLINE
5
100
100
AcDbEntity
8
0
100
AcDbPolyline
90
30
70
1
43
0.0
10
78.518687851664566
20
-38.151741704885652
42
0.52056705055175501
10
80.531718066653113
20
-36.742202773706808
10
80.531718066653113
20
-31.109806291281529
42
0.41421356237309503
10
79.531718066653113
20
-30.109806291281526
10
71.500506676059217
20
-30.109806291281522
42
-0.41421356237309764
10
71.000506676059217
20
-29.609806291281529
10
71.000506676059217
20
-20.669806291281535
42
-0.41421356237310025
10
71.500506676059217
20
-20.169806291281528
10
79.519991802501536
20
-20.169806291281532
42
0.41413531456337116
10
80.519991766813718
20
-19.170073453402125
10
80.531718066653127
20
24.722000000000001
42
0.41421356237309503
10
78.781718066653113
20
26.471999999999998
10
74.010541883289818
20
26.473974530967336
10
74.010517011395024
20
25.270704046785607
42
0.41421961828555248
10
74.510517014233159
20
24.770693711663483
10
76.540506690960385
20
24.770693723619914
42
-0.4142135623730937
10
78.54050669096037
20
22.77069372361991
10
78.54050669096037
20
1.278301516066171
42
-0.41421356237309515
10
76.54050669096037
20
-0.72169848393383029
10
60.565683222297373
20
-0.72169848393382752
42
-0.41421356237309204
10
58.565683222297373
20
1.2783015160661737
10
58.56568322229738
20
22.77069372361991
42
-0.41421356237309503
10
60.56568322229738
20
24.770693723619914
10
62.57051700810004
20
24.770693711692971
42
0.41420750995413125
10
63.070517010967777
20
25.270683376570844
10
63.070541883289835
20
26.473974530967336
10
58.437499999626169
20
26.472420519956419
42
0.41421356237309803
10
56.687463827072591
20
24.722456693257694
10
56.686364639043553
20
-28.454855389282589
42
0.3153044701737247
10
58.331314280195244
20
-30.80413861685793
0
CIRCLE
5
101
100
AcDbEntity
8
0
100
AcDbCircle
10
61.013384623103533
20
-27.332198469032669
30
0
40
1.8500000000000005
210
0
220
0
230
1
0
CIRCLE
5
102
100
AcDbEntity
8
0
100
AcDbCircle
10
76.478384623103537
20
-33.007198469032666
30
0
40
1.8499999999999985
210
0
220
0
230
1
0
ENDSEC
0
SECTION
2
OBJECTS
0
DICTIONARY
5
C
100
AcDbDictionary
3
ACAD_GROUP
350
D
3
ACAD_MLINESTYLE
350
17
0
DICTIONARY
5
D
100
AcDbDictionary
0
DICTIONARY
5
1A
330
C
100
AcDbDictionary
0
DICTIONARY
5
17
100
AcDbDictionary
0
ENDSEC
0
EOF
