0
SECTION
2
HEADER
9
$INSUNITS
70
4
9
$ACADVER
1
AC1014
9
$HANDSEED
5
FFFF
0
ENDSEC
0
SECTION
2
TABLES
0
TABLE
2
VPORT
5
8
100
AcDbSymbolTable
0
ENDTAB
0
TABLE
2
LTYPE
5
5
100
AcDbSymbolTable
0
LTYPE
5
14
100
AcDbSymbolTableRecord
100
AcDbLinetypeTableRecord
2
BYBLOCK
70
0
0
LTYPE
5
15
100
AcDbSymbolTableRecord
100
AcDbLinetypeTableRecord
2
BYLAYER
70
0
0
ENDTAB
0
TABLE
2
LAYER
5
2
100
AcDbSymbolTable
70
2
0
LAYER
5
50
100
AcDbSymbolTableRecord
100
AcDbLayerTableRecord
2
0
70
0
6
CONTINUOUS
0
ENDTAB
0
TABLE
2
STYLE
5
3
100
AcDbSymbolTable
70
1
0
STYLE
5
11
100
AcDbSymbolTableRecord
100
AcDbTextStyleTableRecord
2
STANDARD
70
0
0
ENDTAB
0
TABLE
2
VIEW
5
6
100
AcDbSymbolTable
70
0
0
ENDTAB
0
TABLE
2
UCS
5
7
100
AcDbSymbolTable
70
0
0
ENDTAB
0
TABLE
2
APPID
5
9
100
AcDbSymbolTable
70
2
0
APPID
5
12
100
AcDbSymbolTableRecord
100
AcDbRegAppTableRecord
2
ACAD
70
0
0
ENDTAB
0
TABLE
2
DIMSTYLE
5
A
100
AcDbSymbolTable
70
1
0
ENDTAB
0
TABLE
2
BLOCK_RECORD
5
1
100
AcDbSymbolTable
70
1
0
BLOCK_RECORD
5
1F
100
AcDbSymbolTableRecord
100
AcDbBlockTableRecord
2
*MODEL_SPACE
0
BLOCK_RECORD
5
1B
100
AcDbSymbolTableRecord
100
AcDbBlockTableRecord
2
*PAPER_SPACE
0
ENDTAB
0
ENDSEC
0
SECTION
2
BLOCKS
0
BLOCK
5
20
100
AcDbEntity
100
AcDbBlockBegin
2
*MODEL_SPACE
0
ENDBLK
5
21
100
AcDbEntity
100
AcDbBlockEnd
0
BLOCK
5
1C
100
AcDbEntity
100
AcDbBlockBegin
2
*PAPER_SPACE
0
ENDBLK
5
1D
100
AcDbEntity
100
AcDbBlockEnd
0
ENDSEC
0
SECTION
2
ENTITIES
0
LWPOLYLINE
5
100
100
AcDbEntity
8
0
100
AcDbPolyline
90
8
70
1
43
0.0
10
-2.9874999999999829
20
28.399999999999999
10
-2.9874999999999829
20
15.4
42
-0.41421356237309503
10
-3.4874999999999901
20
14.899999999999993
10
-16.487499999999997
20
14.899999999999993
42
-0.41421356237309503
10
-16.987500000000004
20
15.4
10
-16.987499999999997
20
28.399999999999999
42
-0.41421356237309503
10
-16.487499999999997
20
28.899999999999999
10
-3.4874999999999901
20
28.900000000000006
42
-0.41421356237309503
0
LWPOLYLINE
5
101
100
AcDbEntity
8
0
100
AcDbPolyline
90
8
70
1
43
0.0
10
-41.087500000000006
20
18.875
10
-41.087500000000006
20
5.8749999999999947
42
-0.41421356237309503
10
-41.587500000000006
20
5.3749999999999964
10
-54.587499999999991
20
5.3749999999999964
42
-0.41421356237309503
10
-55.087499999999991
20
5.8749999999999947
10
-55.087499999999991
20
18.875
42
-0.41421356237309503
10
-54.587499999999991
20
19.375
10
-41.587500000000006
20
19.375
42
-0.41421356237309503
0
LWPOLYLINE
5
102
100
AcDbEntity
8
0
100
AcDbPolyline
90
8
70
1
43
0.0
10
35.112500000000026
20
28.399999999999999
42
0.41421356237309503
10
34.612500000000011
20
28.899999999999999
10
21.612500000000026
20
28.899999999999999
42
0.41421356237309503
10
21.112500000000018
20
28.399999999999999
10
21.112500000000018
20
15.4
42
0.41421356237309503
10
21.612500000000026
20
14.899999999999993
10
34.612500000000011
20
14.899999999999993
42
0.41421356237309503
10
35.112500000000026
20
15.4
0
LWPOLYLINE
5
103
100
AcDbEntity
8
0
100
AcDbPolyline
90
8
70
1
43
0.0
10
40.662500000000001
20
26.423499999999997
10
53.662500000000009
20
26.423500000000004
42
-0.41421356237309503
10
54.162500000000016
20
25.923499999999997
10
54.162500000000009
20
12.923499999999999
42
-0.41421356237309503
10
53.662500000000009
20
12.423500000000001
10
40.662500000000001
20
12.423499999999992
42
-0.41421356237309503
10
40.162499999999994
20
12.923499999999999
10
40.162500000000001
20
25.923499999999997
42
-0.41421356237309503
0
LWPOLYLINE
5
104
100
AcDbEntity
8
0
100
AcDbPolyline
90
8
70
1
43
0.0
10
2.5625000000000142
20
19.662499999999994
10
15.562500000000004
20
19.662499999999994
42
0.41421356237309503
10
16.062500000000011
20
20.162499999999998
10
16.062500000000011
20
33.162500000000001
42
0.41421356237309503
10
15.562500000000004
20
33.662500000000001
10
2.5625000000000142
20
33.662500000000001
42
0.41421356237309503
10
2.0625000000000071
20
33.162500000000001
10
2.0625000000000071
20
20.162499999999998
42
0.41421356237309503
0
LWPOLYLINE
5
105
100
AcDbEntity
8
0
100
AcDbPolyline
90
8
70
1
43
0.0
10
-35.537499999999994
20
5.3749999999999964
10
-22.537499999999984
20
5.3749999999999964
42
0.41421356237309503
10
-22.037499999999977
20
5.8749999999999947
10
-22.037499999999977
20
18.875
42
0.41421356237309503
10
-22.537499999999984
20
19.375
10
-35.537499999999994
20
19.375
42
0.41421356237309503
10
-36.037499999999987
20
18.875
10
-36.037499999999987
20
5.8749999999999947
42
0.41421356237309503
0
LWPOLYLINE
5
106
100
AcDbEntity
8
0
100
AcDbPolyline
90
8
70
1
43
0.0
10
-16.987499999999986
20
9.3499999999999961
10
-16.987499999999986
20
-3.6500000000000021
42
0.41421356237309503
10
-16.487499999999997
20
-4.1500000000000004
10
-3.4874999999999901
20
-4.1500000000000004
42
0.41421356237309503
10
-2.9874999999999829
20
-3.6500000000000021
10
-2.9874999999999829
20
9.3499999999999961
42
0.41421356237309503
10
-3.4874999999999901
20
9.8499999999999943
10
-16.487499999999997
20
9.8499999999999943
42
0.41421356237309503
0
LWPOLYLINE
5
107
100
AcDbEntity
8
0
100
AcDbPolyline
90
8
70
1
43
0.0
10
-54.587499999999991
20
0.32499999999999751
42
0.41421356237309503
10
-55.087499999999991
20
-0.17500000000000071
10
-55.087499999999991
20
-13.174999999999999
42
0.41421356237309503
10
-54.587499999999991
20
-13.674999999999997
10
-41.587500000000006
20
-13.674999999999997
42
0.41421356237309503
10
-41.087500000000006
20
-13.174999999999999
10
-41.087500000000006
20
-0.17500000000000071
42
0.41421356237309503
10
-41.587500000000006
20
0.32499999999999751
0
LWPOLYLINE
5
108
100
AcDbEntity
8
0
100
AcDbPolyline
90
8
70
1
43
0.0
10
16.062500000000011
20
14.112499999999999
42
0.41421356237309503
10
15.562500000000004
20
14.612499999999997
10
2.5625000000000142
20
14.612499999999997
42
0.41421356237309503
10
2.0625000000000071
20
14.112499999999999
10
2.0625000000000071
20
1.1124999999999918
42
0.41421356237309503
10
2.5625000000000142
20
0.61249999999999361
10
15.562500000000004
20
0.61249999999999361
42
0.41421356237309503
10
16.062500000000011
20
1.1124999999999918
0
LWPOLYLINE
5
109
100
AcDbEntity
8
0
100
AcDbPolyline
90
8
70
1
43
0.0
10
35.112500000000026
20
9.3499999999999961
42
0.41421356237309503
10
34.612500000000011
20
9.8499999999999943
10
21.612500000000026
20
9.8499999999999943
42
0.41421356237309503
10
21.112500000000018
20
9.3499999999999961
10
21.112500000000018
20
-3.6500000000000021
42
0.41421356237309503
10
21.612500000000026
20
-4.1500000000000004
10
34.612500000000011
20
-4.1500000000000092
42
0.41421356237309503
10
35.112500000000026
20
-3.6500000000000021
0
LWPOLYLINE
5
110
100
AcDbEntity
8
0
100
AcDbPolyline
90
8
70
1
43
0.0
10
40.162499999999994
20
-6.1264999999999947
42
0.41421356237309503
10
40.662500000000001
20
-6.626499999999993
10
53.662500000000009
20
-6.626499999999993
42
0.41421356237309503
10
54.162500000000016
20
-6.1264999999999947
10
54.162500000000016
20
6.8734999999999946
42
0.41421356237309503
10
53.662500000000009
20
7.3734999999999928
10
40.662500000000001
20
7.3734999999999928
42
0.41421356237309503
10
40.162499999999994
20
6.8734999999999946
0
LWPOLYLINE
5
111
100
AcDbEntity
8
0
100
AcDbPolyline
90
8
70
1
43
0.0
10
54.162500000000016
20
-12.176500000000008
10
54.162500000000016
20
-25.176500000000015
42
-0.41421356237309503
10
53.662500000000009
20
-25.676500000000022
10
40.662500000000001
20
-25.676500000000022
42
-0.41421356237309503
10
40.162499999999994
20
-25.176500000000015
10
40.162500000000001
20
-12.176500000000008
42
-0.41421356237309503
10
40.662500000000001
20
-11.67650000000001
10
53.662500000000009
20
-11.676500000000001
42
-0.41421356237309503
0
LWPOLYLINE
5
112
100
AcDbEntity
8
0
100
AcDbPolyline
90
8
70
1
43
0.0
10
35.112500000000026
20
-9.7000000000000064
10
35.112500000000026
20
-22.700000000000014
42
-0.41421356237309503
10
34.612500000000011
20
-23.200000000000021
10
21.612500000000026
20
-23.200000000000021
42
-0.41421356237309503
10
21.112500000000018
20
-22.700000000000014
10
21.112500000000026
20
-9.7000000000000064
42
-0.41421356237309503
10
21.612500000000026
20
-9.2000000000000082
10
34.612500000000011
20
-9.1999999999999993
42
-0.41421356237309503
0
LWPOLYLINE
5
113
100
AcDbEntity
8
0
100
AcDbPolyline
90
8
70
1
43
0.0
10
-3.4874999999999901
20
-23.200000000000021
42
0.41421356237309503
10
-2.9874999999999829
20
-22.700000000000014
10
-2.9874999999999829
20
-9.7000000000000064
42
0.41421356237309503
10
-3.4874999999999901
20
-9.2000000000000082
10
-16.487499999999997
20
-9.2000000000000082
42
0.41421356237309503
10
-16.987500000000004
20
-9.7000000000000064
10
-16.987499999999986
20
-22.700000000000014
42
0.41421356237309503
10
-16.487499999999997
20
-23.200000000000003
0
LWPOLYLINE
5
114
100
AcDbEntity
8
0
100
AcDbPolyline
90
8
70
1
43
0.0
10
-22.037499999999977
20
-19.224999999999994
42
0.41421356237309503
10
-22.537499999999984
20
-18.724999999999994
10
-35.537499999999994
20
-18.724999999999994
42
0.41421356237309503
10
-36.037499999999987
20
-19.224999999999994
10
-36.037499999999987
20
-32.225000000000001
42
0.41421356237309503
10
-35.537499999999994
20
-32.725000000000009
10
-22.537499999999984
20
-32.725000000000009
42
0.41421356237309503
10
-22.037499999999994
20
-32.225000000000001
0
LWPOLYLINE
5
115
100
AcDbEntity
8
0
100
AcDbPolyline
90
8
70
1
43
0.0
10
2.0625000000000071
20
-23.987499999999997
10
2.0625000000000071
20
-36.987500000000004
42
0.41421356237309503
10
2.5625000000000142
20
-37.487500000000011
10
15.562500000000004
20
-37.487500000000011
42
0.41421356237309503
10
16.062500000000011
20
-36.987500000000004
10
16.062500000000011
20
-23.987499999999997
42
0.41421356237309503
10
15.562500000000004
20
-23.48749999999999
10
2.5625000000000142
20
-23.48749999999999
42
0.41421356237309503
0
LWPOLYLINE
5
116
100
AcDbEntity
8
0
100
AcDbPolyline
90
8
70
1
43
0.0
10
-35.537499999999994
20
0.32499999999999751
10
-22.537499999999984
20
0.32500000000000639
42
-0.41421356237309503
10
-22.037499999999977
20
-0.17500000000000071
10
-22.037499999999987
20
-13.174999999999999
42
-0.41421356237309503
10
-22.537499999999984
20
-13.674999999999997
10
-35.537499999999994
20
-13.674999999999997
42
-0.41421356237309503
10
-36.037499999999987
20
-13.174999999999999
10
-36.037499999999987
20
-0.17500000000000074
42
-0.41421356237309503
0
LWPOLYLINE
5
117
100
AcDbEntity
8
0
100
AcDbPolyline
90
8
70
1
43
0.0
10
-41.087500000000006
20
-19.224999999999994
10
-41.087499999999999
20
-32.225000000000001
42
-0.41421356237309503
10
-41.587500000000006
20
-32.725000000000009
10
-54.587499999999991
20
-32.725000000000001
42
-0.41421356237309503
10
-55.087499999999991
20
-32.225000000000001
10
-55.087499999999991
20
-19.224999999999994
42
-0.41421356237309503
10
-54.587499999999991
20
-18.724999999999994
10
-41.587500000000006
20
-18.724999999999994
42
-0.41421356237309503
0
LWPOLYLINE
5
118
100
AcDbEntity
8
0
100
AcDbPolyline
90
8
70
1
43
0.0
10
2.5625000000000142
20
-4.4375000000000053
10
15.562500000000004
20
-4.4374999999999964
42
-0.41421356237309503
10
16.062500000000011
20
-4.9375000000000036
10
16.0625
20
-17.9375
42
-0.41421356237309503
10
15.562500000000004
20
-18.4375
10
2.5625000000000142
20
-18.437500000000007
42
-0.41421356237309503
10
2.0625000000000071
20
-17.9375
10
2.062500000000016
20
-4.9375000000000036
42
-0.41421356237309503
0
LWPOLYLINE
5
119
100
AcDbEntity
8
0
100
AcDbPolyline
90
8
70
1
43
0.0
10
21.612500000000026
20
-42.440500000000014
10
34.612500000000011
20
-42.440500000000014
42
0.41421356237309503
10
35.112500000000026
20
-41.940500000000007
10
35.112500000000026
20
-28.9405
42
0.41421356237309503
10
34.612500000000011
20
-28.440499999999993
10
21.612500000000026
20
-28.440500000000011
42
0.41421356237309503
10
21.112500000000018
20
-28.9405
10
21.112500000000018
20
-41.940500000000007
42
0.41421356237309503
0
ARC
5
120
100
AcDbEntity
8
0
100
AcDbCircle
10
59.992271037495868
20
-48.462126219265336
30
0
40
0.4999999999999874
210
0
220
0
230
1
100
AcDbArc
50
160.0000000000004
51
250.00000000000043
0
ARC
5
121
100
AcDbEntity
8
0
100
AcDbCircle
10
55.918758538453581
20
-33.963255474638224
30
0
40
0.50000000000000744
210
-0
220
0
230
1
100
AcDbArc
50
-10.000000000000039
51
80.000000000001535
0
LINE
5
122
100
AcDbEntity
8
0
100
AcDbLine
10
40.772007304360372
20
-45.000733866245511
30
0
11
53.574508152730758
21
-47.258160184454695
31
0
0
LINE
5
123
100
AcDbEntity
8
0
100
AcDbLine
10
56.411162399899695
20
-34.050079542151856
30
0
11
54.153736081690525
21
-46.85258039052222
31
0
0
LINE
5
124
100
AcDbEntity
8
0
100
AcDbLine
10
59.821260997150787
20
-48.931972533424776
30
0
11
72.037265035781815
21
-53.378234396782716
31
0
0
ARC
5
125
100
AcDbEntity
8
0
100
AcDbCircle
10
53.661332220244375
20
-46.765756323008588
30
0
40
0.50000000000000289
210
0
220
0
230
1
100
AcDbArc
50
260.00000000000114
51
349.99999999999983
0
LINE
5
126
100
AcDbEntity
8
0
100
AcDbLine
10
64.609542941198811
20
-35.77627586647489
30
0
11
76.825546979829895
21
-40.222537729832851
31
0
0
ARC
5
127
100
AcDbEntity
8
0
100
AcDbCircle
10
76.654536939484814
20
-40.692384043992291
30
0
40
0.4999999999999874
210
-0
220
0
230
1
100
AcDbArc
50
-20.000000000000639
51
69.999999999999901
0
ARC
5
128
100
AcDbEntity
8
0
100
AcDbCircle
10
64.438532900853815
20
-36.246122180634345
30
0
40
0.50000000000000355
210
0
220
-0
230
1
100
AcDbArc
50
70.000000000001435
51
160.00000000000011
0
LINE
5
129
100
AcDbEntity
8
0
100
AcDbLine
10
43.203081757596848
20
-31.21342529498293
30
0
11
56.00558260596722
21
-33.470851613192089
31
0
0
ARC
5
130
100
AcDbEntity
8
0
100
AcDbCircle
10
43.116257690083188
20
-31.705829156429026
30
0
40
0.50000000000000744
210
0
220
-0
230
1
100
AcDbArc
50
79.999999999998337
51
169.99999999999932
0
LINE
5
131
100
AcDbEntity
8
0
100
AcDbLine
10
63.968686586694346
20
-36.075112140289278
30
0
11
59.522424723336435
21
-48.291116178920284
31
0
0
LINE
5
132
100
AcDbEntity
8
0
100
AcDbLine
10
77.124383253644226
20
-40.863394084337337
30
0
11
72.678121390286321
21
-53.079398122968314
31
0
0
ARC
5
133
100
AcDbEntity
8
0
100
AcDbCircle
10
40.858831371874025
20
-44.508330004799404
30
0
40
0.50000000000000744
210
0
220
0
230
1
100
AcDbArc
50
169.99999999999997
51
260.00000000000006
0
ARC
5
134
100
AcDbEntity
8
0
100
AcDbCircle
10
72.208275076126853
20
-52.908388082623276
30
0
40
0.50000000000000355
210
0
220
0
230
1
100
AcDbArc
50
250.00000000000017
51
339.99999999999937
0
LINE
5
135
100
AcDbEntity
8
0
100
AcDbLine
10
42.623853828637117
20
-31.619005088915372
30
0
11
40.366427510427897
21
-44.421505937285758
31
0
0
ARC
5
136
100
AcDbEntity
8
0
100
AcDbCircle
10
72.969354037866566
20
-54.54519149032155
30
0
40
1.7499999999999993
210
0
220
0
230
1
100
AcDbArc
50
250.27212716094235
51
339.99999999999977
0
LINE
5
137
100
AcDbEntity
8
0
100
AcDbLine
10
28.42059397904217
20
-45.651089217485215
30
0
11
27.585293049697928
21
-45.559105671364186
31
0
0
LINE
5
138
100
AcDbEntity
8
0
100
AcDbLine
10
24.237284593039821
20
-45.223844825476114
30
0
11
23.398609133132826
21
-45.148063280038109
31
0
0
SPLINE
5
139
100
AcDbEntity
8
0
100
AcDbSpline
70
0
71
3
72
8
73
4
74
0
42
0.000000001
43
0.0000000001
44
0.0000000001
40
0
40
0
40
0
40
0
40
1
40
1
40
1
40
1
10
37.561002894380465
20
30.186750000000195
30
0
10
37.336014351159378
20
30.922497881355859
30
0
10
36.656879483414087
20
31.424999999999592
30
0
10
35.887500000000131
20
31.424999999999592
30
0
0
LINE
5
140
100
AcDbEntity
8
0
100
AcDbLine
10
22.559273446374792
20
-45.075451113935365
30
0
11
21.719281006001783
21
-45.005991515984185
31
0
0
LINE
5
141
100
AcDbEntity
8
0
100
AcDbLine
10
20.878634642981755
20
-44.93967078127806
30
0
11
20.037336534232626
21
-44.876478369311847
31
0
0
SPLINE
5
142
100
AcDbEntity
8
0
100
AcDbSpline
70
0
71
3
72
14
73
10
74
0
42
0.000000001
43
0.0000000001
44
0.0000000001
40
0
40
0
40
0
40
0
40
1
40
1
40
1
40
2
40
2
40
2
40
3
40
3
40
3
40
3
10
-8.7378708125921456
20
-44.775000000000169
30
0
10
-9.0634078737482149
20
-44.775000000000169
30
0
10
-9.3858326231680245
20
-44.711415373087782
30
0
10
-9.6869967385207723
20
-44.587825107250545
30
0
10
-9.8864357795462432
20
-44.505980282976942
30
0
10
-10.074453313529173
20
-44.398681172994152
30
0
10
-10.246365090880172
20
-44.268601016345777
30
0
10
-10.418276868229892
20
-44.13852085969534
30
0
10
-10.572643269297171
20
-43.986748970632554
30
0
10
-10.705618425370229
20
-43.817066578460491
30
0
0
SPLINE
5
143
100
AcDbEntity
8
0
100
AcDbSpline
70
0
71
3
72
8
73
4
74
0
42
0.000000001
43
0.0000000001
44
0.0000000001
40
0
40
0
40
0
40
0
40
1
40
1
40
1
40
1
10
-2.2125000000001727
20
31.424999999999592
30
0
10
-1.2460016877965607
20
31.424999999999592
30
0
10
-0.46250000000020108
20
32.208501687795881
30
0
10
-0.46250000000020108
20
33.174999999999635
30
0
0
SPLINE
5
144
100
AcDbEntity
8
0
100
AcDbSpline
70
0
71
3
72
8
73
4
74
0
42
0.000000001
43
0.0000000001
44
0.0000000001
40
0
40
0
40
0
40
0
40
1
40
1
40
1
40
1
10
-57.612499999999955
20
-33.500000000000476
30
0
10
-57.612499999999955
20
-34.466498312204372
30
0
10
-56.828998312203737
20
-35.250000000000448
30
0
10
-55.862499999999983
20
-35.250000000000448
30
0
0
LINE
5
145
100
AcDbEntity
8
0
100
AcDbLine
10
26.74930553189677
20
-45.470419033909373
30
0
11
25.912637803564795
21
-45.384998458028853
31
0
0
LINE
5
146
100
AcDbEntity
8
0
100
AcDbLine
10
-55.862499999999983
20
-35.250000000000448
30
0
11
-29.037499999999934
21
-35.250000000000448
31
0
0
LINE
5
147
100
AcDbEntity
8
0
100
AcDbLine
10
-21.262500000000468
20
21.900000000000013
30
0
11
-55.862499999999983
21
21.900000000000013
31
0
0
LINE
5
148
100
AcDbEntity
8
0
100
AcDbLine
10
23.398609133132826
20
-45.148063280038109
30
0
11
22.559273446374792
21
-45.075451113935365
31
0
0
LINE
5
149
100
AcDbEntity
8
0
100
AcDbLine
10
25.912637803564795
20
-45.384998458028853
30
0
11
25.07529572248794
21
-45.302815608953573
31
0
0
LINE
5
150
100
AcDbEntity
8
0
100
AcDbLine
10
27.585293049697928
20
-45.559105671364186
30
0
11
26.74930553189677
21
-45.470419033909373
31
0
0
LINE
5
151
100
AcDbEntity
8
0
100
AcDbLine
10
-8.7378708125921456
20
-44.775000000000169
30
0
11
17.262078310511644
21
-44.775000000000169
31
0
0
LINE
5
152
100
AcDbEntity
8
0
100
AcDbLine
10
25.07529572248794
20
-45.302815608953573
30
0
11
24.237284593039821
21
-45.223844825476114
31
0
0
SPLINE
5
153
100
AcDbEntity
8
0
100
AcDbSpline
70
0
71
3
72
8
73
4
74
0
42
0.000000001
43
0.0000000001
44
0.0000000001
40
0
40
0
40
0
40
0
40
1
40
1
40
1
40
1
10
37.561002894380465
20
30.186750000000195
30
0
10
37.785991437601837
20
29.451002118644602
30
0
10
38.465126305346843
20
28.948499999999946
30
0
10
39.234505788760941
20
28.948499999999946
30
0
0
LINE
5
154
100
AcDbEntity
8
0
100
AcDbLine
10
-19.512500000000497
20
29.674999999999621
30
0
11
-19.512500000000497
21
23.649999999999984
31
0
0
LINE
5
155
100
AcDbEntity
8
0
100
AcDbLine
10
35.887500000000131
20
31.424999999999592
30
0
11
20.337499999998929
21
31.424999999999592
31
0
0
LINE
5
156
100
AcDbEntity
8
0
100
AcDbLine
10
-2.2125000000001727
20
31.424999999999592
30
0
11
-17.762500000000241
21
31.424999999999592
31
0
0
SPLINE
5
157
100
AcDbEntity
8
0
100
AcDbSpline
70
0
71
3
72
8
73
4
74
0
42
0.000000001
43
0.0000000001
44
0.0000000001
40
0
40
0
40
0
40
0
40
1
40
1
40
1
40
1
10
18.587499999998816
20
33.174999999999635
30
0
10
18.587499999998816
20
32.208501687795881
30
0
10
19.371001687795317
20
31.424999999999592
30
0
10
20.337499999998929
20
31.424999999999592
30
0
0
LINE
5
158
100
AcDbEntity
8
0
100
AcDbLine
10
18.587499999998816
20
33.174999999999635
30
0
11
18.587499999998816
21
34.437500000000334
31
0
0
LINE
5
159
100
AcDbEntity
8
0
100
AcDbLine
10
-57.612499999999955
20
20.14999999999997
30
0
11
-57.612499999999955
21
-33.500000000000476
31
0
0
LINE
5
160
100
AcDbEntity
8
0
100
AcDbLine
10
21.719281006001783
20
-45.005991515984185
30
0
11
20.878634642981755
21
-44.93967078127806
31
0
0
LINE
5
161
100
AcDbEntity
8
0
100
AcDbLine
10
29.255201455146906
20
-45.746402870453018
30
0
11
28.42059397904217
21
-45.651089217485215
31
0
0
SPLINE
5
162
100
AcDbEntity
8
0
100
AcDbSpline
70
0
71
3
72
8
73
4
74
0
42
0.000000001
43
0.0000000001
44
0.0000000001
40
0
40
0
40
0
40
0
40
1
40
1
40
1
40
1
10
-10.705618425370229
20
-43.817066578460491
30
0
10
-15.305501307508731
20
-37.947405250725303
30
0
10
-21.416128499052203
20
-35.091716391236893
30
0
10
-29.037499999999934
20
-35.250000000000448
30
0
0
LINE
5
163
100
AcDbEntity
8
0
100
AcDbLine
10
35.491854893079392
20
-46.571264518901963
30
0
11
35.077375500042166
21
-46.510040155636041
31
0
0
LINE
5
164
100
AcDbEntity
8
0
100
AcDbLine
10
55.146821258899422
20
-50.664020087588604
30
0
11
54.742219760483493
21
-50.555301277236673
31
0
0
SPLINE
5
165
100
AcDbEntity
8
0
100
AcDbSpline
70
0
71
3
72
20
73
16
74
0
42
0.000000001
43
0.0000000001
44
0.0000000001
40
0
40
0
40
0
40
0
40
1
40
1
40
1
40
2
40
2
40
2
40
3
40
3
40
3
40
4
40
4
40
4
40
5
40
5
40
5
40
5
10
74.618825957005669
20
-55.129962338746274
30
0
10
74.540887794385441
20
-55.344095680659429
30
0
10
74.421869759787654
20
-55.540958734864567
30
0
10
74.268471021493468
20
-55.7094706703489
30
0
10
74.115072283198572
20
-55.877982605833019
30
0
10
73.930225992303576
20
-56.014921290700421
30
0
10
73.724336592245635
20
-56.112578856995761
30
0
10
73.518447192188546
20
-56.210236423292805
30
0
10
73.295451512734445
20
-56.266745551897195
30
0
10
73.067901312010491
20
-56.278925513407039
30
0
10
72.94971470113461
20
-56.285251626796331
30
0
10
72.831190599800465
20
-56.279571678406235
30
0
10
72.714150522090591
20
-56.261972959390327
30
0
10
72.597110444382565
20
-56.244374240376196
30
0
10
72.482157046618539
20
-56.214947369092023
30
0
10
72.371056967237536
20
-56.174144586559542
30
0
0
LINE
5
166
100
AcDbEntity
8
0
100
AcDbLine
10
72.371056967237536
20
-56.174144586559542
30
0
11
71.576932334438595
21
-55.88417316814823
31
0
0
LINE
5
167
100
AcDbEntity
8
0
100
AcDbLine
10
64.400127466890439
20
-53.417225781084632
30
0
11
63.599316842434575
21
-53.159418200921742
31
0
0
LINE
5
168
100
AcDbEntity
8
0
100
AcDbLine
10
47.424337413745207
20
-48.766968115831695
30
0
11
47.01579450798215
21
-48.677205482394506
31
0
0
LINE
5
169
100
AcDbEntity
8
0
100
AcDbLine
10
67.596498078933479
20
-54.481513912120612
30
0
11
66.798423036690423
21
-54.210546547771195
31
0
0
LINE
5
170
100
AcDbEntity
8
0
100
AcDbLine
10
37.147847329247497
20
-46.825412994913229
30
0
11
36.734140277534181
21
-46.760477168398644
31
0
0
LINE
5
171
100
AcDbEntity
8
0
100
AcDbLine
10
59.182097850877483
20
-51.802861062239138
30
0
11
58.779431625883603
21
-51.684833275373059
31
0
0
LINE
5
172
100
AcDbEntity
8
0
100
AcDbLine
10
51.904359436888484
20
-49.821444628446052
30
0
11
51.498131933697465
21
-49.720546590936046
31
0
0
LINE
5
173
100
AcDbEntity
8
0
100
AcDbLine
10
46.198070579731706
20
-48.500748800417988
30
0
11
45.788889604547279
21
-48.414054487530471
31
0
0
LINE
5
174
100
AcDbEntity
8
0
100
AcDbLine
10
30.089108159655868
20
-45.845082018317491
30
0
11
29.672242878057293
21
-45.795319464638489
31
0
0
LINE
5
175
100
AcDbEntity
8
0
100
AcDbLine
10
35.906142917883216
20
-46.633408448280953
30
0
11
35.491854893079392
21
-46.571264518901963
31
0
0
LINE
5
176
100
AcDbEntity
8
0
100
AcDbLine
10
57.973532960141455
20
-51.451501365098444
30
0
11
57.570298209554466
21
-51.336208341989327
31
0
0
LINE
5
177
100
AcDbEntity
8
0
100
AcDbLine
10
30.922306354364597
20
-45.947164075560529
30
0
11
30.505796319766407
21
-45.895695270578081
31
0
0
LINE
5
178
100
AcDbEntity
8
0
100
AcDbLine
10
34.66270588595188
20
-46.449729813550711
30
0
11
34.247847196208966
21
-46.390327956293298
31
0
0
LINE
5
179
100
AcDbEntity
8
0
100
AcDbLine
10
44.15004353919295
20
-48.077481623093696
30
0
11
43.739803254892792
21
-47.99588087113495
31
0
0
LINE
5
180
100
AcDbEntity
8
0
100
AcDbLine
10
65.200244070675467
20
-53.678371994627518
30
0
11
64.400127466890439
21
-53.417225781084632
31
0
0
LINE
5
181
100
AcDbEntity
8
0
100
AcDbLine
10
40.450358378547492
20
-47.379241973689652
30
0
11
40.038249125632689
21
-47.306626453248661
31
0
0
LINE
5
182
100
AcDbEntity
8
0
100
AcDbLine
10
39.625936498646524
20
-47.234988538617948
30
0
11
39.213421491258003
21
-47.164323424569794
31
0
0
LINE
5
183
100
AcDbEntity
8
0
100
AcDbLine
10
69.19064694222763
20
-55.033075795325708
30
0
11
68.393904394040504
21
-54.75569827970002
31
0
0
LINE
5
184
100
AcDbEntity
8
0
100
AcDbLine
10
70.782157511956655
20
-55.597329595002982
30
0
11
69.986730074371707
21
-55.313625533481705
31
0
0
LINE
5
185
100
AcDbEntity
8
0
100
AcDbLine
10
63.599316842434575
20
-53.159418200921742
30
0
11
63.198648938841529
21
-53.031777618859017
31
0
0
LINE
5
186
100
AcDbEntity
8
0
100
AcDbLine
10
31.754787922390566
20
-46.05268828405908
30
0
11
31.338637237352831
21
-45.999493393943816
31
0
0
LINE
5
187
100
AcDbEntity
8
0
100
AcDbLine
10
66.798423036690423
20
-54.210546547771195
30
0
11
65.999673728601437
21
-53.942822822870333
31
0
0
LINE
5
188
100
AcDbEntity
8
0
100
AcDbLine
10
57.570298209554466
20
-51.336208341989327
30
0
11
57.166871638318582
21
-51.221838017542289
31
0
0
LINE
5
189
100
AcDbEntity
8
0
100
AcDbLine
10
39.213421491258003
20
-47.164323424569794
30
0
11
38.800705125143878
21
-47.094626170945482
31
0
0
LINE
5
190
100
AcDbEntity
8
0
100
AcDbLine
10
38.800705125143878
20
-47.094626170945482
30
0
11
38.387788447161824
21
-47.02589171622872
31
0
0
LINE
5
191
100
AcDbEntity
8
0
100
AcDbLine
10
51.091697024831518
20
-49.620646089294063
30
0
11
50.685053919337776
21
-49.521746916067535
31
0
0
LINE
5
192
100
AcDbEntity
8
0
100
AcDbLine
10
38.387788447161824
20
-47.02589171622872
30
0
11
37.974672526540957
21
-46.958114891111684
31
0
0
LINE
5
193
100
AcDbEntity
8
0
100
AcDbLine
10
36.320238427469548
20
-46.69647748775656
30
0
11
35.906142917883216
21
-46.633408448280953
31
0
0
LINE
5
194
100
AcDbEntity
8
0
100
AcDbLine
10
68.393904394040504
20
-54.75569827970002
30
0
11
67.596498078933479
21
-54.481513912120612
31
0
0
LINE
5
195
100
AcDbEntity
8
0
100
AcDbLine
10
49.056385544093729
20
-49.136230528464147
30
0
11
48.648691479310543
21
-49.042385785773739
31
0
0
LINE
5
196
100
AcDbEntity
8
0
100
AcDbLine
10
40.038249125632689
20
-47.306626453248661
30
0
11
39.625936498646524
21
-47.234988538617948
31
0
0
LINE
5
197
100
AcDbEntity
8
0
100
AcDbLine
10
30.505796319766407
20
-45.895695270578081
30
0
11
30.089108159655868
21
-45.845082018317491
31
0
0
LINE
5
198
100
AcDbEntity
8
0
100
AcDbLine
10
31.338637237352831
20
-45.999493393943816
30
0
11
30.922306354364597
21
-45.947164075560529
31
0
0
LINE
5
199
100
AcDbEntity
8
0
100
AcDbLine
10
71.576932334438595
20
-55.88417316814823
30
0
11
70.782157511956655
21
-55.597329595002982
31
0
0
LINE
5
200
100
AcDbEntity
8
0
100
AcDbLine
10
37.974672526540957
20
-46.958114891111684
30
0
11
37.561358452062819
21
-46.89129043206453
31
0
0
LINE
5
201
100
AcDbEntity
8
0
100
AcDbLine
10
65.999673728601437
20
-53.942822822870333
30
0
11
65.200244070675467
21
-53.678371994627518
31
0
0
LINE
5
202
100
AcDbEntity
8
0
100
AcDbLine
10
37.561358452062819
20
-46.89129043206453
30
0
11
37.147847329247497
21
-46.825412994913229
31
0
0
LINE
5
203
100
AcDbEntity
8
0
100
AcDbLine
10
53.121806087249524
20
-50.130082823176529
30
0
11
52.716195615709523
21
-50.026217052989956
31
0
0
LINE
5
204
100
AcDbEntity
8
0
100
AcDbLine
10
33.832800572593783
20
-46.331829064993677
30
0
11
33.417567151412385
21
-46.274227647183999
31
0
0
LINE
5
205
100
AcDbEntity
8
0
100
AcDbLine
10
55.955429474966621
20
-50.884318615450503
30
0
11
55.551224128762527
21
-50.773694302656232
31
0
0
LINE
5
206
100
AcDbEntity
8
0
100
AcDbLine
10
58.376577046860461
20
-51.567711528236551
30
0
11
57.973532960141455
21
-51.451501365098444
31
0
0
LINE
5
207
100
AcDbEntity
8
0
100
AcDbLine
10
29.672242878057293
20
-45.795319464638489
30
0
11
29.255201455146906
21
-45.746402870453018
31
0
0
LINE
5
208
100
AcDbEntity
8
0
100
AcDbLine
10
32.170757344752531
20
-46.106753892969685
30
0
11
31.754787922390566
21
-46.05268828405908
31
0
0
LINE
5
209
100
AcDbEntity
8
0
100
AcDbLine
10
69.986730074371707
20
-55.313625533481705
30
0
11
69.19064694222763
21
-55.033075795325708
31
0
0
LINE
5
210
100
AcDbEntity
8
0
100
AcDbLine
10
33.417567151412385
20
-46.274227647183999
30
0
11
33.002148061660904
21
-46.217518245698166
31
0
0
LINE
5
211
100
AcDbEntity
8
0
100
AcDbLine
10
62.396783052806711
20
-52.77904641114457
30
0
11
61.995583039522529
21
-52.653965549311117
31
0
0
LINE
5
212
100
AcDbEntity
8
0
100
AcDbLine
10
36.734140277534181
20
-46.760477168398644
30
0
11
36.320238427469548
21
-46.69647748775656
31
0
0
LINE
5
213
100
AcDbEntity
8
0
100
AcDbLine
10
56.763252091360613
20
-51.108395941868885
30
0
11
56.359438418044562
21
-50.995887643408899
31
0
0
LINE
5
214
100
AcDbEntity
8
0
100
AcDbLine
10
49.871140208369212
20
-49.326966502213061
30
0
11
49.463868286716576
21
-49.231091566000451
31
0
0
LINE
5
215
100
AcDbEntity
8
0
100
AcDbLine
10
47.01579450798215
20
-48.677205482394506
30
0
11
46.607038903831693
21
-48.588465682060367
31
0
0
LINE
5
216
100
AcDbEntity
8
0
100
AcDbLine
10
49.463868286716576
20
-49.231091566000451
30
0
11
49.056385544093729
21
-49.136230528464147
31
0
0
LINE
5
217
100
AcDbEntity
8
0
100
AcDbLine
10
47.832667732381623
20
-48.857753064674974
30
0
11
47.424337413745207
21
-48.766968115831695
31
0
0
LINE
5
218
100
AcDbEntity
8
0
100
AcDbLine
10
56.359438418044562
20
-50.995887643408899
30
0
11
55.955429474966621
21
-50.884318615450503
31
0
0
LINE
5
219
100
AcDbEntity
8
0
100
AcDbLine
10
53.527212738218509
20
-50.234928927826807
30
0
11
53.121806087249524
21
-50.130082823176529
31
0
0
LINE
5
220
100
AcDbEntity
8
0
100
AcDbLine
10
48.648691479310543
20
-49.042385785773739
30
0
11
48.240785661152984
21
-48.949559396968176
31
0
0
LINE
5
221
100
AcDbEntity
8
0
100
AcDbLine
10
40.862263294536604
20
-47.452839756668688
30
0
11
40.450358378547492
21
-47.379241973689652
31
0
0
LINE
5
222
100
AcDbEntity
8
0
100
AcDbLine
10
63.198648938841529
20
-53.031777618859017
30
0
11
62.797804676963494
21
-52.904985413248617
31
0
0
LINE
5
223
100
AcDbEntity
8
0
100
AcDbLine
10
58.779431625883603
20
-51.684833275373059
30
0
11
58.376577046860461
21
-51.567711528236551
31
0
0
LINE
5
224
100
AcDbEntity
8
0
100
AcDbLine
10
61.995583039522529
20
-52.653965549311117
30
0
11
61.594203589263628
21
-52.529747865343346
31
0
0
LINE
5
225
100
AcDbEntity
8
0
100
AcDbLine
10
61.192643635015514
20
-52.406398488762171
30
0
11
60.79090209247164
21
-52.283922632099866
31
0
0
LINE
5
226
100
AcDbEntity
8
0
100
AcDbLine
10
54.337418547048429
20
-50.44754308954591
30
0
11
53.932416553360639
21
-50.340750639934804
31
0
0
LINE
5
227
100
AcDbEntity
8
0
100
AcDbLine
10
42.918691645617827
20
-47.835713428984015
30
0
11
42.507821571814276
21
-47.757140675296448
31
0
0
LINE
5
228
100
AcDbEntity
8
0
100
AcDbLine
10
42.507821571814276
20
-47.757140675296448
30
0
11
42.096742914346891
21
-47.679570733184526
31
0
0
LINE
5
229
100
AcDbEntity
8
0
100
AcDbLine
10
52.310380371283514
20
-49.923336187858176
30
0
11
51.904359436888484
21
-49.821444628446052
31
0
0
LINE
5
230
100
AcDbEntity
8
0
100
AcDbLine
10
43.739803254892792
20
-47.99588087113495
30
0
11
43.329352425070425
21
-47.915292435997365
31
0
0
LINE
5
231
100
AcDbEntity
8
0
100
AcDbLine
10
59.584576871146538
20
-51.921789365233515
30
0
11
59.182097850877483
21
-51.802861062239138
31
0
0
LINE
5
232
100
AcDbEntity
8
0
100
AcDbLine
10
44.560072745443279
20
-48.160097275331744
30
0
11
44.15004353919295
21
-48.077481623093696
31
0
0
LINE
5
233
100
AcDbEntity
8
0
100
AcDbLine
10
51.498131933697465
20
-49.720546590936046
30
0
11
51.091697024831518
21
-49.620646089294063
31
0
0
LINE
5
234
100
AcDbEntity
8
0
100
AcDbLine
10
62.797804676963494
20
-52.904985413248617
30
0
11
62.396783052806711
21
-52.77904641114457
31
0
0
LINE
5
235
100
AcDbEntity
8
0
100
AcDbLine
10
45.379496134349836
20
-48.328381973364678
30
0
11
44.969890408451874
21
-48.243730086913708
31
0
0
LINE
5
236
100
AcDbEntity
8
0
100
AcDbLine
10
57.166871638318582
20
-51.221838017542289
30
0
11
56.763252091360613
21
-51.108395941868885
31
0
0
LINE
5
237
100
AcDbEntity
8
0
100
AcDbLine
10
35.077375500042166
20
-46.510040155636041
30
0
11
34.66270588595188
21
-46.449729813550711
31
0
0
LINE
5
238
100
AcDbEntity
8
0
100
AcDbLine
10
59.986869829791601
20
-52.041612690337011
30
0
11
59.584576871146538
21
-51.921789365233515
31
0
0
LINE
5
239
100
AcDbEntity
8
0
100
AcDbLine
10
33.002148061660904
20
-46.217518245698166
30
0
11
32.58654442316535
21
-46.161695447574438
31
0
0
LINE
5
240
100
AcDbEntity
8
0
100
AcDbLine
10
60.388977861855523
20
-52.162325582009181
30
0
11
59.986869829791601
21
-52.041612690337011
31
0
0
LINE
5
241
100
AcDbEntity
8
0
100
AcDbLine
10
46.607038903831693
20
-48.588465682060367
30
0
11
46.198070579731706
21
-48.500748800417988
31
0
0
LINE
5
242
100
AcDbEntity
8
0
100
AcDbLine
10
43.329352425070425
20
-47.915292435997365
30
0
11
42.918691645617827
21
-47.835713428984015
31
0
0
LINE
5
243
100
AcDbEntity
8
0
100
AcDbLine
10
60.79090209247164
20
-52.283922632099866
30
0
11
60.388977861855523
21
-52.162325582009181
31
0
0
LINE
5
244
100
AcDbEntity
8
0
100
AcDbLine
10
53.932416553360639
20
-50.340750639934804
30
0
11
53.527212738218509
21
-50.234928927826807
31
0
0
LINE
5
245
100
AcDbEntity
8
0
100
AcDbLine
10
50.278201876205713
20
-49.423852623091555
30
0
11
49.871140208369212
21
-49.326966502213061
31
0
0
LINE
5
246
100
AcDbEntity
8
0
100
AcDbLine
10
50.685053919337776
20
-49.521746916067535
30
0
11
50.278201876205713
21
-49.423852623091555
31
0
0
LINE
5
247
100
AcDbEntity
8
0
100
AcDbLine
10
55.551224128762527
20
-50.773694302656232
30
0
11
55.146821258899422
21
-50.664020087588604
31
0
0
LINE
5
248
100
AcDbEntity
8
0
100
AcDbLine
10
45.788889604547279
20
-48.414054487530471
30
0
11
45.379496134349836
21
-48.328381973364678
31
0
0
LINE
5
249
100
AcDbEntity
8
0
100
AcDbLine
10
48.240785661152984
20
-48.949559396968176
30
0
11
47.832667732381623
21
-48.857753064674974
31
0
0
LINE
5
250
100
AcDbEntity
8
0
100
AcDbLine
10
44.969890408451874
20
-48.243730086913708
30
0
11
44.560072745443279
21
-48.160097275331744
31
0
0
LINE
5
251
100
AcDbEntity
8
0
100
AcDbLine
10
41.685456435342957
20
-47.60299991310287
30
0
11
41.273962944383356
21
-47.52742429683952
31
0
0
LINE
5
252
100
AcDbEntity
8
0
100
AcDbLine
10
61.594203589263628
20
-52.529747865343346
30
0
11
61.192643635015514
21
-52.406398488762171
31
0
0
LINE
5
253
100
AcDbEntity
8
0
100
AcDbLine
10
52.716195615709523
20
-50.026217052989956
30
0
11
52.310380371283514
21
-49.923336187858176
31
0
0
LINE
5
254
100
AcDbEntity
8
0
100
AcDbLine
10
42.096742914346891
20
-47.679570733184526
30
0
11
41.685456435342957
21
-47.60299991310287
31
0
0
LINE
5
255
100
AcDbEntity
8
0
100
AcDbLine
10
41.273962944383356
20
-47.52742429683952
30
0
11
40.862263294536604
21
-47.452839756668688
31
0
0
LINE
5
256
100
AcDbEntity
8
0
100
AcDbLine
10
54.742219760483493
20
-50.555301277236673
30
0
11
54.337418547048429
21
-50.44754308954591
31
0
0
LINE
5
257
100
AcDbEntity
8
0
100
AcDbLine
10
34.247847196208966
20
-46.390327956293298
30
0
11
33.832800572593783
21
-46.331829064993677
31
0
0
SPLINE
5
258
100
AcDbEntity
8
0
100
AcDbSpline
70
0
71
3
72
8
73
4
74
0
42
0.000000001
43
0.0000000001
44
0.0000000001
40
0
40
0
40
0
40
0
40
1
40
1
40
1
40
1
10
-21.262500000000468
20
21.900000000000013
30
0
10
-20.296001687796572
20
21.900000000000013
30
0
10
-19.512500000000497
20
22.68350168779623
30
0
10
-19.512500000000497
20
23.649999999999984
30
0
0
LINE
5
259
100
AcDbEntity
8
0
100
AcDbLine
10
-0.46250000000020108
20
34.437500000000334
30
0
11
-0.46250000000020108
21
33.174999999999635
31
0
0
SPLINE
5
260
100
AcDbEntity
8
0
100
AcDbSpline
70
0
71
3
72
11
73
7
74
0
42
0.000000001
43
0.0000000001
44
0.0000000001
40
0
40
0
40
0
40
0
40
1
40
1
40
1
40
2
40
2
40
2
40
2
10
20.037336534232626
20
-44.876478369311847
30
0
10
19.575604783783209
20
-44.842666368673711
30
0
10
19.113293669942752
20
-44.817295365054228
30
0
10
18.65063476126986
20
-44.800378066621001
30
0
10
18.187975852596967
20
-44.783460768187631
30
0
10
17.725046409584539
20
-44.775000000000169
30
0
10
17.262078310511644
20
-44.775000000000169
30
0
0
SPLINE
5
261
100
AcDbEntity
8
0
100
AcDbSpline
70
0
71
3
72
8
73
4
74
0
42
0.000000001
43
0.0000000001
44
0.0000000001
40
0
40
0
40
0
40
0
40
1
40
1
40
1
40
1
10
18.587499999998816
20
34.437500000000334
30
0
10
18.587499999998816
20
35.403998312204301
30
0
10
17.803998312202882
20
36.187500000000377
30
0
10
16.837499999998844
20
36.187500000000377
30
0
0
SPLINE
5
262
100
AcDbEntity
8
0
100
AcDbSpline
70
0
71
3
72
8
73
4
74
0
42
0.000000001
43
0.0000000001
44
0.0000000001
40
0
40
0
40
0
40
0
40
1
40
1
40
1
40
1
10
1.2874999999997705
20
36.187500000000377
30
0
10
0.32100168779615856
20
36.187500000000377
30
0
10
-0.46250000000020108
20
35.403998312204301
30
0
10
-0.46250000000020108
20
34.437500000000334
30
0
0
SPLINE
5
263
100
AcDbEntity
8
0
100
AcDbSpline
70
0
71
3
72
8
73
4
74
0
42
0.000000001
43
0.0000000001
44
0.0000000001
40
0
40
0
40
0
40
0
40
1
40
1
40
1
40
1
10
-55.862499999999983
20
21.900000000000013
30
0
10
-56.828998312203737
20
21.900000000000013
30
0
10
-57.612499999999955
20
21.116498312203937
30
0
10
-57.612499999999955
20
20.14999999999997
30
0
0
SPLINE
5
264
100
AcDbEntity
8
0
100
AcDbSpline
70
0
71
3
72
8
73
4
74
0
42
0.000000001
43
0.0000000001
44
0.0000000001
40
0
40
0
40
0
40
0
40
1
40
1
40
1
40
1
10
-17.762500000000241
20
31.424999999999592
30
0
10
-18.728998312204137
20
31.424999999999592
30
0
10
-19.512500000000497
20
30.641498312203588
30
0
10
-19.512500000000497
20
29.674999999999621
30
0
0
LINE
5
265
100
AcDbEntity
8
0
100
AcDbLine
10
16.837499999998844
20
36.187500000000377
30
0
11
1.2874999999997705
21
36.187500000000377
31
0
0
LINE
5
266
100
AcDbEntity
8
0
100
AcDbLine
10
32.58654442316535
20
-46.161695447574438
30
0
11
32.170757344752531
21
-46.106753892969685
31
0
0
LINE
5
267
100
AcDbEntity
8
0
100
AcDbLine
10
74.618825957005669
20
-55.129962338746274
30
0
11
79.933182815833149
21
-40.528886870195379
31
0
0
LINE
5
268
100
AcDbEntity
8
0
100
AcDbLine
10
78.8872559802778
20
-38.285889533000073
30
0
11
58.33244964168577
21
-30.804551854645617
31
0
0
LINE
5
269
100
AcDbEntity
8
0
100
AcDbLine
10
56.687500000000014
20
-28.455320302680871
30
0
11
56.687500000000014
21
27.198499999999989
31
0
0
LINE
5
270
100
AcDbEntity
8
0
100
AcDbLine
10
54.9375
20
28.948499999999996
30
0
11
39.234505788760941
21
28.948499999999946
31
0
0
ARC
5
271
100
AcDbEntity
8
0
100
AcDbCircle
10
54.937499999999986
20
27.198499999999967
30
0
40
1.7500000000000249
210
0
220
-0
230
1
100
AcDbArc
50
0
51
89.999999999999545
0
ARC
5
272
100
AcDbEntity
8
0
100
AcDbCircle
10
59.1875
20
-28.455320302680882
30
0
40
2.4999999999999911
210
0
220
0
230
1
100
AcDbArc
50
180
51
249.99999999999844
0
ARC
5
273
100
AcDbEntity
8
0
100
AcDbCircle
10
78.288720729457822
20
-39.930351619375401
30
0
40
1.7500000000000082
210
0
220
0
230
1
100
AcDbArc
50
-20.000000000001911
51
69.999999999998096
0
CIRCLE
5
274
100
AcDbEntity
8
0
100
AcDbCircle
10
-38.586371323940782
20
-16.214509291281509
30
0
40
2.0000000000000018
210
0
220
0
230
1
0
ARC
5
275
100
AcDbEntity
8
0
100
AcDbCircle
10
-38.586371323940782
20
-16.214509291281509
30
0
40
0.75055534994651074
210
0
220
0
230
1
100
AcDbArc
50
150.00000000000065
51
209.99999999999991
0
CIRCLE
5
276
100
AcDbEntity
8
0
100
AcDbCircle
10
-38.586371323940782
20
2.8354907087185
30
0
40
2.0000000000000018
210
0
220
0
230
1
0
ARC
5
277
100
AcDbEntity
8
0
100
AcDbCircle
10
-38.586371323940782
20
2.8354907087185
30
0
40
0.75055534994651163
210
0
220
-0
230
1
100
AcDbArc
50
29.999999999999854
51
89.99999999999946
0
CIRCLE
5
278
100
AcDbEntity
8
0
100
AcDbCircle
10
37.01362867605922
20
12.365490708718498
30
0
40
2.0000000000000013
210
0
220
0
230
1
0
ARC
5
279
100
AcDbEntity
8
0
100
AcDbCircle
10
37.01362867605922
20
12.365490708718498
30
0
40
0.75055534994651074
210
0
220
0
230
1
100
AcDbArc
50
150.00000000000108
51
210.00000000000006
0
CIRCLE
5
280
100
AcDbEntity
8
0
100
AcDbCircle
10
37.013628676059234
20
-25.734509291281526
30
0
40
1.9999999999999982
210
0
220
0
230
1
0
ARC
5
281
100
AcDbEntity
8
0
100
AcDbCircle
10
37.013628676059234
20
-25.734509291281526
30
0
40
0.75055534994651185
210
0
220
0
230
1
100
AcDbArc
50
150.00000000000057
51
209.99999999999943
0
LINE
5
282
100
AcDbEntity
8
0
100
AcDbLine
10
-14.518759902667339
20
-34.063834764831853
30
0
11
-12.918930810232773
21
-35.663663857266421
31
0
0
LWPOLYLINE
5
283
100
AcDbEntity
8
0
100
AcDbPolyline
90
8
70
1
43
0.0
10
-9.8013347648318287
20
-28.639302845809809
10
-14.518759902667345
20
-33.356727983645307
42
0.41421356237309875
10
-14.518759902667345
20
-34.06383476483186
10
-9.8013347648318341
20
-38.781259902667379
42
0.41421356237309459
10
-9.0942279836452897
20
-38.781259902667379
10
-4.376802845809765
20
-34.06383476483186
42
0.41421356237309892
10
-4.3768028458097659
20
-33.356727983645307
10
-9.0942279836452862
20
-28.639302845809812
42
0.41421356237309548
0
ENDSEC
0
SECTION
2
OBJECTS
0
DICTIONARY
5
C
100
AcDbDictionary
3
ACAD_GROUP
350
D
3
ACAD_MLINESTYLE
350
17
0
DICTIONARY
5
D
100
AcDbDictionary
0
DICTIONARY
5
1A
330
C
100
AcDbDictionary
0
DICTIONARY
5
17
100
AcDbDictionary
0
ENDSEC
0
EOF
